<svg width="100" height="100" viewBox="0 0 100 100" fill="none" xmlns="http://www.w3.org/2000/svg">
<path d="M86.4846 100C85.2736 100 84.0822 99.5117 83.2228 98.6523L66.3674 81.7969L59.8439 93.1055C58.965 94.6289 57.2658 95.5273 55.5275 95.3906C53.7697 95.2734 52.2267 94.1211 51.5822 92.5L28.3595 34.3555C27.6759 32.6367 28.0861 30.7031 29.3752 29.3945C30.6838 28.0859 32.6369 27.6953 34.3361 28.3789L92.5002 51.5625C94.1213 52.207 95.2736 53.7695 95.3908 55.5078C95.5275 57.2461 94.6096 58.9453 93.1057 59.8242L81.7971 66.3477L98.6525 83.2031C100.449 85 100.449 87.9297 98.6525 89.7266L89.7267 98.6523C88.8674 99.5117 87.715 100 86.4846 100ZM65.7033 76.7773L85.3908 96.4648C85.9572 97.0312 86.9924 97.0312 87.5588 96.4648L96.4846 87.5391C97.09 86.9336 97.09 85.9766 96.4846 85.3711L76.7775 65.7031L91.5432 57.168C92.051 56.875 92.3439 56.3086 92.3049 55.7226C92.2658 55.1367 91.8947 54.6289 91.3478 54.4141L33.2228 31.2305C32.6564 30.9961 32.0119 31.1328 31.5627 31.5625C31.133 31.9922 30.9963 32.6367 31.2306 33.2031L54.4142 91.3477C54.6291 91.8945 55.1369 92.2656 55.7228 92.3047C56.3088 92.3437 56.8556 92.0508 57.1681 91.543L65.7033 76.7773Z" fill="white"/>
<path d="M9.6875 56.9141C9.29687 56.9141 8.90625 56.7578 8.59375 56.4648C8.00781 55.8594 8.00781 54.9023 8.59375 54.2969L20.3906 42.5195C20.9961 41.9141 21.9727 41.9141 22.5586 42.5195C23.1641 43.125 23.1641 44.1016 22.5586 44.6875L10.7617 56.4648C10.4687 56.7773 10.0781 56.9141 9.6875 56.9141Z" fill="white"/>
<path d="M18.2031 35.1367H1.54297C0.683594 35.1367 0 34.4531 0 33.5938C0 32.7539 0.683594 32.0508 1.54297 32.0508H18.2227C19.082 32.0508 19.7656 32.7344 19.7656 33.5938C19.7461 34.4336 19.0625 35.1367 18.2031 35.1367Z" fill="white"/>
<path d="M22.9688 24.5117C22.5781 24.5117 22.1875 24.3555 21.875 24.0625L10.0977 12.2656C9.49219 11.6602 9.49219 10.6836 10.0977 10.0977C10.7031 9.49219 11.6797 9.49219 12.2656 10.0977L24.0625 21.875C24.668 22.4805 24.668 23.457 24.0625 24.043C23.75 24.3555 23.3594 24.5117 22.9688 24.5117Z" fill="white"/>
<path d="M33.5937 19.7461C32.7344 19.7461 32.0508 19.0625 32.0508 18.2031V1.54297C32.0508 0.703125 32.7344 0 33.5937 0C34.4531 0 35.1367 0.683594 35.1367 1.54297V18.2031C35.1367 19.0625 34.4336 19.7461 33.5937 19.7461Z" fill="white"/>
<path d="M43.5937 23.0078C43.2031 23.0078 42.8125 22.8516 42.5 22.5586C41.8945 21.9531 41.8945 20.9766 42.5 20.3906L54.2969 8.59375C54.9023 7.98828 55.8789 7.98828 56.4648 8.59375C57.0508 9.19922 57.0703 10.1758 56.4648 10.7617L44.6875 22.5391C44.375 22.8711 43.9844 23.0078 43.5937 23.0078Z" fill="white"/>
</svg>
