<svg width="78" height="100" viewBox="0 0 78 100" fill="none" xmlns="http://www.w3.org/2000/svg">
<path d="M76.6562 16.543L66.4023 2.51953C65.25 0.917969 63.5508 0 61.7539 0C59.957 0 58.2578 0.917969 57.1055 2.51953L46.8516 16.543C45.6406 18.2031 45.3672 20.0586 46.1094 21.6602C46.9102 23.3984 48.7266 24.4531 50.9922 24.4531H60.2695V98.5156C60.2695 99.3359 60.9336 100 61.7539 100C62.5742 100 63.2383 99.3359 63.2383 98.5156V24.4531H72.4375H72.5352H72.6133C74.8203 24.4141 76.5977 23.3789 77.3789 21.6797C78.1406 20.0586 77.8672 18.1836 76.6562 16.543ZM74.6836 20.4102C74.3906 21.0547 73.5703 21.4453 72.4766 21.4453H50.9922C49.9375 21.4453 49.1367 21.0547 48.8242 20.4102C48.5508 19.8242 48.707 19.043 49.2734 18.3008L59.5078 4.27734C60.1133 3.45703 60.9336 2.98828 61.7539 2.98828C62.5742 2.98828 63.3945 3.45703 64 4.27734L74.2539 18.3008C74.8008 19.043 74.957 19.8242 74.6836 20.4102ZM33.2188 33.3398V98.5156C33.2188 99.3359 32.5547 100 31.7344 100C30.9141 100 30.25 99.3359 30.25 98.5156V33.3398C30.25 32.5195 30.9141 31.8555 31.7344 31.8555C32.5547 31.8359 33.2188 32.5 33.2188 33.3398ZM3.17969 48.2422V98.5156C3.17969 99.3359 2.51562 100 1.69531 100C0.875 100 0.210938 99.3359 0.210938 98.5156V48.2422C0.210938 47.4219 0.875 46.7578 1.69531 46.7578C2.51562 46.7578 3.17969 47.4219 3.17969 48.2422Z" fill="white"/>
</svg>
