<svg width="100" height="100" viewBox="0 0 100 100" fill="none" xmlns="http://www.w3.org/2000/svg">
<path d="M52.3242 59.6094C52.1289 59.6094 51.9336 59.6094 51.7383 59.5898C49.6094 59.4336 47.6758 58.3398 46.4258 56.6016L31.2891 35.6836C30.3711 34.4141 30.5078 32.7148 31.6211 31.6016C32.7344 30.5078 34.4336 30.3711 35.7031 31.2695L56.6211 46.3867C58.3594 47.6562 59.4531 49.5898 59.6094 51.7187C59.7852 53.8477 59.0039 55.9375 57.5 57.4414C56.0938 58.8477 54.2773 59.6094 52.3242 59.6094ZM48.9062 54.8047C49.6289 55.8008 50.7617 56.4258 51.9922 56.5234C52.1094 56.5234 52.207 56.543 52.3242 56.543C53.457 56.543 54.5117 56.1133 55.3125 55.3125C56.1914 54.4336 56.6406 53.2227 56.543 51.9922C56.4453 50.7617 55.8203 49.6289 54.8242 48.9062L33.9258 33.7891C33.9062 33.7695 33.8477 33.7695 33.8281 33.8086C33.8086 33.8281 33.8086 33.8672 33.8281 33.9062L48.9062 54.8047ZM100 50C100 22.4219 77.5781 0 50 0H48.457V25.0391C48.457 25.8789 49.1406 26.582 50 26.582C50.8594 26.582 51.543 25.8984 51.543 25.0391V3.10547C76.6992 3.92578 96.9141 24.6484 96.9141 50C96.9141 75.8789 75.8594 96.9141 50 96.9141C24.1406 96.9141 3.08594 75.8789 3.08594 50C3.08594 37.3047 8.08594 25.4102 17.1484 16.5039C17.7539 15.918 17.7734 14.9414 17.168 14.3359C16.582 13.7305 15.6055 13.7305 15 14.3164C5.3125 23.7891 0 36.4648 0 50C0 77.5781 22.4219 100 50 100C77.5781 100 100 77.5781 100 50Z" fill="white"/>
</svg>
