<svg width="100" height="100" viewBox="0 0 100 100" fill="none" xmlns="http://www.w3.org/2000/svg">
<path d="M50 3.08594C75.8789 3.08594 96.9141 24.1406 96.9141 50C96.9141 75.8594 75.8789 96.9141 50 96.9141C24.1211 96.9141 3.08594 75.8789 3.08594 50C3.08594 24.1211 24.1211 3.08594 50 3.08594ZM50 0C22.4219 0 0 22.4219 0 50C0 77.5781 22.4219 100 50 100C77.5781 100 100 77.5781 100 50C100 22.4219 77.5781 0 50 0ZM71.6406 68.3789L72.8516 67.6367C73.5742 67.1875 73.8086 66.25 73.3594 65.5273C72.9102 64.8047 71.9727 64.5703 71.25 65.0195L70.0586 65.7617C64.0039 69.4922 57.0703 71.4648 50.0195 71.4648C42.9688 71.4648 36.0547 69.4922 30 65.7617L28.8086 65.0195C28.0859 64.5703 27.1289 64.8047 26.6992 65.5273C26.25 66.25 26.4844 67.207 27.207 67.6367L28.3984 68.3789C34.9414 72.4023 42.4219 74.5312 50.0391 74.5312C57.6172 74.5312 65.0977 72.4023 71.6406 68.3789ZM44.9805 38.9648C45.5859 38.3594 45.5859 37.3828 44.9805 36.7969L37.9492 29.7656C36.7578 28.5742 34.8242 28.5742 33.6328 29.7656L26.6016 36.7969C25.9961 37.4023 25.9961 38.3789 26.6016 38.9648C27.207 39.5703 28.1836 39.5703 28.7695 38.9648L35.7617 31.9336L42.793 38.9648C43.0859 39.2578 43.4961 39.4141 43.8867 39.4141C44.2773 39.4141 44.6875 39.2578 44.9805 38.9648ZM73.3984 38.9648C74.0039 38.3594 74.0039 37.3828 73.3984 36.7969L66.3672 29.7656C65.7812 29.1797 65.0195 28.8672 64.1992 28.8672C63.3789 28.8672 62.6172 29.1797 62.0312 29.7656L55 36.7969C54.3945 37.4023 54.3945 38.3789 55 38.9648C55.6055 39.5703 56.582 39.5703 57.168 38.9648L64.1602 31.9336L71.1914 38.9648C71.4844 39.2578 71.8945 39.4141 72.2852 39.4141C72.7148 39.4141 73.1055 39.2578 73.3984 38.9648Z" fill="white"/>
</svg>
