<svg width="100" height="100" viewBox="0 0 100 100" fill="none" xmlns="http://www.w3.org/2000/svg">
<path d="M50 0C22.3828 0 0 22.3828 0 50C0 77.6172 22.3828 100 50 100C77.6172 100 100 77.6172 100 50C100 22.3828 77.6172 0 50 0ZM50 96.9141C24.1211 96.9141 3.08594 75.8789 3.08594 50C3.08594 24.1211 24.1211 3.08594 50 3.08594C75.8789 3.08594 96.9141 24.1406 96.9141 50C96.9141 75.8789 75.8789 96.9141 50 96.9141ZM56.0352 23.457H38.9258V52.0312H32.5C31.6602 52.0312 30.957 52.7148 30.957 53.5742C30.957 54.4141 31.6406 55.1172 32.5 55.1172H38.9258V60.2344H32.5C31.6602 60.2344 30.957 60.918 30.957 61.7773C30.957 62.6367 31.6406 63.3203 32.5 63.3203H38.9258V75C38.9258 75.8594 39.6094 76.543 40.4688 76.543C41.3086 76.543 42.0117 75.8594 42.0117 75V63.3008H53.9844C54.8242 63.3008 55.5273 62.6172 55.5273 61.7578C55.5273 60.8984 54.8438 60.2148 53.9844 60.2148H41.9922V55.0977H56.0352C63.2031 55.0977 69.043 48.7695 69.043 40.9766V37.5586C69.043 29.8047 63.2031 23.457 56.0352 23.457ZM65.957 40.9961C65.957 47.0898 61.5039 52.0508 56.0352 52.0508H41.9922V26.543H56.0352C61.5039 26.543 65.957 31.5039 65.957 37.5977V40.9961Z" fill="white"/>
</svg>
