<svg width="100" height="96" viewBox="0 0 100 96" fill="none" xmlns="http://www.w3.org/2000/svg">
<path d="M26.3288 3.3125C35.3132 3.3125 43.2233 9.05469 46.9929 18.3125L49.7077 24.9727L52.4226 18.3125C56.1335 9.21094 64.4929 3.3125 73.6921 3.3125C79.7468 3.3125 85.2155 5.85156 89.5124 10.6367C93.6921 15.3047 96.3288 21.7109 96.9343 28.6641V28.7812L96.9538 28.918C96.9538 28.957 97.5007 32.3359 96.1335 38.3516C94.1999 46.8281 89.7272 54.543 83.2038 60.6758L49.7272 91.6133L16.8171 60.6953C10.2741 54.5625 5.80146 46.8477 3.86787 38.3711C2.50068 32.3555 3.04756 28.9766 3.04756 28.957L3.06709 28.8203L3.08662 28.6836C3.69209 21.7305 6.30928 15.3242 10.5085 10.6562C14.7858 5.85156 20.2546 3.3125 26.3288 3.3125ZM26.3288 0.382812C11.8757 0.382812 1.48506 13.1758 0.176463 28.4297C0.176463 28.4297 -0.526662 32.2188 1.01631 39.0352C3.12568 48.293 8.10615 56.5351 14.8054 62.8437L49.7077 95.6367L85.196 62.8437C91.8952 56.5547 96.8757 48.3125 98.985 39.0352C100.548 32.2188 99.8249 28.4297 99.8249 28.4297C98.5163 13.1758 88.1061 0.382812 73.6726 0.382812C62.9499 0.382812 53.7311 7.29688 49.6882 17.1992C45.6647 7.29688 37.0515 0.382812 26.3288 0.382812Z" fill="white"/>
</svg>
