<svg width="100" height="96" viewBox="0 0 100 96" fill="none" xmlns="http://www.w3.org/2000/svg">
<path d="M76.3867 3.3125C77.3047 3.3125 78.1836 3.83984 78.6328 4.66016C79.1016 5.53906 79.082 6.53516 78.5547 7.375C76.1914 11.125 75.4688 15.0117 76.4453 18.5859L76.6797 19.4648L77.3633 20.0508C82.3438 24.3086 86.1719 29.6406 88.418 35.4609L89.1406 37.3359H91.1523H92.6172C93.8086 37.3359 94.9219 37.8047 95.7617 38.6445C96.6016 39.4844 97.0508 40.6172 97.0508 41.8281V53.3711C97.0508 55.8711 95.0391 57.9219 92.5781 57.9219H91.3672H89.3164L88.6133 59.8555C86.5625 65.5195 82.9492 70.793 78.2031 75.0898L78.1445 75.1289L77.9297 75.3242L77.9102 75.3633C77.8711 75.4023 77.832 75.4219 77.8125 75.4609C77.6953 75.5586 77.5781 75.6562 77.4414 75.793C72.6562 80.1875 72.2852 85.4414 72.2656 86.4375V86.4766V86.5156V90.2851C72.2656 91.6133 71.2109 92.6875 69.9219 92.6875H54.6484C53.3594 92.6875 52.3047 91.6133 52.3047 90.2851V89.6601V86.5937L49.2383 86.7305C48.3984 86.7695 47.5391 86.7891 46.7188 86.7891C45.4688 86.7891 44.2383 86.75 43.0273 86.6523L39.8828 86.418V89.582V90.2851C39.8828 91.6133 38.8281 92.6875 37.5391 92.6875H22.2656C21.1328 92.6875 20.1367 91.8086 19.9609 90.6367L19.9414 90.5781L19.9219 90.5195C19.9219 90.5 19.9219 90.5 19.9219 90.4414V90.3047V89.2109V89.1328V89.0742C19.8047 86.5937 19.0039 80.2656 14.1406 75.207C11.3672 72.2969 8.88672 68.5273 6.79688 63.9766L6.77734 63.9375L6.75781 63.8984C5.50781 61.3984 4.55078 58.8203 3.92578 56.2422V56.2031L3.84766 55.8125L3.82812 55.7539C3.24219 53.2344 2.94922 50.5977 2.94922 47.9609C2.94922 37.5703 7.51953 27.8242 15.8203 20.5C24.1211 13.1758 35.1562 9.13281 46.8555 9.13281C48.5742 9.13281 50.4492 9.23047 52.3828 9.44531H52.4219H52.4609H52.5195C55.5078 9.67969 58.1641 10.1289 60.0391 10.7148L61.8945 11.3008L63.1641 9.81641C66.25 6.18359 70.5664 3.99609 76.0156 3.3125C76.1328 3.33203 76.2891 3.3125 76.3867 3.3125ZM76.3867 0.382812C76.1523 0.382812 75.918 0.402344 75.6836 0.421875C68.2031 1.35937 63.6523 4.73828 60.918 7.94141C57.6367 6.90625 53.4766 6.59375 52.6953 6.53516C50.7617 6.32031 48.7891 6.20312 46.8555 6.20312C34.4141 6.20312 22.6953 10.5195 13.8477 18.293C4.92188 26.2031 0 36.7305 0 47.9609C0 50.8711 0.332031 53.7617 0.996094 56.5937C1.01562 56.6523 1.01562 56.7109 1.03516 56.75L1.05469 56.8476C1.75781 59.6992 2.79297 62.5117 4.14062 65.168C6.36719 70.0117 9.04297 74.0742 12.0312 77.1992C16.1719 81.5547 16.8945 87.0234 16.9922 89.2109V90.2851C16.9922 90.3242 16.9922 90.3828 16.9922 90.4219C16.9922 90.6562 17.0117 90.8516 17.0508 91.0664C17.4414 93.6445 19.6289 95.5976 22.2656 95.5976H37.5391C40.4492 95.5976 42.8125 93.2148 42.8125 90.2656V89.5625C44.1016 89.6601 45.4102 89.6992 46.7188 89.6992C47.5977 89.6992 48.4961 89.6797 49.375 89.6406V90.2656C49.375 93.2148 51.7383 95.5976 54.6484 95.5976H69.9219C72.832 95.5976 75.1953 93.2148 75.1953 90.2656V86.4961C75.2148 85.6172 75.5469 81.4961 79.4141 77.9414C79.5898 77.7851 79.8047 77.6094 79.9805 77.4531C80 77.4336 80 77.4336 80.0195 77.4141C80.0781 77.375 80.1172 77.3359 80.1562 77.2773C85.2539 72.6484 89.1211 67.0234 91.3477 60.8711H92.5586C96.6406 60.8711 99.9609 57.5117 99.9609 53.3906V41.8477C100 37.7461 96.6797 34.4062 92.5977 34.4062H91.1328C88.7109 28.1367 84.6484 22.4336 79.2383 17.8047C78.4766 15.0312 79.0625 12.0234 80.9961 8.91797C82.0898 7.16016 82.1484 5.05078 81.1523 3.23437C80.2344 1.47656 78.3789 0.382812 76.3867 0.382812ZM33.6133 58.6445C33.6133 57.8437 32.9492 57.1797 32.1484 57.1797H23.3789L23.5352 57.0234C30.3516 50.5195 33.5742 46.9648 33.6133 42.3945C33.6133 38.3711 31.0938 35.8711 27.0117 35.8711C24.1992 35.8711 21.9727 37.2578 20.5859 38.4102C19.9609 38.9375 19.8828 39.8555 20.4102 40.4805C20.9375 41.1055 21.8555 41.1836 22.4805 40.6562C23.3008 39.9727 25 38.8008 27.0312 38.8008C29.4922 38.8008 30.7031 39.9727 30.7031 42.375C30.6641 45.6562 27.9688 48.7422 21.5234 54.8945L16.1719 60.1094H32.1484C32.9492 60.1094 33.6133 59.4648 33.6133 58.6445ZM46.6602 60.1094C42.7148 60.1094 38.4766 56.9453 38.3984 48.0781C38.3984 40.6758 41.7773 35.8906 47.0117 35.8906C52.1875 35.8906 55.2734 40.3437 55.2734 47.7852C55.2734 58.918 49.2578 60.1094 46.6602 60.1094ZM47.0117 38.8203C43.5156 38.8203 41.3281 42.3555 41.3281 48.0586C41.3867 53.7617 43.3789 57.1797 46.6602 57.1797C49.2578 57.1797 52.3438 55.5391 52.3438 47.7852C52.3438 45.0898 51.8164 38.8203 47.0117 38.8203ZM68.3203 60.1094C64.375 60.1094 60.1367 56.9453 60.0586 48.0781C60.0586 40.6758 63.4375 35.8906 68.6719 35.8906C73.8477 35.8906 76.9336 40.3437 76.9336 47.7852C76.9141 58.918 70.8984 60.1094 68.3203 60.1094ZM68.6523 38.8203C65.1562 38.8203 62.9688 42.3555 62.9688 48.0586C63.0273 53.7617 65.0195 57.1797 68.3008 57.1797C70.8984 57.1797 73.9844 55.5391 73.9844 47.7852C73.9844 45.0898 73.4766 38.8203 68.6523 38.8203Z" fill="white"/>
</svg>
