<svg width="100" height="100" viewBox="0 0 100 100" fill="none" xmlns="http://www.w3.org/2000/svg">
<path d="M55.6641 24.2383H39.082V51.9336H32.9297C32.0898 51.9336 31.4062 52.6172 31.4062 53.4766C31.4062 54.3359 32.0898 55.0195 32.9297 55.0195H39.082V59.8828H32.9297C32.0898 59.8828 31.4062 60.5664 31.4062 61.4258C31.4062 62.2852 32.0898 62.9687 32.9297 62.9687H39.082V74.2578C39.082 75.0977 39.7656 75.8008 40.6055 75.8008C41.4453 75.8008 42.1289 75.1172 42.1289 74.2578V62.9687H53.6523C54.4922 62.9687 55.1758 62.2852 55.1758 61.4258C55.1758 60.5859 54.4922 59.8828 53.6523 59.8828H42.1289V55.0195H55.6641C62.6172 55.0195 68.2617 48.8672 68.2617 41.2891V37.9883C68.2617 30.3906 62.6172 24.2383 55.6641 24.2383ZM65.1953 41.2695C65.1953 47.1484 60.918 51.9336 55.6641 51.9336H42.1484V27.3047H55.6641C60.918 27.3047 65.1953 32.0898 65.1953 37.9687V41.2695Z" fill="white"/>
<path d="M98.4766 82.7344H87.5C95.3711 73.6523 99.668 62.168 99.668 50C99.668 22.4219 77.3242 0 49.8438 0C22.3633 0 0 22.4219 0 50C0 77.5781 22.3438 100 49.8242 100C50.6641 100 51.3477 99.3164 51.3477 98.457C51.3477 97.5977 50.6641 96.9141 49.8242 96.9141C24.043 96.9141 3.06641 75.8594 3.06641 50C3.06641 24.1406 24.043 3.08594 49.8242 3.08594C75.6055 3.08594 96.582 24.1406 96.582 50C96.582 61.2305 92.6758 71.8555 85.5078 80.3125V69.7266C85.5078 68.8867 84.8242 68.1836 83.9844 68.1836C83.1445 68.1836 82.4609 68.8672 82.4609 69.7266V85.8008H98.4766C99.3164 85.8008 100 85.1172 100 84.2578C100 83.418 99.3164 82.7344 98.4766 82.7344Z" fill="white"/>
</svg>
