<svg width="100" height="86" viewBox="0 0 100 86" fill="none" xmlns="http://www.w3.org/2000/svg">
<path d="M99.6094 83.4492L82.9297 66.7695C86.4453 62.8047 88.5938 57.6094 88.5938 51.9062C88.5938 46.5938 86.7383 41.7109 83.6328 37.8633C81.5625 32.2383 78.4375 27.1992 74.3359 22.8828C68.3398 16.5742 60.8594 12.4336 52.5977 10.8711C52.832 10.0898 52.9492 9.28906 52.9492 8.46875C52.9492 3.97656 49.4336 0.304688 45.1367 0.304688C40.8398 0.304688 37.3242 3.95703 37.3242 8.46875C37.3242 9.28906 37.4414 10.0898 37.6758 10.8711C29.4336 12.4531 21.9531 16.5742 15.9375 22.8828C8.67188 30.5391 4.45312 40.5977 3.94531 51.3594H0V63.8008H47.2461C51.2109 70.1094 58.2227 74.3281 66.2109 74.3281C71.9141 74.3281 77.1289 72.1797 81.0938 68.6445L97.7734 85.3242C98.0273 85.5781 98.3594 85.7148 98.7109 85.7148C99.043 85.7148 99.375 85.5781 99.6484 85.3242C100.137 84.7969 100.137 83.9766 99.6094 83.4492ZM17.832 24.6992C23.8281 18.3906 31.3867 14.4258 39.6875 13.1953L41.5625 12.9219L40.6445 11.2617C40.1758 10.4219 39.9219 9.44531 39.9219 8.46875C39.9219 5.42187 42.2461 2.94141 45.1172 2.94141C47.9883 2.94141 50.3125 5.42187 50.3125 8.46875C50.3125 9.44531 50.0586 10.4219 49.5898 11.2617L48.6719 12.9219L50.5469 13.1953C58.8672 14.4258 66.4258 18.4102 72.4023 24.6992C74.8828 27.3164 76.9922 30.207 78.6914 33.3516C75.1172 30.9297 70.8203 29.5234 66.1914 29.5234C54.0234 29.5234 44.1211 39.2695 43.8281 51.3594H6.5625C7.07031 41.2812 11.0352 31.8477 17.832 24.6992ZM2.63672 61.1641V53.9766H43.9258C44.1602 56.5156 44.8242 58.9375 45.8398 61.1641H2.63672ZM49.1406 61.8477C49.1211 61.8086 49.1016 61.7695 49.0625 61.7305C47.5391 59.0547 46.6016 56.0078 46.4648 52.7461C46.4648 52.7266 46.4648 52.707 46.4648 52.668C46.4648 52.6289 46.4648 52.5898 46.4453 52.5508C46.4453 52.3359 46.4258 52.1211 46.4258 51.9062C46.4258 41.0078 55.293 32.1406 66.1914 32.1406C77.0898 32.1406 85.957 41.0078 85.957 51.9062C85.957 57.3359 83.75 62.2773 80.1953 65.8516L80.1758 65.8711L80.1562 65.8906C76.582 69.4648 71.6406 71.6719 66.2109 71.6719C58.9258 71.6914 52.5586 67.7266 49.1406 61.8477Z" fill="white"/>
</svg>
