<svg width="100" height="100" viewBox="0 0 100 100" fill="none" xmlns="http://www.w3.org/2000/svg">
<g clip-path="url(#clip0)">
<path d="M0 96.0548C8.41797 84.7852 16.8555 73.5352 25.2734 62.2657L14.1602 65.9766C9.43359 75.9962 4.72656 86.0352 0 96.0548Z" fill="#FF7F00"/>
<path d="M25.7617 92.7149C28.3203 83.9844 30.918 73.7305 33.4961 65.0001L25.2734 62.2657C25.4492 71.9141 25.5859 83.0665 25.7617 92.7149Z" fill="#FF7F00"/>
<path d="M45.6836 25.4883C41.2305 25.7813 37.168 26.3086 33.5547 26.9532L37.832 36.1133C44.6289 32.5391 51.4062 28.9844 58.2031 25.4102C54.4531 25.2344 50.2539 25.2149 45.6836 25.4883Z" fill="#FF7F00"/>
<path d="M35.0781 22.9297C35.8789 21.543 36.7773 20.5469 37.4805 19.8828C38.4961 20.5078 39.5117 21.1328 40.5273 21.7578C40.0781 20.4883 39.6484 19.0039 39.3164 17.2852C39.0039 15.6641 38.8672 14.1993 38.8086 12.9102C39.2578 11.6993 40 10.0977 41.25 8.418C42.793 6.34769 44.4727 5.00003 45.6836 4.19925C43.6523 3.92582 40.6445 3.75003 37.0898 4.43363C33.9648 5.0391 31.5234 6.11332 29.8242 7.01175C28.1055 9.19925 25.7227 12.8125 24.1797 17.793C22.3633 23.6524 22.5391 28.711 22.8711 31.6407L19.4141 46.4844C17.6563 52.9883 15.918 59.4727 14.1602 65.9766L25.2734 62.2657L33.4961 65C35.2734 56.0742 36.0742 45.0586 37.832 36.1328L33.5547 26.9727C33.75 25.9571 34.1797 24.4922 35.0781 22.9297Z" fill="#00CE00"/>
<path d="M12.2266 41.9337C7.12891 48.2618 4.23828 54.4727 2.59766 58.9454C8.20313 54.8047 13.8086 50.6446 19.4141 46.504L22.8711 31.6602C19.707 34.0235 15.8984 37.3633 12.2266 41.9337Z" fill="#FF7F00"/>
<path d="M86.7188 15.293C90.2148 14.7852 93.4375 14.5704 96.2891 14.5313C96.0352 13.2227 95.1172 9.76567 91.9336 7.71489C90.3906 6.69926 88.5547 6.21098 86.6797 6.17192C86.6211 5.4102 86.1523 4.64848 85.3906 4.23833C84.2773 3.63286 82.7539 4.02348 81.9336 5.13676C81.5039 5.70317 81.25 6.52348 81.3867 7.22661C79.8047 7.9102 78.3594 8.92583 77.1875 10.2344C74.5117 13.2032 74.1016 16.7579 74.043 18.2032C74.0625 18.1836 74.082 18.1836 74.1016 18.1641C77.6562 17.0313 81.9141 15.9766 86.7188 15.293ZM82.832 5.76176C83.3008 5.13676 84.1797 4.90239 84.8047 5.25395C85.1953 5.46879 85.4492 5.83989 85.5273 6.19145C84.5117 6.26958 83.4766 6.46489 82.4805 6.79692C82.4609 6.48442 82.6172 6.05473 82.832 5.76176Z" fill="#00CE00"/>
<path d="M96.9922 14.5118C96.7578 14.5118 96.5234 14.5118 96.2891 14.5313C93.418 14.5899 90.2148 14.8047 86.7187 15.293C81.8945 15.9766 77.6562 17.0508 74.082 18.1641C74.0625 18.1837 74.043 18.1837 74.0234 18.2032C72.3633 19.2774 70.7227 20.3516 69.0625 21.4063C72.9883 19.9805 77.793 18.5547 83.3203 17.5587C89.6875 16.4258 95.2734 16.1915 99.7656 16.3087C99.8242 15.7227 99.9023 15.1368 99.9609 14.5508C99.0039 14.5313 97.9883 14.5313 96.9922 14.5118Z" fill="#FF7F00"/>
<path d="M59.6094 24.9219C60.6641 24.7657 62.0508 24.4337 63.5937 23.7696C65.0195 23.1446 66.1328 22.4219 66.9336 21.7969C66.0156 21.836 64.5898 22.0118 62.9883 22.6954C61.3867 23.379 60.2734 24.2969 59.6094 24.9219Z" fill="#FF7F00"/>
<path d="M59.0234 23.8087C59.6875 23.1837 60.7812 22.3243 62.3242 21.6407C63.9453 20.9376 65.4102 20.7423 66.3477 20.6837C66.0937 20.5665 63.9258 19.5509 61.6602 20.6837C59.7266 21.6407 59.1211 23.4571 59.0234 23.8087Z" fill="#00CE00"/>
<path d="M67.5195 22.6758C66.8945 23.3204 65.8203 24.2774 64.2187 25.0001C62.5586 25.7618 61.0742 25.918 60.1758 25.9571C60.4687 26.0938 62.3828 26.9337 64.5117 26.0157C66.7383 25.0782 67.4219 22.9688 67.5195 22.6758Z" fill="#00CE00"/>
</g>
<defs>
<clipPath id="clip0">
<rect width="100" height="100" fill="white"/>
</clipPath>
</defs>
</svg>
