<svg width="96" height="100" viewBox="0 0 96 100" fill="none" xmlns="http://www.w3.org/2000/svg">
<path d="M48.0004 3.14453C51.516 5.07812 55.7348 6.62109 60.2074 7.61719C63.9379 8.45703 68.977 8.63281 72.5512 8.63281C79.6996 8.63281 87.3168 7.94922 92.2973 6.875L90.6762 15.5664C90.5395 16.3477 90.0902 17.0312 89.4457 17.4805C81.809 22.8516 79.4652 29.6094 82.8441 36.543C86.7309 44.5117 89.4262 50.8789 88.8598 60.1367C87.7855 77.5 73.059 85.8594 64.3871 89.2969L64.309 89.3359L64.2309 89.375L48.0004 96.875L31.7894 89.375L31.7113 89.3359L31.6332 89.2969C22.9418 85.8594 8.23476 77.5195 7.14101 60.1562C6.5746 50.8984 9.26992 44.5312 13.1566 36.5625C16.5355 29.6289 14.1918 22.8711 6.55507 17.5C5.91054 17.0508 5.46132 16.3672 5.3246 15.5859L3.70351 6.89453C8.68398 7.96875 16.3207 8.65234 23.4496 8.65234C27.0238 8.65234 32.0629 8.47656 35.7934 7.63672C40.266 6.62109 44.4848 5.07812 48.0004 3.14453ZM48.0004 0C47.5707 0 47.141 0.117188 46.7504 0.332031C43.5668 2.10938 39.5824 3.63281 35.1293 4.62891C32.2387 5.27344 28.0004 5.56641 23.4496 5.56641C16.3598 5.54688 8.48867 4.84375 3.68398 3.71094C3.48866 3.67188 3.29335 3.63281 3.09804 3.63281C2.43398 3.63281 1.78945 3.88672 1.30116 4.35547C0.676165 4.96094 0.383196 5.85938 0.539446 6.71875L2.29726 16.1133C2.59023 17.6758 3.48866 19.082 4.77773 19.9805C8.66445 22.7148 13.9379 27.9102 10.3832 35.1758C6.73085 42.6562 3.41054 49.8828 4.05507 60.3125C5.10976 77.1875 17.9223 87.168 30.4809 92.1484L46.9066 99.7461C47.2582 99.9023 47.6098 99.9805 47.9809 99.9805C48.3519 99.9805 48.723 99.9023 49.0551 99.7461L65.4809 92.1484C78.0395 87.168 90.8519 77.1875 91.9066 60.3125C92.5512 49.8828 89.2309 42.6562 85.5785 35.1758C82.0434 27.9102 87.2973 22.7148 91.184 19.9805C92.4926 19.0625 93.3715 17.6758 93.6644 16.1133L95.4223 6.71875C95.5785 5.85938 95.3051 4.96094 94.6605 4.35547C94.1723 3.88672 93.5277 3.63281 92.8637 3.63281C92.6684 3.63281 92.473 3.65234 92.2777 3.71094C87.473 4.84375 79.602 5.54688 72.5121 5.54688C67.9613 5.54688 63.7426 5.25391 60.8324 4.60938C56.3988 3.61328 52.4144 2.10938 49.2113 0.3125C48.8598 0.117188 48.4301 0 48.0004 0ZM34.4066 75.0977C33.9184 75.0977 33.4301 74.9414 33.0394 74.6484C32.3754 74.1602 32.0043 73.3398 32.0824 72.5195L33.4691 58.9648C33.4887 58.8477 33.4496 58.7109 33.3519 58.6328L24.2699 48.4766C23.723 47.8516 23.5277 46.9922 23.7816 46.1914C24.0355 45.4102 24.6996 44.8047 25.5199 44.6289L38.8402 41.7578C38.9574 41.7383 39.0746 41.6602 39.1332 41.543L45.9887 29.7656C46.3988 29.043 47.1801 28.6133 48.0004 28.6133C48.8207 28.6133 49.6019 29.0625 50.0121 29.7656L56.8676 41.543C56.9262 41.6602 57.0434 41.7188 57.1605 41.7578L70.4809 44.6289C71.3012 44.8047 71.9457 45.4102 72.2191 46.1914C72.473 46.9727 72.2973 47.8516 71.7309 48.4766L62.6488 58.6328C62.5707 58.7305 62.5316 58.8477 62.5316 58.9844L63.9184 72.5391C63.9965 73.3594 63.6449 74.1797 62.9613 74.668C62.2777 75.1562 61.3988 75.2539 60.6371 74.9219L48.1566 69.4141C48.0394 69.3555 47.9027 69.3555 47.8051 69.4141L35.3246 74.9219C35.0512 75.0195 34.7191 75.0977 34.4066 75.0977ZM48.0004 66.2695C48.4887 66.2695 48.9769 66.3672 49.4262 66.5625L60.7348 71.543L59.4848 59.2383C59.3871 58.2617 59.6996 57.2656 60.3637 56.543L68.6059 47.3242L56.516 44.707C55.559 44.4922 54.7191 43.8867 54.2113 43.0273L48.0004 32.3828L41.7894 43.0664C41.3012 43.9258 40.4613 44.5312 39.4848 44.7461L27.3949 47.3633L35.6371 56.582C36.3012 57.3242 36.6137 58.3008 36.516 59.2773L35.266 71.582L46.5746 66.6016C47.0238 66.3672 47.5121 66.2695 48.0004 66.2695Z" fill="white"/>
</svg>
