<svg width="100" height="100" viewBox="0 0 100 100" fill="none" xmlns="http://www.w3.org/2000/svg">
<path d="M90.6836 51.6211C87.9102 51.2695 85.1562 52.0312 82.9492 53.7695L61.3281 70.5273C59.4922 71.9727 57.207 72.7734 54.8633 72.7734H52.9688C55.957 68.8477 57.5781 64.1016 57.5781 59.1211C57.5781 56.6211 55.5469 54.5898 53.0469 54.5898H21.1914V53.0469C21.1914 50.5469 19.1602 48.5156 16.6602 48.5156H4.53125C2.03125 48.4961 0 50.5273 0 53.0273V95.4688C0 97.9688 2.03125 100 4.53125 100H16.6602C19.1602 100 21.1914 97.9688 21.1914 95.4688V93.9453H60.0781C63.6914 93.9453 67.3047 92.6953 70.2539 90.4492L95.8984 70.5078C98.1641 68.7695 99.5898 66.25 99.9414 63.418C100.293 60.625 99.5312 57.8516 97.793 55.6641C96.0156 53.3984 93.4961 51.9531 90.6836 51.6211ZM18.1836 95.4688C18.1836 96.3086 17.5 97.0117 16.6406 97.0117H4.53125C3.69141 97.0117 2.98828 96.3281 2.98828 95.4688V53.0273C2.98828 52.1875 3.67188 51.4844 4.53125 51.4844H16.6602C17.5 51.4844 18.2031 52.168 18.2031 53.0273V56.0547V57.5391V90.9375V92.4219V95.4688H18.1836ZM96.9531 63.0469C96.6992 65.0781 95.6641 66.8945 94.043 68.1445L68.3984 88.0859C65.9961 89.9414 63.0273 90.957 60.0586 90.957H21.1719V57.5586H53.0273C53.8672 57.5586 54.5703 58.2422 54.5703 59.1016C54.5703 64.4336 52.4609 69.4336 48.6133 73.1836L45.9961 75.7422H54.8633C57.8711 75.7422 60.8203 74.7266 63.1836 72.8711L84.7656 56.1133C86.3477 54.8633 88.3203 54.3164 90.3125 54.5703C92.3438 54.8242 94.1602 55.8594 95.4102 57.4805C96.6602 59.0625 97.207 61.0352 96.9531 63.0469ZM1.48438 39.3555H91.5234H98.4961C99.3164 39.3555 99.9805 38.6914 99.9805 37.8711C99.9805 37.0508 99.3164 36.3867 98.4961 36.3867H92.5977C86.7578 19.7852 72.0117 8.20312 54.5117 6.44531V4.53125C54.5312 2.03125 52.5 0 50 0C47.5 0 45.4688 2.03125 45.4688 4.53125V6.44531C27.9688 8.20312 13.2227 19.7852 7.38281 36.3867H1.48438C0.664062 36.3867 0 37.0508 0 37.8711C0 38.6914 0.664062 39.3555 1.48438 39.3555ZM47.0703 9.29688L48.457 9.19922V4.53125C48.457 3.69141 49.1406 2.98828 50 2.98828C50.8594 2.98828 51.543 3.67188 51.543 4.53125V9.19922L52.9297 9.29688C69.4922 10.4492 83.5938 21.0156 89.4336 36.3867H10.5664C16.4062 20.9961 30.5078 10.4492 47.0703 9.29688Z" fill="white"/>
</svg>
