<svg width="93" height="62" viewBox="0 0 93 62" fill="none" xmlns="http://www.w3.org/2000/svg">
<path d="M24.9 21.6C24.4 21.6 23.8 21.6 23.2 21.7L26.1 18.7C27.6 17.1 27.9 16.3 27.9 15C27.9 12.9 26.4 12.4 24.2 12.4C23.1 12.4 22 12.5 20.4 12.8L20.5 14.7C22 14.6 22.8 14.6 23.9 14.6C24.9 14.6 25.4 14.7 25.4 15.3C25.4 16.1 24.7 17.1 23.4 18.5L20.7 21.4C20.4 21.7 20.3 22 20.3 22.4V23.8H28.2V21.6H24.9ZM37.2 19.6V14.8H35.3L35 16.6V19.6H32.3C32 19.6 31.8 19.4 32 19.1L34.6 12.7H32.3L29.4 19.6C29 20.5 29.6 21.4 30.6 21.4H35V23.9H37.3V21.4L38.6 21.2V19.7H37.2V19.6ZM70.8 43.5C65.7 43.5 61.6 47.6 61.6 52.7C61.6 57.8 65.7 61.9 70.8 61.9C75.9 61.9 80 57.8 80 52.7C80 47.7 75.9 43.5 70.8 43.5ZM70.8 57.4C68.3 57.4 66.2 55.3 66.2 52.8C66.2 50.3 68.3 48.2 70.8 48.2C73.3 48.2 75.4 50.3 75.4 52.8C75.4 55.3 73.3 57.4 70.8 57.4ZM22.5 43.5C17.4 43.5 13.3 47.6 13.3 52.7C13.3 57.8 17.4 61.9 22.5 61.9C27.6 61.9 31.7 57.8 31.7 52.7C31.7 47.7 27.6 43.5 22.5 43.5ZM22.5 57.4C20 57.4 17.9 55.3 17.9 52.8C17.9 50.3 20 48.2 22.5 48.2C25 48.2 27.1 50.3 27.1 52.8C27.1 55.3 25 57.4 22.5 57.4ZM24.9 21.6C24.4 21.6 23.8 21.6 23.2 21.7L26.1 18.7C27.6 17.1 27.9 16.3 27.9 15C27.9 12.9 26.4 12.4 24.2 12.4C23.1 12.4 22 12.5 20.4 12.8L20.5 14.7C22 14.6 22.8 14.6 23.9 14.6C24.9 14.6 25.4 14.7 25.4 15.3C25.4 16.1 24.7 17.1 23.4 18.5L20.7 21.4C20.4 21.7 20.3 22 20.3 22.4V23.8H28.2V21.6H24.9ZM37.2 19.6V14.8H35.3L35 16.6V19.6H32.3C32 19.6 31.8 19.4 32 19.1L34.6 12.7H32.3L29.4 19.6C29 20.5 29.6 21.4 30.6 21.4H35V23.9H37.3V21.4L38.6 21.2V19.7H37.2V19.6ZM37.2 19.6V14.8H35.3L35 16.6V19.6H32.3C32 19.6 31.8 19.4 32 19.1L34.6 12.7H32.3L29.4 19.6C29 20.5 29.6 21.4 30.6 21.4H35V23.9H37.3V21.4L38.6 21.2V19.7H37.2V19.6ZM24.9 21.6C24.4 21.6 23.8 21.6 23.2 21.7L26.1 18.7C27.6 17.1 27.9 16.3 27.9 15C27.9 12.9 26.4 12.4 24.2 12.4C23.1 12.4 22 12.5 20.4 12.8L20.5 14.7C22 14.6 22.8 14.6 23.9 14.6C24.9 14.6 25.4 14.7 25.4 15.3C25.4 16.1 24.7 17.1 23.4 18.5L20.7 21.4C20.4 21.7 20.3 22 20.3 22.4V23.8H28.2V21.6H24.9ZM24.9 21.6C24.4 21.6 23.8 21.6 23.2 21.7L26.1 18.7C27.6 17.1 27.9 16.3 27.9 15C27.9 12.9 26.4 12.4 24.2 12.4C23.1 12.4 22 12.5 20.4 12.8L20.5 14.7C22 14.6 22.8 14.6 23.9 14.6C24.9 14.6 25.4 14.7 25.4 15.3C25.4 16.1 24.7 17.1 23.4 18.5L20.7 21.4C20.4 21.7 20.3 22 20.3 22.4V23.8H28.2V21.6H24.9ZM37.2 19.6V14.8H35.3L35 16.6V19.6H32.3C32 19.6 31.8 19.4 32 19.1L34.6 12.7H32.3L29.4 19.6C29 20.5 29.6 21.4 30.6 21.4H35V23.9H37.3V21.4L38.6 21.2V19.7H37.2V19.6ZM37.2 19.6V14.8H35.3L35 16.6V19.6H32.3C32 19.6 31.8 19.4 32 19.1L34.6 12.7H32.3L29.4 19.6C29 20.5 29.6 21.4 30.6 21.4H35V23.9H37.3V21.4L38.6 21.2V19.7H37.2V19.6ZM23.2 21.7L26.1 18.7C27.6 17.1 27.9 16.3 27.9 15C27.9 12.9 26.4 12.4 24.2 12.4C23.1 12.4 22 12.5 20.4 12.8L20.5 14.7C22 14.6 22.8 14.6 23.9 14.6C24.9 14.6 25.4 14.7 25.4 15.3C25.4 16.1 24.7 17.1 23.4 18.5L20.7 21.4C20.4 21.7 20.3 22 20.3 22.4V23.8H28.2V21.6H24.9C24.4 21.6 23.8 21.6 23.2 21.7ZM52.9 0H6C2.7 0 0 2.7 0 6V36.2H56.7C57.9 36.2 59 35.2 59 33.9V6C59 2.7 56.3 0 52.9 0ZM29.5 31.8C22 31.8 15.9 25.7 15.9 18.2C15.9 10.7 22 4.6 29.5 4.6C37 4.6 43.1 10.7 43.1 18.2C43.1 25.7 37 31.8 29.5 31.8ZM37.2 14.8H35.3L35 16.6V19.6H32.3C32 19.6 31.8 19.4 32 19.1L34.6 12.7H32.3L29.4 19.6C29 20.5 29.6 21.4 30.6 21.4H35V23.9H37.3V21.4L38.6 21.2V19.7H37.2V14.8ZM23.2 21.7L26.1 18.7C27.6 17.1 27.9 16.3 27.9 15C27.9 12.9 26.4 12.4 24.2 12.4C23.1 12.4 22 12.5 20.4 12.8L20.5 14.7C22 14.6 22.8 14.6 23.9 14.6C24.9 14.6 25.4 14.7 25.4 15.3C25.4 16.1 24.7 17.1 23.4 18.5L20.7 21.4C20.4 21.7 20.3 22 20.3 22.4V23.8H28.2V21.6H24.9C24.4 21.6 23.8 21.6 23.2 21.7ZM24.9 21.6C24.4 21.6 23.8 21.6 23.2 21.7L26.1 18.7C27.6 17.1 27.9 16.3 27.9 15C27.9 12.9 26.4 12.4 24.2 12.4C23.1 12.4 22 12.5 20.4 12.8L20.5 14.7C22 14.6 22.8 14.6 23.9 14.6C24.9 14.6 25.4 14.7 25.4 15.3C25.4 16.1 24.7 17.1 23.4 18.5L20.7 21.4C20.4 21.7 20.3 22 20.3 22.4V23.8H28.2V21.6H24.9ZM37.2 19.6V14.8H35.3L35 16.6V19.6H32.3C32 19.6 31.8 19.4 32 19.1L34.6 12.7H32.3L29.4 19.6C29 20.5 29.6 21.4 30.6 21.4H35V23.9H37.3V21.4L38.6 21.2V19.7H37.2V19.6ZM37.2 19.6V14.8H35.3L35 16.6V19.6H32.3C32 19.6 31.8 19.4 32 19.1L34.6 12.7H32.3L29.4 19.6C29 20.5 29.6 21.4 30.6 21.4H35V23.9H37.3V21.4L38.6 21.2V19.7H37.2V19.6ZM24.9 21.6C24.4 21.6 23.8 21.6 23.2 21.7L26.1 18.7C27.6 17.1 27.9 16.3 27.9 15C27.9 12.9 26.4 12.4 24.2 12.4C23.1 12.4 22 12.5 20.4 12.8L20.5 14.7C22 14.6 22.8 14.6 23.9 14.6C24.9 14.6 25.4 14.7 25.4 15.3C25.4 16.1 24.7 17.1 23.4 18.5L20.7 21.4C20.4 21.7 20.3 22 20.3 22.4V23.8H28.2V21.6H24.9ZM24.9 21.6C24.4 21.6 23.8 21.6 23.2 21.7L26.1 18.7C27.6 17.1 27.9 16.3 27.9 15C27.9 12.9 26.4 12.4 24.2 12.4C23.1 12.4 22 12.5 20.4 12.8L20.5 14.7C22 14.6 22.8 14.6 23.9 14.6C24.9 14.6 25.4 14.7 25.4 15.3C25.4 16.1 24.7 17.1 23.4 18.5L20.7 21.4C20.4 21.7 20.3 22 20.3 22.4V23.8H28.2V21.6H24.9ZM37.2 19.6V14.8H35.3L35 16.6V19.6H32.3C32 19.6 31.8 19.4 32 19.1L34.6 12.7H32.3L29.4 19.6C29 20.5 29.6 21.4 30.6 21.4H35V23.9H37.3V21.4L38.6 21.2V19.7H37.2V19.6ZM92.1 31C92.1 29.4 91.5 27.9 90.3 26.8L72.8 9.5C71.7 8.4 70.2 7.8 68.6 7.8H60.4V34C60.4 36.1 58.7 37.8 56.6 37.8H0V46.6C0 49 2 51 4.5 51H10.5C11.4 45.1 16.4 40.6 22.6 40.6C28.8 40.6 33.7 45.1 34.6 51H58.7C59.6 45.1 64.7 40.6 70.8 40.6C76.9 40.6 82 45.1 82.9 51H87.7C90.2 51 92.2 49 92.2 46.6C92.1 41.4 92.1 36.2 92.1 31ZM82.7 27.4H65.8C65.4 27.4 65.1 27.1 65.1 26.7V13.6C65.1 13.2 65.4 12.9 65.8 12.9H69C69.2 12.9 69.4 13 69.5 13.1L83.2 26.2C83.6 26.6 83.3 27.4 82.7 27.4Z" fill="#F17E00"/>
</svg>
