<svg width="25" height="18" viewBox="0 0 25 18" fill="none" xmlns="http://www.w3.org/2000/svg">
<path d="M0 7.48927H24.6846V15.8825C24.6846 16.1606 24.6298 16.4359 24.5234 16.6928C24.417 16.9498 24.261 17.1832 24.0644 17.3798C23.8678 17.5764 23.6344 17.7324 23.3775 17.8388C23.1206 17.9452 22.8452 18 22.5671 18H2.11748C1.83941 18 1.56406 17.9452 1.30715 17.8388C1.05025 17.7324 0.816821 17.5764 0.620195 17.3798C0.423569 17.1832 0.267597 16.9498 0.161183 16.6928C0.0547702 16.4359 0 16.1606 0 15.8825V7.48927ZM24.6846 2.11748C24.6846 1.55589 24.4615 1.0173 24.0644 0.620195C23.6673 0.223091 23.1287 0 22.5671 0H2.11748C1.55589 0 1.0173 0.223091 0.620195 0.620195C0.223091 1.0173 0 1.55589 0 2.11748V3.96014H24.6846V2.11748Z" fill="black" fill-opacity="0.2"/>
</svg>
