<svg width="23" height="22" viewBox="0 0 23 22" fill="none" xmlns="http://www.w3.org/2000/svg">
<path d="M13.818 17.5484C13.4055 17.5484 13.0703 17.8836 13.0703 18.2961C13.0703 18.7086 13.4055 19.0438 13.818 19.0438C14.2305 19.0438 14.5656 18.7086 14.5656 18.2961C14.5656 17.8836 14.2348 17.5484 13.818 17.5484ZM9.74453 14.9832C10.157 14.9832 10.4922 14.648 10.4922 14.2355C10.4922 13.823 10.157 13.4879 9.74453 13.4879C9.33203 13.4879 8.99687 13.823 8.99687 14.2355C8.99258 14.648 9.32773 14.9832 9.74453 14.9832ZM2.3625 20.4359C2.3668 21.2996 3.06719 21.9957 3.93516 22H19.6531C20.5211 21.9957 21.2215 21.2996 21.2258 20.4359V10.7594H2.3625V20.4359ZM13.818 20.0879C12.8254 20.0879 12.0219 19.2887 12.0219 18.3004C12.0219 17.3121 12.8254 16.5129 13.818 16.5129C14.8105 16.5129 15.6141 17.3121 15.6141 18.3004C15.6141 19.2844 14.8105 20.0836 13.818 20.0879ZM15.1457 12.9164C15.2445 13.0152 15.3004 13.1441 15.3004 13.2859C15.3004 13.4234 15.2445 13.5566 15.1457 13.6555L9.32773 19.4391C9.22891 19.5379 9.0957 19.5938 8.95391 19.5895C8.81641 19.5895 8.6832 19.5336 8.58008 19.4391C8.48125 19.3402 8.42539 19.2113 8.42539 19.0695C8.42539 18.932 8.48125 18.7988 8.58008 18.7L14.4023 12.9164C14.6086 12.7145 14.9395 12.7145 15.1457 12.9164ZM9.74453 12.4438C10.7371 12.4438 11.5406 13.243 11.5406 14.2313C11.5406 15.2195 10.7371 16.0187 9.74453 16.0187C8.75195 16.0187 7.94844 15.2195 7.94844 14.2313C7.94844 13.243 8.75195 12.4438 9.74453 12.4438ZM21.2086 4.72656H18.7594C19.4684 3.86289 19.6145 2.66836 19.1375 1.65859C18.6605 0.648828 17.6379 0.00429688 16.5164 0C14.9008 0 13.4828 0.902344 12.4086 2.6082C12.1766 2.97344 11.9746 3.35586 11.7941 3.75117C11.618 3.35586 11.4117 2.97773 11.1797 2.6082C10.1098 0.902344 8.6832 0 7.07617 0C5.95469 0.00429688 4.93633 0.648828 4.45508 1.65859C3.97813 2.66836 4.12422 3.85859 4.8332 4.72656H2.35391C1.48594 4.72656 0.785547 5.42695 0.78125 6.29062V9.71953H22.7812V6.29062C22.7812 5.42695 22.0766 4.72656 21.2086 4.72656ZM16.5207 1.03555C17.5262 1.03555 18.3727 1.88203 18.3727 2.87461C18.3727 3.90586 17.5691 4.71367 16.5508 4.71367H12.5246C12.9887 3.51055 14.2133 1.03555 16.5207 1.03555ZM5.21992 2.87891C5.21992 1.87773 6.0707 1.03984 7.07187 1.03984C9.3707 1.03984 10.5996 3.51055 11.0637 4.72656H7.0375C6.02344 4.72656 5.21992 3.91016 5.21992 2.87891Z" fill="black" fill-opacity="0.2"/>
</svg>
