<svg width="14" height="13" viewBox="0 0 14 13" fill="none" xmlns="http://www.w3.org/2000/svg">
<path d="M4.66667 0.565217C4.66667 0.253056 4.92783 0 5.25 0H13.4167C13.7388 0 14 0.253056 14 0.565217V2.26087C14 2.57303 13.7388 2.82609 13.4167 2.82609H5.25C4.92783 2.82609 4.66667 2.57303 4.66667 2.26087V0.565217Z" fill="#F17E00"/>
<path d="M0 0.565217C0 0.253056 0.261167 0 0.583333 0H2.33333C2.6555 0 2.91667 0.253056 2.91667 0.565217V2.26087C2.91667 2.57303 2.6555 2.82609 2.33333 2.82609H0.583333C0.261167 2.82609 0 2.57303 0 2.26087V0.565217Z" fill="#F17E00"/>
<path d="M4.66667 5.65217C4.66667 5.34001 4.92783 5.08696 5.25 5.08696H13.4167C13.7388 5.08696 14 5.34001 14 5.65217V7.34783C14 7.65999 13.7388 7.91304 13.4167 7.91304H5.25C4.92783 7.91304 4.66667 7.65999 4.66667 7.34783V5.65217Z" fill="#F17E00"/>
<path d="M0 5.65217C0 5.34001 0.261167 5.08696 0.583333 5.08696H2.33333C2.6555 5.08696 2.91667 5.34001 2.91667 5.65217V7.34783C2.91667 7.65999 2.6555 7.91304 2.33333 7.91304H0.583333C0.261167 7.91304 0 7.65999 0 7.34783V5.65217Z" fill="#F17E00"/>
<path d="M4.66667 10.7391C4.66667 10.427 4.92783 10.1739 5.25 10.1739H13.4167C13.7388 10.1739 14 10.427 14 10.7391V12.4348C14 12.7469 13.7388 13 13.4167 13H5.25C4.92783 13 4.66667 12.7469 4.66667 12.4348V10.7391Z" fill="#F17E00"/>
<path d="M0 10.7391C0 10.427 0.261167 10.1739 0.583333 10.1739H2.33333C2.6555 10.1739 2.91667 10.427 2.91667 10.7391V12.4348C2.91667 12.7469 2.6555 13 2.33333 13H0.583333C0.261167 13 0 12.7469 0 12.4348V10.7391Z" fill="#F17E00"/>
</svg>
