<svg width="768" height="120" viewBox="0 0 768 120" fill="none" xmlns="http://www.w3.org/2000/svg">
<path d="M768 119.639C767.495 119.87 766.932 120 766.337 120C764.246 120 762.553 118.399 762.354 116.398C762.155 118.399 760.462 120 758.371 120C756.28 120 754.587 118.399 754.387 116.398C754.188 118.399 752.495 120 750.404 120C748.313 120 746.62 118.399 746.421 116.398C746.222 118.399 744.529 120 742.438 120C740.347 120 738.654 118.399 738.455 116.398C738.255 118.399 736.563 120 734.471 120C732.38 120 730.688 118.399 730.488 116.398C730.289 118.399 728.596 120 726.505 120C724.414 120 722.721 118.399 722.522 116.398C722.323 118.399 720.63 120 718.539 120C716.448 120 714.755 118.399 714.556 116.398C714.356 118.399 712.663 120 710.572 120C708.481 120 706.788 118.399 706.589 116.398C706.39 118.399 704.697 120 702.606 120C700.515 120 698.822 118.399 698.623 116.398C698.423 118.399 696.731 120 694.64 120C692.548 120 690.856 118.399 690.656 116.398C690.457 118.399 688.764 120 686.673 120C684.582 120 682.889 118.399 682.69 116.398C682.491 118.399 680.798 120 678.707 120C676.616 120 674.923 118.399 674.724 116.398C674.524 118.399 672.832 120 670.74 120C668.649 120 666.956 118.399 666.757 116.398C666.558 118.399 664.865 120 662.774 120C660.683 120 658.99 118.399 658.791 116.398C658.592 118.399 656.899 120 654.808 120C652.716 120 651.024 118.399 650.824 116.398C650.625 118.399 648.932 120 646.841 120C644.75 120 643.057 118.399 642.858 116.398C642.659 118.399 640.966 120 638.875 120C636.784 120 635.091 118.399 634.892 116.398C634.692 118.399 633 120 630.908 120C628.817 120 627.124 118.399 626.925 116.398C626.726 118.399 625.033 120 622.942 120C620.851 120 619.158 118.399 618.959 116.398C618.76 118.399 617.067 120 614.976 120C612.884 120 611.192 118.399 610.992 116.398C610.793 118.399 609.1 120 607.009 120C604.918 120 603.225 118.399 603.026 116.398C602.827 118.399 601.134 120 599.043 120C596.952 120 595.259 118.399 595.06 116.398C594.86 118.399 593.168 120 591.076 120C588.985 120 587.292 118.399 587.093 116.398C586.894 118.399 585.201 120 583.11 120C581.019 120 579.326 118.399 579.127 116.398C578.928 118.399 577.235 120 575.144 120C573.052 120 571.36 118.399 571.16 116.398C570.961 118.399 569.268 120 567.177 120C565.086 120 563.393 118.399 563.194 116.398C562.995 118.399 561.302 120 559.211 120C557.12 120 555.427 118.399 555.228 116.398C555.028 118.399 553.336 120 551.245 120C549.153 120 547.46 118.399 547.261 116.398C547.062 118.399 545.369 120 543.278 120C541.187 120 539.494 118.399 539.295 116.398C539.096 118.399 537.403 120 535.312 120C533.22 120 531.528 118.399 531.328 116.398C531.129 118.399 529.437 120 527.345 120C525.254 120 523.561 118.399 523.362 116.398C523.163 118.399 521.47 120 519.379 120C517.288 120 515.595 118.399 515.396 116.398C515.197 118.399 513.504 120 511.412 120C509.321 120 507.629 118.399 507.429 116.398C507.23 118.399 505.537 120 503.446 120C501.355 120 499.662 118.399 499.463 116.398C499.264 118.399 497.571 120 495.48 120C493.389 120 491.696 118.399 491.497 116.398C491.297 118.399 489.604 120 487.513 120C485.422 120 483.729 118.399 483.53 116.398C483.331 118.399 481.638 120 479.547 120C477.456 120 475.763 118.399 475.564 116.398C475.365 118.399 473.672 120 471.581 120C469.489 120 467.797 118.399 467.597 116.398C467.398 118.399 465.705 120 463.614 120C461.523 120 459.83 118.399 459.631 116.398C459.432 118.399 457.739 120 455.648 120C453.557 120 451.864 118.399 451.665 116.398C451.465 118.399 449.773 120 447.681 120C445.59 120 443.897 118.399 443.698 116.398C443.499 118.399 441.806 120 439.715 120C437.624 120 435.931 118.399 435.732 116.398C435.533 118.399 433.84 120 431.749 120C429.657 120 427.965 118.399 427.765 116.398C427.566 118.399 425.873 120 423.782 120C421.691 120 419.998 118.399 419.799 116.398C419.6 118.399 417.907 120 415.816 120C413.725 120 412.032 118.399 411.833 116.398C411.633 118.399 409.941 120 407.849 120C405.758 120 404.065 118.399 403.866 116.398C403.667 118.399 401.974 120 399.883 120C397.792 120 396.099 118.399 395.9 116.398C395.701 118.399 394.008 120 391.917 120C389.825 120 388.133 118.399 387.933 116.398C387.734 118.399 386.041 120 383.95 120C381.859 120 380.166 118.399 379.967 116.398C379.768 118.399 378.075 120 375.984 120C373.893 120 372.2 118.399 372.001 116.398C371.802 118.399 370.109 120 368.017 120C365.926 120 364.233 118.399 364.034 116.398C363.835 118.399 362.142 120 360.051 120C357.96 120 356.267 118.399 356.068 116.398C355.869 118.399 354.176 120 352.085 120C349.993 120 348.301 118.399 348.102 116.398C347.902 118.399 346.209 120 344.118 120C342.027 120 340.334 118.399 340.135 116.398C339.936 118.399 338.243 120 336.152 120C334.061 120 332.368 118.399 332.169 116.398C331.97 118.399 330.277 120 328.185 120C326.094 120 324.401 118.399 324.202 116.398C324.003 118.399 322.31 120 320.219 120C318.128 120 316.435 118.399 316.236 116.398C316.037 118.399 314.344 120 312.253 120C310.161 120 308.469 118.399 308.27 116.398C308.07 118.399 306.378 120 304.286 120C302.195 120 300.502 118.399 300.303 116.398C300.104 118.399 298.411 120 296.32 120C294.229 120 292.536 118.399 292.337 116.398C292.138 118.399 290.445 120 288.354 120C286.262 120 284.57 118.399 284.37 116.398C284.171 118.399 282.478 120 280.387 120C278.296 120 276.603 118.399 276.404 116.398C276.205 118.399 274.512 120 272.421 120C270.33 120 268.637 118.399 268.438 116.398C268.238 118.399 266.546 120 264.454 120C262.363 120 260.67 118.399 260.471 116.398C260.272 118.399 258.579 120 256.488 120C254.397 120 252.704 118.399 252.505 116.398C252.306 118.399 250.613 120 248.522 120C246.43 120 244.738 118.399 244.538 116.398C244.339 118.399 242.646 120 240.555 120C238.464 120 236.771 118.399 236.572 116.398C236.373 118.399 234.68 120 232.589 120C230.498 120 228.805 118.399 228.606 116.398C228.406 118.399 226.714 120 224.622 120C222.531 120 220.838 118.399 220.639 116.398C220.44 118.399 218.747 120 216.656 120C214.565 120 212.872 118.399 212.673 116.398C212.474 118.399 210.781 120 208.69 120C206.598 120 204.906 118.399 204.706 116.398C204.507 118.399 202.814 120 200.723 120C198.632 120 196.939 118.399 196.74 116.398C196.541 118.399 194.848 120 192.757 120C190.666 120 188.973 118.399 188.774 116.398C188.574 118.399 186.882 120 184.79 120C182.699 120 181.006 118.399 180.807 116.398C180.608 118.399 178.915 120 176.824 120C174.733 120 173.04 118.399 172.841 116.398C172.642 118.399 170.949 120 168.858 120C166.766 120 165.074 118.399 164.874 116.398C164.675 118.399 162.982 120 160.891 120C158.8 120 157.107 118.399 156.908 116.398C156.709 118.399 155.016 120 152.925 120C150.834 120 149.141 118.399 148.942 116.398C148.742 118.399 147.05 120 144.958 120C142.867 120 141.174 118.399 140.975 116.398C140.776 118.399 139.083 120 136.992 120C134.901 120 133.208 118.399 133.009 116.398C132.81 118.399 131.117 120 129.026 120C126.935 120 125.242 118.399 125.042 116.398C124.843 118.399 123.151 120 121.059 120C118.968 120 117.275 118.399 117.076 116.398C116.877 118.399 115.184 120 113.093 120C111.002 120 109.309 118.399 109.11 116.398C108.911 118.399 107.218 120 105.127 120C103.035 120 101.342 118.399 101.143 116.398C100.944 118.399 99.2513 120 97.1602 120C95.069 120 93.3761 118.399 93.1769 116.398C92.9778 118.399 91.2849 120 89.1937 120C87.1025 120 85.4097 118.399 85.2105 116.398C85.0114 118.399 83.3185 120 81.2274 120C79.1362 120 77.4433 118.399 77.2441 116.398C77.045 118.399 75.3521 120 73.2609 120C71.1697 120 69.4769 118.399 69.2778 116.398C69.0786 118.399 67.3857 120 65.2946 120C63.2034 120 61.5105 118.399 61.3113 116.398C61.1122 118.399 59.4194 120 57.3282 120C55.237 120 53.5441 118.399 53.345 116.398C53.1458 118.399 51.4529 120 49.3618 120C47.2706 120 45.5778 118.399 45.3786 116.398C45.1794 118.399 43.4866 120 41.3954 120C39.3042 120 37.6113 118.399 37.4122 116.398C37.213 118.399 35.5202 120 33.429 120C31.3378 120 29.645 118.399 29.4458 116.398C29.2466 118.399 27.5538 120 25.4626 120C23.3714 120 21.6786 118.399 21.4794 116.398C21.2803 118.399 19.5874 120 17.4962 120C15.405 120 13.7122 118.399 13.513 116.398C13.3138 118.399 11.621 120 9.52979 120C7.4386 120 5.74579 118.399 5.54663 116.398C5.34747 118.399 3.6546 120 1.56342 120C1.0072 120 0.479248 119.887 0 119.683V0.317117C0.479248 0.113226 1.0072 0 1.56342 0C3.6546 0 5.34747 1.60075 5.54663 3.6017C5.74579 1.60075 7.4386 0 9.52979 0C11.621 0 13.3138 1.60075 13.513 3.6017C13.7122 1.60075 15.405 0 17.4962 0C19.5874 0 21.2803 1.60075 21.4794 3.6017C21.6786 1.60075 23.3714 0 25.4626 0C27.5538 0 29.2466 1.60075 29.4458 3.6017C29.645 1.60075 31.3378 0 33.429 0C35.5202 0 37.213 1.60075 37.4122 3.6017C37.6113 1.60075 39.3042 0 41.3954 0C43.4866 0 45.1794 1.60075 45.3786 3.6017C45.5778 1.60075 47.2706 0 49.3618 0C51.4529 0 53.1458 1.60075 53.345 3.6017C53.5441 1.60075 55.237 0 57.3282 0C59.4194 0 61.1122 1.60075 61.3113 3.6017C61.5105 1.60075 63.2034 0 65.2946 0C67.3857 0 69.0786 1.60075 69.2778 3.6017C69.4769 1.60075 71.1697 0 73.2609 0C75.3521 0 77.045 1.60075 77.2441 3.6017C77.4433 1.60075 79.1362 0 81.2274 0C83.3185 0 85.0114 1.60075 85.2105 3.6017C85.4097 1.60075 87.1025 0 89.1937 0C91.2849 0 92.9778 1.60075 93.1769 3.6017C93.3761 1.60075 95.069 0 97.1602 0C99.2513 0 100.944 1.60075 101.143 3.6017C101.342 1.60075 103.035 0 105.127 0C107.218 0 108.911 1.60075 109.11 3.6017C109.309 1.60075 111.002 0 113.093 0C115.184 0 116.877 1.60075 117.076 3.6017C117.275 1.60075 118.968 0 121.059 0C123.151 0 124.843 1.60075 125.042 3.6017C125.242 1.60075 126.935 0 129.026 0C131.117 0 132.81 1.60075 133.009 3.6017C133.208 1.60075 134.901 0 136.992 0C139.083 0 140.776 1.60075 140.975 3.6017C141.174 1.60075 142.867 0 144.958 0C147.05 0 148.742 1.60075 148.942 3.6017C149.141 1.60075 150.834 0 152.925 0C155.016 0 156.709 1.60075 156.908 3.6017C157.107 1.60075 158.8 0 160.891 0C162.982 0 164.675 1.60075 164.874 3.6017C165.074 1.60075 166.766 0 168.858 0C170.949 0 172.642 1.60075 172.841 3.6017C173.04 1.60075 174.733 0 176.824 0C178.915 0 180.608 1.60075 180.807 3.6017C181.006 1.60075 182.699 0 184.79 0C186.882 0 188.574 1.60075 188.774 3.6017C188.973 1.60075 190.666 0 192.757 0C194.848 0 196.541 1.60075 196.74 3.6017C196.939 1.60075 198.632 0 200.723 0C202.814 0 204.507 1.60075 204.706 3.6017C204.906 1.60075 206.598 0 208.69 0C210.781 0 212.474 1.60075 212.673 3.6017C212.872 1.60075 214.565 0 216.656 0C218.747 0 220.44 1.60075 220.639 3.6017C220.838 1.60075 222.531 0 224.622 0C226.714 0 228.406 1.60075 228.606 3.6017C228.805 1.60075 230.498 0 232.589 0C234.68 0 236.373 1.60075 236.572 3.6017C236.771 1.60075 238.464 0 240.555 0C242.646 0 244.339 1.60075 244.538 3.6017C244.738 1.60075 246.43 0 248.522 0C250.613 0 252.306 1.60075 252.505 3.6017C252.704 1.60075 254.397 0 256.488 0C258.579 0 260.272 1.60075 260.471 3.6017C260.67 1.60075 262.363 0 264.454 0C266.546 0 268.238 1.60075 268.438 3.6017C268.637 1.60075 270.33 0 272.421 0C274.512 0 276.205 1.60075 276.404 3.6017C276.603 1.60075 278.296 0 280.387 0C282.478 0 284.171 1.60075 284.37 3.6017C284.57 1.60075 286.262 0 288.354 0C290.445 0 292.138 1.60075 292.337 3.6017C292.536 1.60075 294.229 0 296.32 0C298.411 0 300.104 1.60075 300.303 3.6017C300.502 1.60075 302.195 0 304.286 0C306.378 0 308.07 1.60075 308.27 3.6017C308.469 1.60075 310.161 0 312.253 0C314.344 0 316.037 1.60075 316.236 3.6017C316.435 1.60075 318.128 0 320.219 0C322.31 0 324.003 1.60075 324.202 3.6017C324.401 1.60075 326.094 0 328.185 0C330.277 0 331.97 1.60075 332.169 3.6017C332.368 1.60075 334.061 0 336.152 0C338.243 0 339.936 1.60075 340.135 3.6017C340.334 1.60075 342.027 0 344.118 0C346.209 0 347.902 1.60075 348.102 3.6017C348.301 1.60075 349.993 0 352.085 0C354.176 0 355.869 1.60075 356.068 3.6017C356.267 1.60075 357.96 0 360.051 0C362.142 0 363.835 1.60075 364.034 3.6017C364.233 1.60075 365.926 0 368.017 0C370.109 0 371.802 1.60075 372.001 3.6017C372.2 1.60075 373.893 0 375.984 0C378.075 0 379.768 1.60075 379.967 3.6017C380.166 1.60075 381.859 0 383.95 0C386.041 0 387.734 1.60075 387.933 3.6017C388.133 1.60075 389.825 0 391.917 0C394.008 0 395.701 1.60075 395.9 3.6017C396.099 1.60075 397.792 0 399.883 0C401.974 0 403.667 1.60075 403.866 3.6017C404.065 1.60075 405.758 0 407.849 0C409.941 0 411.633 1.60075 411.833 3.6017C412.032 1.60075 413.725 0 415.816 0C417.907 0 419.6 1.60075 419.799 3.6017C419.998 1.60075 421.691 0 423.782 0C425.873 0 427.566 1.60075 427.765 3.6017C427.965 1.60075 429.657 0 431.749 0C433.84 0 435.533 1.60075 435.732 3.6017C435.931 1.60075 437.624 0 439.715 0C441.806 0 443.499 1.60075 443.698 3.6017C443.897 1.60075 445.59 0 447.681 0C449.773 0 451.465 1.60075 451.665 3.6017C451.864 1.60075 453.557 0 455.648 0C457.739 0 459.432 1.60075 459.631 3.6017C459.83 1.60075 461.523 0 463.614 0C465.705 0 467.398 1.60075 467.597 3.6017C467.797 1.60075 469.489 0 471.581 0C473.672 0 475.365 1.60075 475.564 3.6017C475.763 1.60075 477.456 0 479.547 0C481.638 0 483.331 1.60075 483.53 3.6017C483.729 1.60075 485.422 0 487.513 0C489.604 0 491.297 1.60075 491.497 3.6017C491.696 1.60075 493.389 0 495.48 0C497.571 0 499.264 1.60075 499.463 3.6017C499.662 1.60075 501.355 0 503.446 0C505.537 0 507.23 1.60075 507.429 3.6017C507.629 1.60075 509.321 0 511.412 0C513.504 0 515.197 1.60075 515.396 3.6017C515.595 1.60075 517.288 0 519.379 0C521.47 0 523.163 1.60075 523.362 3.6017C523.561 1.60075 525.254 0 527.345 0C529.437 0 531.129 1.60075 531.328 3.6017C531.528 1.60075 533.22 0 535.312 0C537.403 0 539.096 1.60075 539.295 3.6017C539.494 1.60075 541.187 0 543.278 0C545.369 0 547.062 1.60075 547.261 3.6017C547.46 1.60075 549.153 0 551.245 0C553.336 0 555.028 1.60075 555.228 3.6017C555.427 1.60075 557.12 0 559.211 0C561.302 0 562.995 1.60075 563.194 3.6017C563.393 1.60075 565.086 0 567.177 0C569.268 0 570.961 1.60075 571.16 3.6017C571.36 1.60075 573.052 0 575.144 0C577.235 0 578.928 1.60075 579.127 3.6017C579.326 1.60075 581.019 0 583.11 0C585.201 0 586.894 1.60075 587.093 3.6017C587.292 1.60075 588.985 0 591.076 0C593.168 0 594.86 1.60075 595.06 3.6017C595.259 1.60075 596.952 0 599.043 0C601.134 0 602.827 1.60075 603.026 3.6017C603.225 1.60075 604.918 0 607.009 0C609.1 0 610.793 1.60075 610.992 3.6017C611.192 1.60075 612.884 0 614.976 0C617.067 0 618.76 1.60075 618.959 3.6017C619.158 1.60075 620.851 0 622.942 0C625.033 0 626.726 1.60075 626.925 3.6017C627.124 1.60075 628.817 0 630.908 0C633 0 634.692 1.60075 634.892 3.6017C635.091 1.60075 636.784 0 638.875 0C640.966 0 642.659 1.60075 642.858 3.6017C643.057 1.60075 644.75 0 646.841 0C648.932 0 650.625 1.60075 650.824 3.6017C651.024 1.60075 652.716 0 654.808 0C656.899 0 658.592 1.60075 658.791 3.6017C658.99 1.60075 660.683 0 662.774 0C664.865 0 666.558 1.60075 666.757 3.6017C666.956 1.60075 668.649 0 670.74 0C672.832 0 674.524 1.60075 674.724 3.6017C674.923 1.60075 676.616 0 678.707 0C680.798 0 682.491 1.60075 682.69 3.6017C682.889 1.60075 684.582 0 686.673 0C688.764 0 690.457 1.60075 690.656 3.6017C690.856 1.60075 692.548 0 694.64 0C696.731 0 698.423 1.60075 698.623 3.6017C698.822 1.60075 700.515 0 702.606 0C704.697 0 706.39 1.60075 706.589 3.6017C706.788 1.60075 708.481 0 710.572 0C712.663 0 714.356 1.60075 714.556 3.6017C714.755 1.60075 716.448 0 718.539 0C720.63 0 722.323 1.60075 722.522 3.6017C722.721 1.60075 724.414 0 726.505 0C728.596 0 730.289 1.60075 730.488 3.6017C730.688 1.60075 732.38 0 734.471 0C736.563 0 738.255 1.60075 738.455 3.6017C738.654 1.60075 740.347 0 742.438 0C744.529 0 746.222 1.60075 746.421 3.6017C746.62 1.60075 748.313 0 750.404 0C752.495 0 754.188 1.60075 754.387 3.6017C754.587 1.60075 756.28 0 758.371 0C760.462 0 762.155 1.60075 762.354 3.6017C762.553 1.60075 764.246 0 766.337 0C766.932 0 767.495 0.12958 768 0.361075V119.639Z" fill="url(#paint0_linear)"/>
<defs>
<linearGradient id="paint0_linear" x1="-1.4292e-05" y1="-0.0999589" x2="768.061" y2="119.71" gradientUnits="userSpaceOnUse">
<stop stop-color="#50CE1B"/>
<stop offset="1" stop-color="#F17E00"/>
</linearGradient>
</defs>
</svg>
