<svg width="32" height="13" viewBox="0 0 32 13" fill="none" xmlns="http://www.w3.org/2000/svg">
<path d="M0.126343 4.72432V6.45188L4.78672 5.93925V4.06943L0.126343 4.72432ZM1.61355 6.55697V12.4768H3.31976V6.38259L1.61355 6.55697ZM5.41613 3.981V12.4768H7.21399V3.72822L5.41613 3.981ZM7.54894 3.68111V5.63549L10.1451 5.34987V3.31634L7.54894 3.68111ZM7.54894 7.09013V9.08012L9.25312 8.98719V6.94345L7.54894 7.09013ZM7.54894 10.5145V12.4768H10.1451V10.4362L7.54894 10.5145ZM16.8589 2.36975V12.4768H19.2158V2.03848L16.8589 2.36975ZM19.6559 1.97655V4.3014L23.0906 3.92376V1.49373L19.6559 1.97655ZM19.6559 6.04985V8.41777L21.9072 8.29484V5.85707L19.6559 6.04985ZM19.6559 10.1486V12.4768H23.0906V10.0448L19.6559 10.1486ZM10.832 3.21963V12.4768H12.8799V2.9317L10.832 3.21963ZM13.2622 10.3422V12.4767H16.2349V10.2524L13.2622 10.3422ZM30.791 1.37944C30.0461 0.67568 28.954 0.387017 27.7594 0.558632V3.13718C28.2431 3.11031 28.6351 3.28984 28.8098 3.65129C29.0855 4.22116 28.801 5.0762 28.1298 5.86839C27.0939 7.09086 24.3391 9.59304 24.3391 9.59304L28.2937 9.46302C30.71 7.10237 31.5778 5.66945 31.7335 3.88106C31.8153 2.93493 31.4719 2.0233 30.791 1.37944ZM31.8728 12.4768V9.77873L23.8517 10.0204L31.8728 12.4768ZM23.8517 10.0203L23.8525 12.4767H31.8728L23.8517 10.0203ZM27.2983 0.616512C24.9681 1.11277 23.8238 2.82708 23.9559 5.62436L26.4404 5.40388C26.3272 3.82355 26.8106 3.44867 27.2995 3.24254L27.2983 0.616512Z" fill="#141414"/>
</svg>
