<svg width="24" height="24" viewBox="0 0 24 24" fill="none" xmlns="http://www.w3.org/2000/svg">
<path d="M9.7626 9.95282C8.95737 9.95282 8.30346 9.29982 8.30346 8.49549C8.30346 7.68937 8.95737 7.03636 9.7626 7.03636C10.5678 7.03636 11.2199 7.68937 11.2199 8.49549C11.2199 9.29982 10.5678 9.95282 9.7626 9.95282ZM11.999 0.333374C5.55454 0.333374 0.333191 5.55562 0.333191 11.9992C0.333191 17.5907 4.26834 22.2635 9.51851 23.4011V12.9323L9.51923 12.9316C9.53097 12.4263 9.93355 12.0192 10.4343 12.0003V11.9996H10.9198H11.9079C11.9763 11.9996 12.0322 11.9455 12.0358 11.878L12.0365 0.335464L11.999 0.333374ZM20.0381 18.3632C19.2338 18.3632 18.5799 17.7102 18.5799 16.9041C18.5799 16.1006 19.2338 15.4476 20.0381 15.4476C20.8424 15.4476 21.4963 16.1006 21.4963 16.9041C21.4963 17.7102 20.8424 18.3632 20.0381 18.3632ZM16.62 18.3632C15.8156 18.3632 15.1626 17.7102 15.1626 16.9041C15.1626 16.1006 15.8156 15.4476 16.62 15.4476C17.4252 15.4476 18.0782 16.1006 18.0782 16.9041C18.0782 17.7102 17.4252 18.3632 16.62 18.3632ZM13.2 18.3632C12.3957 18.3632 11.7409 17.7102 11.7409 16.9041C11.7409 16.1006 12.3957 15.4476 13.2 15.4476C14.0061 15.4476 14.6591 16.1006 14.6591 16.9041C14.6591 17.7102 14.0061 18.3632 13.2 18.3632ZM13.4387 0.421296V11.9989V12.4492V12.4573L13.4358 12.4602C13.4315 12.9808 13.0071 13.4015 12.4847 13.4015H12.0361H11.049C10.9769 13.4015 10.9193 13.4591 10.9193 13.5303V23.6163C11.275 23.6487 11.6335 23.6667 11.9983 23.6667C18.4419 23.6667 23.6641 18.4427 23.6641 11.9991C23.6641 6.04456 19.2021 1.13126 13.4385 0.421513" fill="#00985F"/>
</svg>
