<svg width="24" height="24" viewBox="0 0 24 24" fill="none" xmlns="http://www.w3.org/2000/svg">
<g clip-path="url(#clip0)">
<path d="M23.6847 12.009C23.6847 12.0626 23.6847 12.1163 23.6847 12.152C23.6847 12.9566 23.5774 13.7433 23.4165 14.5122C23.0053 16.3896 22.147 18.0882 20.9491 19.5007C18.875 21.986 15.7818 23.5773 12.3131 23.6667C12.2058 23.6667 12.1164 23.6667 12.0091 23.6667C11.9018 23.6667 11.8124 23.6667 11.7051 23.6667C8.23643 23.5773 5.1432 21.986 3.06913 19.5007C1.87117 18.0882 1.01293 16.3717 0.601695 14.5122C0.422896 13.7076 0.333496 12.8672 0.333496 12.009C0.333496 11.1507 0.422896 10.3283 0.601695 9.52367C1.01293 7.64627 1.87117 5.94768 3.05125 4.53516C5.17896 1.99621 8.32583 0.369134 11.8661 0.333374C11.9197 0.333374 11.9733 0.333374 12.0091 0.333374C12.0627 0.333374 12.1164 0.333374 12.1521 0.333374C15.6924 0.369134 18.8392 1.99621 20.9491 4.51728C22.1292 5.9298 22.9874 7.64627 23.3986 9.50579C23.5596 10.2567 23.649 11.0435 23.6668 11.8481C23.6847 11.9017 23.6847 11.9553 23.6847 12.009Z" fill="url(#paint0_linear)"/>
<path d="M12.1707 0.333374H11.8667C8.32651 0.369134 5.17964 1.99621 3.0698 4.51728H20.9855C18.8578 1.99621 15.7109 0.369134 12.1707 0.333374ZM3.0698 19.5007C5.14388 21.986 8.23711 23.5773 11.7058 23.6667H12.3137C15.7824 23.5773 18.8757 21.986 20.9498 19.5007H3.0698ZM23.4172 9.50579H0.62025C0.441451 10.3104 0.352051 11.1329 0.352051 11.9911C0.352051 12.8493 0.441451 13.6897 0.62025 14.4943H23.4172C23.5781 13.7433 23.6854 12.9387 23.6854 12.1341V11.8302C23.6854 11.0435 23.5781 10.2746 23.4172 9.50579Z" fill="black"/>
</g>
<defs>
<linearGradient id="paint0_linear" x1="0.333496" y1="12" x2="23.6847" y2="12" gradientUnits="userSpaceOnUse">
<stop stop-color="#FAA61A"/>
<stop offset="1" stop-color="#FFE100"/>
</linearGradient>
<clipPath id="clip0">
<rect width="23.3333" height="23.3333" fill="white" transform="translate(0.333496 0.333374)"/>
</clipPath>
</defs>
</svg>
