<svg width="23" height="22" viewBox="0 0 23 22" fill="none" xmlns="http://www.w3.org/2000/svg">
<path d="M22.0638 20.5652H21.1073V15.5435C21.1073 14.3567 20.1419 13.3913 18.9551 13.3913H18.2377V8.36954C18.2377 7.18279 17.2723 6.21736 16.0856 6.21736H12.4986V5.60691C13.3318 5.30982 13.9334 4.52096 13.9334 3.58695C13.9334 3.2105 13.8344 2.83942 13.6466 2.51389C13.6466 2.51389 13.6461 2.51363 13.6461 2.51341L12.4024 0.358703C12.2744 0.136812 12.0376 0 11.7812 0C11.5249 0 11.288 0.136812 11.1601 0.358703L9.91585 2.51389C9.72807 2.83942 9.62907 3.21054 9.62907 3.58695C9.62907 4.52096 10.2306 5.30982 11.0638 5.60691V6.21736H7.4769C6.29014 6.21736 5.32472 7.18279 5.32472 8.36954V13.3913H4.60736C3.42061 13.3913 2.45518 14.3567 2.45518 15.5435C2.45518 15.719 2.45518 19.0598 2.45518 20.5652H1.49866C1.10261 20.5652 0.78125 20.8863 0.78125 21.2826C0.78125 21.6789 1.10261 22 1.49866 22H22.0639C22.4599 22 22.7813 21.6789 22.7813 21.2826C22.7812 20.8863 22.4599 20.5652 22.0638 20.5652ZM11.1586 3.23086L11.7812 2.15243L12.4039 3.23086C12.4669 3.34013 12.4987 3.45993 12.4987 3.58699C12.4987 3.98256 12.1768 4.30439 11.7812 4.30439C11.3857 4.30439 11.0638 3.98256 11.0638 3.58699C11.0638 3.45993 11.0961 3.33987 11.1586 3.23086ZM6.75949 8.36958C6.75949 7.97401 7.08133 7.65218 7.4769 7.65218H16.0856C16.4812 7.65218 16.803 7.97401 16.803 8.36958V10.4346C16.735 10.3661 16.6652 10.2936 16.5826 10.2037C16.1664 9.75107 15.5967 9.13107 14.6191 9.13107C13.642 9.13107 13.0727 9.75086 12.6565 10.2032C12.2591 10.6359 12.0657 10.812 11.7495 10.812C11.4235 10.812 11.2138 10.6025 10.8406 10.2009C10.4212 9.74948 9.84723 9.13107 8.87996 9.13107C7.90289 9.13107 7.33355 9.75086 6.91787 10.2032C6.85965 10.2666 6.81075 10.3168 6.75953 10.3704L6.75949 8.36958ZM19.6725 16.4194C19.0953 16.619 18.703 17.043 18.3956 17.3772C17.9982 17.8099 17.8048 17.9859 17.4886 17.9859C17.1729 17.9859 16.98 17.8099 16.5825 17.3776C16.1664 16.925 15.5966 16.305 14.619 16.305C13.642 16.305 13.0726 16.9248 12.6565 17.3771C12.259 17.8099 12.0656 17.9859 11.7495 17.9859C11.4235 17.9859 11.2138 17.7764 10.8406 17.3748C10.4212 16.9234 9.84718 16.305 8.87991 16.305C7.90285 16.305 7.33351 16.9248 6.91736 17.3771C6.5199 17.8099 6.32654 17.9859 6.01033 17.9859C5.6689 17.9859 5.3826 17.6987 4.9515 17.2256C4.64943 16.8942 4.3168 16.5333 3.88991 16.294V15.5435C3.88991 15.1479 4.21175 14.8261 4.60732 14.8261H18.9551C19.3507 14.8261 19.6725 15.1479 19.6725 15.5435V16.4194Z" fill="black" fill-opacity="0.2"/>
</svg>
