<svg width="25" height="22" viewBox="0 0 25 22" fill="none" xmlns="http://www.w3.org/2000/svg">
<path d="M17.7206 2.51776C17.561 3.20632 17.5787 3.92409 17.7719 4.60397L17.9559 5.23552L18.4642 5.65154C19.483 6.48499 20.2609 7.52033 20.7132 8.64461L21.2412 9.95808H22.6864V11.8791H21.2577L20.7452 13.2316C20.3391 14.3037 19.6256 15.3084 18.6806 16.1405L18.6519 16.1598L18.5907 16.219L18.4576 16.3348L18.4383 16.3508C16.8815 17.7226 16.7224 19.3745 16.7107 19.8992V19.9067H14.6791V18.4342L12.4893 18.533C12.308 18.5412 12.1266 18.5453 11.9453 18.5453C11.6811 18.5453 11.4179 18.5359 11.1556 18.517L8.90751 18.3537V19.9067H6.82601C6.70365 19.0003 6.30834 17.5151 5.06829 16.2765C4.51109 15.7183 4.00754 14.9738 3.57082 14.0665L3.5567 14.0368L3.54164 14.0077C3.30276 13.5529 3.1154 13.0729 2.98303 12.5765L2.96891 12.5083L2.95808 12.4528V12.4467L2.93173 12.3201L2.91808 12.2937C2.82694 11.8661 2.7812 11.4301 2.78161 10.9929C2.78161 9.02345 3.70447 7.15749 5.37889 5.74049C7.13191 4.25713 9.47648 3.44015 11.9759 3.44015C12.3747 3.44168 12.7732 3.46351 13.1698 3.50557L13.2126 3.5098H13.2404C14.1124 3.57616 14.5929 3.69805 14.7591 3.75028L16.0438 4.14136L16.9342 3.13661C17.1577 2.88551 17.424 2.67598 17.7206 2.51776ZM19.0919 8.14358e-06C19.0374 8.14358e-06 18.9781 0.00471423 18.9239 0.00942031C17.1201 0.224959 16.0231 1.00523 15.3676 1.74691C14.5769 1.50784 13.5736 1.43583 13.3858 1.42124C12.9179 1.37171 12.4478 1.34611 11.9773 1.34454C8.97669 1.34501 6.15492 2.34034 4.02589 4.14136C1.87051 5.96308 0.684575 8.39895 0.684575 10.9929C0.683823 11.6656 0.765213 12.3359 0.926939 12.9888C0.932115 13.0034 0.932115 13.0175 0.936821 13.0269L0.941998 13.0509C1.11432 13.7185 1.36303 14.3641 1.68321 14.9748C2.22158 16.0948 2.86443 17.0327 3.58588 17.7551C4.58403 18.7505 4.75722 20.014 4.78169 20.5213V20.8037C4.78157 20.8535 4.78662 20.9032 4.79675 20.952C4.89087 21.5454 5.41936 22 6.05186 22H9.73343C10.4351 22 11.0041 21.4499 11.0041 20.7703V20.6075C11.3178 20.6304 11.6315 20.6417 11.9453 20.6414C12.158 20.6414 12.3709 20.6365 12.5839 20.6268V20.7703C12.5839 21.4499 13.1524 22 13.8545 22H17.5361C18.2378 22 18.8068 21.4499 18.8068 20.7703V19.8992C18.8115 19.6983 18.891 18.7457 19.8247 17.9226C19.8689 17.8845 19.9188 17.8459 19.963 17.8078L19.9729 17.7984C19.9868 17.7899 19.9987 17.7785 20.0077 17.765C21.2384 16.6977 22.1674 15.396 22.7057 13.9747H22.9971C23.9806 13.9747 24.7811 13.1996 24.7811 12.2471V9.58112C24.791 8.63332 23.9905 7.86293 23.0069 7.86293H22.6559C22.0728 6.41299 21.0944 5.09669 19.7899 4.02936C19.6058 3.38839 19.7442 2.69424 20.2148 1.97656C20.343 1.78345 20.4146 1.55833 20.4216 1.32664C20.4286 1.09496 20.3707 0.865936 20.2543 0.665448C20.136 0.462295 19.9663 0.293857 19.7623 0.177052C19.5582 0.0602476 19.327 -0.000811453 19.0919 8.14358e-06Z" fill="#50CE1B"/>
</svg>
