<svg width="17" height="16" viewBox="0 0 17 16" fill="none" xmlns="http://www.w3.org/2000/svg">
<path d="M8.94296 0C4.5327 0 0.942956 3.58974 0.942956 8C0.942956 9.4359 1.35321 10.7692 1.9686 12L0.942956 11.7949C0.532699 11.6923 0.122443 12 0.0198784 12.4103C-0.0826857 12.8205 0.225007 13.2308 0.635263 13.3333L4.32757 13.9487L5.14808 10.2564C5.25065 9.84615 4.94296 9.4359 4.5327 9.33333C4.12244 9.23077 3.71219 9.53846 3.60962 9.94872L3.40449 11.1795C2.78911 10.2564 2.48142 9.1282 2.48142 7.89744C2.48142 4.41026 5.35321 1.53846 8.84039 1.53846C12.3276 1.53846 15.1994 4.41026 15.1994 7.89744C15.1994 11.3846 12.4301 14.359 8.94296 14.359C8.5327 14.359 8.12244 14.6667 8.12244 15.1795C8.12244 15.6923 8.43014 16 8.94296 16C13.3532 16 16.8404 12.4103 16.8404 8C16.8404 3.58974 13.2507 0 8.94296 0Z" fill="#F17E00"/>
</svg>
