<svg width="14" height="14" viewBox="0 0 14 14" fill="none" xmlns="http://www.w3.org/2000/svg">
<path d="M0 0.7C0 0.313401 0.313401 0 0.7 0H4.9C5.2866 0 5.6 0.313401 5.6 0.7V4.9C5.6 5.2866 5.2866 5.6 4.9 5.6H0.7C0.313401 5.6 0 5.2866 0 4.9V0.7Z" fill="#F17E00"/>
<path d="M8.4 9.1C8.4 8.7134 8.7134 8.4 9.1 8.4H13.3C13.6866 8.4 14 8.7134 14 9.1V13.3C14 13.6866 13.6866 14 13.3 14H9.1C8.7134 14 8.4 13.6866 8.4 13.3V9.1Z" fill="#F17E00"/>
<path d="M8.4 0.7C8.4 0.313401 8.7134 0 9.1 0H13.3C13.6866 0 14 0.313401 14 0.7V4.9C14 5.2866 13.6866 5.6 13.3 5.6H9.1C8.7134 5.6 8.4 5.2866 8.4 4.9V0.7Z" fill="#F17E00"/>
<path d="M0 9.1C0 8.7134 0.313401 8.4 0.7 8.4H4.9C5.2866 8.4 5.6 8.7134 5.6 9.1V13.3C5.6 13.6866 5.2866 14 4.9 14H0.7C0.313401 14 0 13.6866 0 13.3V9.1Z" fill="#F17E00"/>
</svg>
