<svg width="15" height="12" viewBox="0 0 15 12" fill="none" xmlns="http://www.w3.org/2000/svg">
<path d="M0 0.546269V9.26866C0 9.35522 0.00895522 9.42985 0.0328358 9.49552C0.0567164 9.56119 0.0955224 9.61493 0.149254 9.65373C0.202985 9.69254 0.250746 9.72836 0.289552 9.75224C0.328358 9.77612 0.397015 9.79403 0.489552 9.80298C0.58209 9.81194 0.647761 9.81791 0.680597 9.8209C0.716418 9.82388 0.78806 9.82388 0.898507 9.8209C1.00896 9.81791 1.07164 9.81791 1.08955 9.81791C1.08955 10.4209 1.30149 10.9343 1.72836 11.3612C2.15522 11.7881 2.66866 12 3.27164 12C3.87463 12 4.38806 11.7881 4.81493 11.3612C5.24179 10.9343 5.45373 10.4209 5.45373 9.81791H8.72537C8.72537 10.4209 8.93731 10.9343 9.36418 11.3612C9.79105 11.7881 10.3045 12 10.9075 12C11.5104 12 12.0239 11.7881 12.4507 11.3612C12.8776 10.9343 13.0896 10.4209 13.0896 9.81791H13.6358C13.6507 9.81791 13.7164 9.81791 13.8269 9.8209C13.9373 9.82388 14.0119 9.82388 14.0448 9.8209C14.0776 9.81791 14.1433 9.81194 14.2358 9.80298C14.3284 9.79403 14.397 9.7791 14.4358 9.75224C14.4746 9.72537 14.5224 9.69254 14.5761 9.65373C14.6328 9.61194 14.6687 9.56119 14.6925 9.49552C14.7134 9.42985 14.7254 9.35522 14.7254 9.26866C14.7254 9.12239 14.6716 8.99403 14.5642 8.88657C14.4567 8.7791 14.3284 8.72537 14.1821 8.72537V6C14.1821 5.95522 14.1821 5.85373 14.1851 5.70149C14.1881 5.54627 14.1881 5.43881 14.1851 5.37612C14.1821 5.31343 14.1761 5.21493 14.1642 5.0806C14.1522 4.94627 14.1343 4.84179 14.1075 4.76418C14.0806 4.68657 14.0418 4.6 13.9881 4.50448C13.9343 4.40597 13.8716 4.32239 13.797 4.24776L12.1104 2.56119C12.003 2.45373 11.8597 2.36418 11.6806 2.28955C11.5015 2.21493 11.3343 2.1791 11.1821 2.1791H9.81791V0.543284C9.81791 0.397015 9.76418 0.268657 9.65672 0.161194C9.54925 0.0537313 9.4209 0 9.27463 0L0.546269 0C0.4 0 0.271642 0.0537313 0.164179 0.161194C0.0567164 0.268657 0 0.397015 0 0.546269ZM9.81791 9.81791C9.81791 9.52239 9.92836 9.26567 10.1433 9.05075C10.3582 8.83582 10.6149 8.72836 10.9104 8.72836C11.206 8.72836 11.4627 8.83582 11.6776 9.05075C11.8925 9.26567 12 9.52239 12 9.81791C12 10.1134 11.8925 10.3701 11.6776 10.5851C11.4627 10.803 11.206 10.9104 10.9104 10.9104C10.6149 10.9104 10.3582 10.8 10.1433 10.5851C9.92836 10.3701 9.8209 10.1134 9.81791 9.81791ZM9.81791 5.45373V3.26866H11.1642C11.2388 3.26866 11.3015 3.29552 11.3522 3.34627L13.0149 5.00896C13.0657 5.0597 13.0925 5.12239 13.0925 5.19701V5.45373H9.8209H9.81791ZM2.18209 9.81791C2.18209 9.52239 2.29254 9.26567 2.50746 9.05075C2.72239 8.83582 2.9791 8.72836 3.27463 8.72836C3.57015 8.72836 3.82687 8.83582 4.04179 9.05075C4.25672 9.26567 4.36418 9.52239 4.36418 9.81791C4.36418 10.1134 4.25672 10.3701 4.04179 10.5851C3.82687 10.803 3.57015 10.9104 3.27463 10.9104C2.9791 10.9104 2.72239 10.8 2.50746 10.5851C2.29254 10.3701 2.18209 10.1134 2.18209 9.81791Z" fill="#50CE1B"/>
</svg>
