<svg width="20" height="18" viewBox="0 0 20 18" fill="none" xmlns="http://www.w3.org/2000/svg">
<path d="M19.7998 6.75203H18.8999V2.70004C18.8992 1.98416 18.6145 1.29781 18.1083 0.791615C17.6021 0.285414 16.9157 0.000716643 16.1998 0H2.70004C1.98416 0.000716643 1.29781 0.285414 0.791615 0.791615C0.285414 1.29781 0.000716643 1.98416 0 2.70004L0 15.3C0.000716643 16.0158 0.285414 16.7022 0.791615 17.2084C1.29781 17.7146 1.98416 17.9993 2.70004 18H16.1998C16.9157 17.9993 17.6021 17.7146 18.1083 17.2084C18.6145 16.7022 18.8992 16.0158 18.8999 15.3V12.1521H19.7998V6.75203ZM17.0997 15.2984C17.0994 15.537 17.0045 15.7657 16.8358 15.9344C16.6671 16.1031 16.4384 16.198 16.1998 16.1983H2.70004C2.46147 16.198 2.23276 16.1031 2.06406 15.9344C1.89537 15.7657 1.80046 15.537 1.80015 15.2984V2.70004C1.80046 2.46147 1.89537 2.23276 2.06406 2.06406C2.23276 1.89537 2.46147 1.80046 2.70004 1.80015H16.1998C16.4384 1.80046 16.6671 1.89537 16.8358 2.06406C17.0045 2.23276 17.0994 2.46147 17.0997 2.70004V6.75203H15.2276C14.5356 6.75254 13.8721 7.02768 13.3827 7.51703C12.8934 8.00637 12.6182 8.66992 12.6177 9.36196V9.54179C12.6182 10.2338 12.8934 10.8974 13.3827 11.3867C13.8721 11.8761 14.5356 12.1512 15.2276 12.1517H17.0997V15.2984ZM16.2269 9.45168C16.226 9.63018 16.1723 9.80442 16.0725 9.95245C15.9728 10.1005 15.8315 10.2157 15.6664 10.2836C15.5013 10.3515 15.3198 10.369 15.1448 10.3339C14.9698 10.2989 14.809 10.2128 14.6828 10.0866C14.5566 9.96041 14.4705 9.79966 14.4355 9.62463C14.4004 9.44961 14.418 9.26812 14.4858 9.10303C14.5537 8.93794 14.6689 8.79663 14.817 8.69689C14.965 8.59715 15.1393 8.54344 15.3178 8.54252C15.4373 8.5419 15.5558 8.565 15.6664 8.61047C15.777 8.65594 15.8775 8.72289 15.962 8.80743C16.0465 8.89198 16.1135 8.99245 16.159 9.10303C16.2044 9.21362 16.2275 9.33212 16.2269 9.45168Z" fill="black" fill-opacity="0.2"/>
</svg>
