<svg width="10" height="12" viewBox="0 0 10 12" fill="none" xmlns="http://www.w3.org/2000/svg">
<path d="M5.01893 0C2.5833 0 0.600098 1.9832 0.600098 4.41883C0.600098 5.05411 0.729029 5.66126 0.986892 6.22153C2.09101 8.63841 4.21018 11.1912 4.83374 11.9156C4.88062 11.9695 4.9486 12 5.01893 12C5.08926 12 5.15958 11.9695 5.20412 11.9156C5.82768 11.1912 7.9445 8.63841 9.05097 6.22153C9.30649 5.66126 9.43776 5.05411 9.43776 4.41883C9.43776 1.9832 7.45456 0 5.01893 0ZM5.01893 6.71381C3.75306 6.71381 2.72395 5.6847 2.72395 4.41883C2.72395 3.15296 3.75306 2.12385 5.01893 2.12385C6.2848 2.12385 7.31391 3.15296 7.31391 4.41883C7.31391 5.6847 6.2848 6.71381 5.01893 6.71381Z" fill="#F17E00"/>
</svg>
