<svg width="120" height="32" viewBox="0 0 120 32" fill="none" xmlns="http://www.w3.org/2000/svg">
<path d="M22.7042 20.5C22.7042 20.6 22.1042 22.5 20.8042 24.5C19.7042 26.2 18.4042 27.9 16.5042 27.9C14.6042 27.9 14.0042 26.8 11.9042 26.8C9.80419 26.8 9.10419 27.9 7.30419 27.9C5.50419 28 4.10419 26.1 2.90419 24.4C0.504188 20.9 -1.29581 14.6 1.20419 10.3C2.40419 8.2 4.60419 6.8 6.90419 6.8C8.70419 6.8 10.4042 8 11.5042 8C12.6042 8 14.7042 6.5 16.8042 6.7C17.7042 6.7 20.3042 7.1 21.9042 9.5C21.8042 9.6 18.8042 11.3 18.9042 14.8C19.0042 19.1 22.7042 20.5 22.7042 20.5ZM15.5042 4.5C16.5042 3.3 17.1042 1.7 16.9042 0C15.5042 0.1 13.8042 1 12.8042 2.1C11.9042 3.1 11.1042 4.8 11.3042 6.4C12.9042 6.6 14.5042 5.7 15.5042 4.5ZM40.1042 13.1H37.2042L32.5042 27.7H34.9042L36.2042 23.4H40.9042L42.3042 27.7H44.8042L40.1042 13.1ZM36.6042 21.6L37.8042 17.8C38.1042 16.6 38.3042 15.7 38.5042 15.1C38.9042 16.5 39.1042 17.5 39.2042 17.8L40.4042 21.6H36.6042ZM55.6042 18.5C54.8042 17.5 53.7042 17 52.5042 17C50.9042 17 49.7042 17.6 49.0042 18.9L48.9042 17.2H46.8042C46.9042 18.4 46.9042 19.5 46.9042 20.7V32H49.2042V26.5C49.8042 27.5 50.8042 28 52.2042 28C53.5042 28 54.6042 27.5 55.4042 26.6C56.4042 25.6 56.9042 24.1 56.9042 22.4C56.8042 20.7 56.4042 19.4 55.6042 18.5ZM53.7042 25.1C53.2042 25.8 52.5042 26.1 51.6042 26.1C50.9042 26.1 50.2042 25.8 49.8042 25.3C49.4042 24.8 49.1042 24.1 49.1042 23.4V21.6C49.1042 21.4 49.1042 21.2 49.2042 20.9C49.3042 20.3 49.7042 19.8 50.1042 19.4C50.6042 19 51.1042 18.8 51.7042 18.8C52.6042 18.8 53.2042 19.1 53.7042 19.8C54.2042 20.5 54.4042 21.3 54.4042 22.3C54.5042 23.5 54.2042 24.4 53.7042 25.1ZM67.7042 18.5C66.9042 17.5 65.8042 17 64.6042 17C63.0042 17 61.8042 17.6 61.1042 18.9L61.0042 17.2H58.9042C59.0042 18.4 59.0042 19.5 59.0042 20.7V32H61.3042V26.5C61.9042 27.5 62.9042 28 64.3042 28C65.6042 28 66.7042 27.5 67.5042 26.6C68.5042 25.6 69.0042 24.1 69.0042 22.4C68.9042 20.7 68.5042 19.4 67.7042 18.5ZM65.8042 25.1C65.3042 25.8 64.6042 26.1 63.7042 26.1C62.9042 26.1 62.3042 25.8 61.9042 25.3C61.4042 24.8 61.2042 24.1 61.2042 23.4V21.6C61.2042 21.4 61.2042 21.2 61.3042 20.9C61.4042 20.3 61.7042 19.8 62.2042 19.4C62.7042 19 63.2042 18.8 63.8042 18.8C64.7042 18.8 65.3042 19.1 65.8042 19.8C66.3042 20.5 66.5042 21.3 66.5042 22.3C66.6042 23.5 66.3042 24.4 65.8042 25.1ZM81.6042 21.1C81.0042 20.4 80.1042 19.8 78.8042 19.3C77.8042 18.9 77.1042 18.5 76.7042 18.2C76.3042 17.8 76.0042 17.3 76.0042 16.8C76.0042 16.3 76.2042 15.8 76.6042 15.5C77.1042 15.1 77.7042 14.9 78.5042 14.9C79.5042 14.9 80.5042 15.1 81.3042 15.6L81.9042 13.7C81.0042 13.2 79.9042 13 78.6042 13C77.1042 13 75.9042 13.4 75.0042 14.1C74.1042 14.9 73.7042 15.8 73.7042 17C73.7042 18.8 75.0042 20.2 77.5042 21.2C78.4042 21.5 79.1042 21.9 79.5042 22.3C79.9042 22.7 80.1042 23.2 80.1042 23.8C80.1042 24.5 79.9042 25 79.4042 25.4C78.9042 25.8 78.2042 26 77.3042 26C76.1042 26 74.9042 25.7 73.9042 25.1L73.4042 27C74.4042 27.6 75.6042 27.9 77.2042 27.9C78.9042 27.9 80.2042 27.5 81.2042 26.6C82.1042 25.8 82.5042 24.8 82.5042 23.6C82.5042 22.6 82.2042 21.8 81.6042 21.1ZM90.2042 17.2H87.6042V14.6L85.3042 15.3V17.2H83.8042V19H85.3042V24.3C85.3042 25.6 85.6042 26.6 86.1042 27.1C86.6042 27.7 87.3042 27.9 88.3042 27.9C89.1042 27.9 89.7042 27.8 90.1042 27.6L90.0042 25.9C89.7042 26 89.4042 26 89.0042 26C88.1042 26 87.6042 25.4 87.6042 24.1V19H90.2042V17.2ZM100.504 18.5C99.6042 17.5 98.3042 17 96.8042 17C95.2042 17 93.9042 17.5 93.0042 18.6C92.1042 19.6 91.6042 21 91.6042 22.6C91.6042 24.2 92.1042 25.4 93.0042 26.5C93.9042 27.5 95.1042 28 96.7042 28C98.3042 28 99.6042 27.5 100.604 26.4C101.504 25.4 102.004 24 102.004 22.4C101.804 20.8 101.404 19.5 100.504 18.5ZM98.7042 25C98.2042 25.9 97.5042 26.3 96.6042 26.3C95.7042 26.3 95.0042 25.9 94.5042 25C94.1042 24.3 93.9042 23.5 93.9042 22.5C93.9042 21.5 94.1042 20.7 94.5042 20C95.0042 19.2 95.7042 18.7 96.6042 18.7C97.5042 18.7 98.2042 19.1 98.7042 20C99.1042 20.7 99.3042 21.5 99.3042 22.5C99.4042 23.4 99.2042 24.3 98.7042 25ZM109.404 17C109.204 17 109.004 17 108.804 17C108.204 17 107.604 17.2 107.104 17.6C106.604 18 106.204 18.6 105.904 19.3H105.804L105.704 17.3H103.704C103.804 18.3 103.804 19.4 103.804 20.6V27.8H106.104V22.3C106.104 21.5 106.304 20.8 106.704 20.2C107.104 19.6 107.804 19.3 108.604 19.3C108.904 19.3 109.104 19.3 109.304 19.4L109.404 17ZM118.904 18.6C118.104 17.5 117.004 16.9 115.504 16.9C114.004 16.9 112.704 17.5 111.804 18.6C110.904 19.7 110.504 21 110.504 22.6C110.504 24.2 111.004 25.5 111.904 26.5C112.804 27.5 114.104 27.9 115.704 27.9C117.104 27.9 118.204 27.7 119.204 27.3L118.804 25.7C117.904 26 117.004 26.2 116.004 26.2C115.104 26.2 114.304 26 113.704 25.5C113.004 25 112.704 24.2 112.704 23.1H119.704C119.804 22.8 119.804 22.5 119.804 22C119.904 20.6 119.604 19.5 118.904 18.6ZM117.604 21.4H112.704C112.804 20.7 113.004 20.1 113.404 19.6C113.904 19 114.504 18.6 115.304 18.6C116.104 18.6 116.804 18.9 117.204 19.6C117.504 20.1 117.704 20.7 117.604 21.4ZM38.7042 1.5C38.0042 1 37.1042 0.7 35.8042 0.7C35.1042 0.7 34.4042 0.8 33.8042 0.8V7.8C34.3042 7.9 34.8042 7.9 35.5042 7.9C36.8042 7.9 37.8042 7.6 38.6042 7C39.4042 6.3 39.8042 5.4 39.8042 4.1C39.7042 3 39.4042 2.1 38.7042 1.5ZM37.8042 6.3C37.3042 6.8 36.6042 7 35.8042 7C35.4042 7 35.2042 7 35.0042 7V1.7C35.3042 1.6 35.6042 1.6 35.9042 1.6C36.8042 1.6 37.4042 1.8 37.8042 2.3C38.2042 2.7 38.5042 3.4 38.5042 4.2C38.5042 5.1 38.3042 5.8 37.8042 6.3ZM45.5042 3.4C45.0042 2.9 44.4042 2.6 43.7042 2.6C42.9042 2.6 42.3042 2.9 41.8042 3.4C41.3042 3.9 41.1042 4.6 41.1042 5.4C41.1042 6.2 41.3042 6.8 41.8042 7.3C42.2042 7.8 42.8042 8 43.6042 8C44.4042 8 45.0042 7.7 45.5042 7.2C46.0042 6.7 46.2042 6 46.2042 5.2C46.2042 4.5 45.9042 3.9 45.5042 3.4ZM44.7042 6.6C44.5042 7 44.1042 7.2 43.7042 7.2C43.3042 7.2 42.9042 7 42.7042 6.6C42.5042 6.3 42.4042 5.9 42.4042 5.4C42.4042 4.9 42.5042 4.5 42.7042 4.2C42.9042 3.8 43.3042 3.6 43.8042 3.6C44.2042 3.6 44.6042 3.8 44.8042 4.2C44.9042 4.4 45.0042 4.8 45.0042 5.3C45.0042 5.8 44.9042 6.2 44.7042 6.6ZM54.8042 2.7H53.7042L53.0042 5.2C52.8042 5.8 52.7042 6.4 52.6042 6.9C52.5042 6.4 52.4042 5.8 52.2042 5.2L51.5042 2.8H50.6042L49.9042 5.3C49.7042 6 49.6042 6.5 49.5042 6.9C49.4042 6.4 49.3042 5.8 49.1042 5.2L48.5042 2.7H47.3042L48.8042 7.9H49.9042L50.6042 5.7C50.8042 5.1 50.9042 4.6 51.0042 4C51.1042 4.6 51.2042 5.1 51.4042 5.7L52.1042 7.9H53.2042L54.8042 2.7ZM60.7042 4.8C60.7042 4 60.5042 3.5 60.1042 3.1C59.8042 2.8 59.4042 2.6 58.9042 2.6C58.5042 2.6 58.2042 2.7 57.9042 2.9C57.6042 3.1 57.4042 3.3 57.3042 3.5L57.2042 2.7H56.2042C56.2042 3.2 56.2042 3.7 56.2042 4.2V7.9H57.3042V4.8C57.3042 4.5 57.4042 4.2 57.6042 3.9C57.8042 3.6 58.1042 3.5 58.4042 3.5C59.1042 3.5 59.4042 4 59.4042 4.9V7.9H60.5042V4.8H60.7042ZM63.9042 0.4H62.8042V7.9H63.9042V0.4ZM70.0042 3.4C69.5042 2.9 68.9042 2.6 68.2042 2.6C67.4042 2.6 66.8042 2.9 66.3042 3.4C65.8042 3.9 65.6042 4.6 65.6042 5.4C65.6042 6.2 65.8042 6.8 66.3042 7.3C66.7042 7.8 67.3042 8 68.1042 8C68.9042 8 69.5042 7.7 70.0042 7.2C70.5042 6.7 70.7042 6 70.7042 5.2C70.7042 4.5 70.4042 3.9 70.0042 3.4ZM69.1042 6.6C68.9042 7 68.5042 7.2 68.1042 7.2C67.7042 7.2 67.3042 7 67.1042 6.6C66.9042 6.3 66.8042 5.9 66.8042 5.4C66.8042 4.9 66.9042 4.5 67.1042 4.2C67.3042 3.8 67.7042 3.6 68.2042 3.6C68.6042 3.6 69.0042 3.8 69.2042 4.2C69.4042 4.5 69.5042 4.9 69.5042 5.4C69.5042 5.8 69.4042 6.2 69.1042 6.6ZM76.1042 6.7V4.8C76.1042 3.4 75.4042 2.7 74.1042 2.7C73.4042 2.7 72.8042 2.8 72.3042 3.1L72.5042 3.9C72.9042 3.6 73.3042 3.5 73.8042 3.5C74.5042 3.5 74.9042 3.8 74.9042 4.5V4.6C73.9042 4.6 73.2042 4.8 72.7042 5.1C72.2042 5.4 72.0042 5.9 72.0042 6.5C72.0042 6.9 72.1042 7.3 72.4042 7.6C72.7042 7.9 73.1042 8 73.6042 8C74.3042 8 74.8042 7.8 75.1042 7.3L75.2042 7.9H76.2042C76.2042 7.6 76.1042 7.2 76.1042 6.7ZM75.0042 6.3C75.0042 6.5 74.8042 6.8 74.6042 6.9C74.4042 7.1 74.1042 7.1 73.9042 7.1C73.7042 7.1 73.5042 7 73.3042 6.9C73.2042 6.8 73.1042 6.6 73.1042 6.3C73.1042 5.6 73.7042 5.2 75.0042 5.3V6.1C75.0042 6.2 75.0042 6.3 75.0042 6.3ZM82.7042 6.5V0.4H81.6042V3.4C81.3042 2.9 80.8042 2.7 80.1042 2.7C79.5042 2.7 78.9042 2.9 78.5042 3.4C78.1042 3.9 77.8042 4.6 77.8042 5.4C77.8042 6.2 78.0042 6.8 78.4042 7.3C78.8042 7.8 79.4042 8 80.0042 8C80.8042 8 81.3042 7.7 81.7042 7.1L81.8042 7.9H82.8042C82.7042 7.5 82.7042 7 82.7042 6.5ZM81.2042 6.7C81.0042 7 80.7042 7.1 80.3042 7.1C79.9042 7.1 79.5042 6.9 79.3042 6.6C79.1042 6.3 79.0042 5.9 79.0042 5.3C79.0042 4.8 79.1042 4.3 79.4042 4C79.6042 3.7 80.0042 3.5 80.4042 3.5C80.7042 3.5 81.0042 3.6 81.2042 3.8C81.4042 4 81.6042 4.2 81.6042 4.5C81.6042 4.6 81.6042 4.7 81.6042 4.9V5.8C81.6042 6.1 81.4042 6.4 81.2042 6.7ZM91.9042 3.4C91.4042 2.9 90.8042 2.6 90.1042 2.6C89.3042 2.6 88.7042 2.9 88.2042 3.4C87.7042 3.9 87.5042 4.6 87.5042 5.4C87.5042 6.2 87.7042 6.8 88.2042 7.3C88.6042 7.8 89.2042 8 90.0042 8C90.8042 8 91.4042 7.7 91.9042 7.2C92.4042 6.7 92.6042 6 92.6042 5.2C92.6042 4.5 92.3042 3.9 91.9042 3.4ZM91.1042 6.6C90.9042 7 90.5042 7.2 90.1042 7.2C89.7042 7.2 89.3042 7 89.1042 6.6C88.9042 6.3 88.8042 5.9 88.8042 5.4C88.8042 4.9 88.9042 4.5 89.1042 4.2C89.3042 3.8 89.7042 3.6 90.2042 3.6C90.6042 3.6 91.0042 3.8 91.2042 4.2C91.4042 4.5 91.5042 4.9 91.5042 5.4C91.4042 5.8 91.3042 6.2 91.1042 6.6ZM98.7042 4.8C98.7042 4 98.5042 3.5 98.1042 3.1C97.8042 2.8 97.4042 2.6 96.9042 2.6C96.5042 2.6 96.2042 2.7 95.9042 2.9C95.6042 3.1 95.4042 3.3 95.3042 3.5L95.2042 2.7H94.2042C94.2042 3.2 94.2042 3.7 94.2042 4.2V7.9H95.3042V4.8C95.3042 4.5 95.4042 4.2 95.6042 3.9C95.8042 3.6 96.1042 3.5 96.4042 3.5C97.1042 3.5 97.4042 4 97.4042 4.9V7.9H98.5042V4.8H98.7042ZM106.504 3.6V2.7H105.204V1.5L104.104 1.8V2.7H103.304V3.6H104.104V6.2C104.104 6.9 104.204 7.3 104.504 7.6C104.804 7.9 105.104 8 105.604 8C106.004 8 106.304 8 106.504 7.9V7C106.404 7 106.204 7.1 106.004 7.1C105.604 7.1 105.304 6.8 105.304 6.1V3.6H106.504ZM112.604 4.8C112.604 4 112.404 3.5 112.004 3.1C111.704 2.8 111.304 2.6 110.804 2.6C110.104 2.6 109.604 2.9 109.204 3.4V0.4H108.104V7.9H109.204V4.8C109.204 4.6 109.204 4.5 109.304 4.4C109.504 3.9 109.904 3.6 110.404 3.6C111.104 3.6 111.404 4.1 111.404 5V7.9H112.504L112.604 4.8ZM118.404 3.5C118.004 2.9 117.504 2.7 116.704 2.7C115.904 2.7 115.304 3 114.904 3.5C114.504 4 114.304 4.7 114.304 5.4C114.304 6.2 114.504 6.8 115.004 7.3C115.504 7.8 116.104 8 116.904 8C117.604 8 118.104 7.9 118.604 7.7L118.404 6.9C118.004 7.1 117.504 7.1 117.004 7.1C116.504 7.1 116.204 7 115.904 6.7C115.604 6.4 115.404 6 115.404 5.5H118.804C118.804 5.4 118.804 5.2 118.804 5C118.804 4.4 118.704 3.9 118.404 3.5ZM115.304 4.8C115.304 4.5 115.504 4.2 115.604 3.9C115.804 3.6 116.104 3.4 116.504 3.4C116.904 3.4 117.204 3.6 117.404 3.9C117.604 4.1 117.604 4.4 117.604 4.8H115.304Z" fill="#B0BF7A"/>
</svg>
