<svg width="42" height="42" viewBox="0 0 42 42" fill="none" xmlns="http://www.w3.org/2000/svg">
<path d="M21 42C32.598 42 42 32.598 42 21C42 9.40202 32.598 0 21 0C9.40202 0 0 9.40202 0 21C0 32.598 9.40202 42 21 42Z" fill="#F7F7F7"/>
<path d="M8.67402 19.4781L6.39142 15.337L8.67402 11.2607L10.9566 15.337L8.67402 19.4781Z" fill="#D80027"/>
<path d="M4.10877 19.4781L1.82617 15.337L4.10877 11.2607L6.39138 15.337L4.10877 19.4781Z" fill="#D80027"/>
<path d="M8.67402 30.7391L6.39142 26.5979L8.67402 22.5217L10.9566 26.5979L8.67402 30.7391Z" fill="#D80027"/>
<path d="M4.10877 30.7391L1.82617 26.5979L4.10877 22.5217L6.39138 26.5979L4.10877 30.7391Z" fill="#D80027"/>
<path d="M10.9566 4.07613L10.3103 2.92212C9.15122 3.60888 8.06406 4.40401 7.06238 5.29356L8.67396 8.21724L10.9566 4.07613Z" fill="#D80027"/>
<path d="M8.67394 33.7825L7.04529 36.691C8.04607 37.5817 9.13249 38.378 10.2911 39.0662L10.9566 37.8588L8.67394 33.7825Z" fill="#D80027"/>
<path d="M12.7826 26.4783V40.3303C15.3066 41.4047 18.0836 42 21 42C30.0293 42 37.7267 36.3011 40.6938 28.3043L12.7826 26.4783Z" fill="#6DA544"/>
<path d="M40.6938 28.3043C41.538 26.0293 42 23.5687 42 21C42 9.40209 32.5979 0 21 0C18.0839 0 15.3066 0.594973 12.7826 1.66917V28.3044H40.6938V28.3043Z" fill="#D80027"/>
</svg>
