<svg width="15" height="16" viewBox="0 0 15 16" fill="none" xmlns="http://www.w3.org/2000/svg">
<path d="M7.36 0.94C9.38667 0.94 11.0867 1.62 12.46 2.98C13.8467 4.32667 14.54 6.03333 14.54 8.1C14.54 10.1667 13.8467 11.88 12.46 13.24C11.0867 14.5867 9.38667 15.26 7.36 15.26C5.34667 15.26 3.64667 14.58 2.26 13.22C0.873333 11.86 0.18 10.1533 0.18 8.1C0.18 6.04667 0.873333 4.34 2.26 2.98C3.64667 1.62 5.34667 0.94 7.36 0.94ZM11.78 3.64C10.5667 2.45333 9.09333 1.86 7.36 1.86C5.62667 1.86 4.15333 2.46 2.94 3.66C1.72667 4.84667 1.12 6.32667 1.12 8.1C1.12 9.87333 1.72667 11.36 2.94 12.56C4.15333 13.7467 5.62667 14.34 7.36 14.34C9.09333 14.34 10.5667 13.7467 11.78 12.56C12.9933 11.3733 13.6 9.88667 13.6 8.1C13.6 6.31333 12.9933 4.82667 11.78 3.64ZM10.24 11.18L10.36 12.16C9.53333 12.36 8.56667 12.46 7.46 12.46C6.03333 12.46 5.02667 12.1333 4.44 11.48C3.85333 10.8133 3.56 9.67333 3.56 8.06C3.56 6.43333 3.85333 5.29333 4.44 4.64C5.02667 3.97333 6.03333 3.64 7.46 3.64C8.51333 3.64 9.41333 3.73333 10.16 3.92L10 4.88C9.14667 4.84 8.29333 4.82 7.44 4.82C6.48 4.82 5.81333 5.05333 5.44 5.52C5.08 5.98667 4.9 6.83333 4.9 8.06C4.9 9.28667 5.08 10.1333 5.44 10.6C5.81333 11.0667 6.48 11.3 7.44 11.3C8.65333 11.3 9.58667 11.26 10.24 11.18Z" fill="#F17E00"/>
</svg>
