<svg width="42" height="42" viewBox="0 0 42 42" fill="none" xmlns="http://www.w3.org/2000/svg">
<path d="M21 42C32.598 42 42 32.598 42 21C42 9.40202 32.598 0 21 0C9.40202 0 0 9.40202 0 21C0 32.598 9.40202 42 21 42Z" fill="#214391"/>
<path d="M20.9646 3.64478L21.4789 5.22332H23.1373L21.7982 6.18996L22.3125 7.76851L20.9646 6.793L19.6255 7.76851L20.1398 6.18996L18.8007 5.22332H20.4591L20.9646 3.64478Z" fill="#F8D12E"/>
<path d="M20.9646 33.4067L21.4789 34.9852H23.1373L21.7982 35.9607L22.3125 37.5304L20.9646 36.5637L19.6255 37.5304L20.1398 35.9607L18.8007 34.9852H20.4591L20.9646 33.4067Z" fill="#F8D12E"/>
<path d="M29.1322 6.27861L29.6466 7.85716H31.3049L29.9658 8.83266L30.4802 10.4112L29.1322 9.4357L27.7931 10.4112L28.3075 8.83266L26.9683 7.85716H28.6267L29.1322 6.27861Z" fill="#F8D12E"/>
<path d="M34.7103 11.7769L35.2247 13.3555H36.883L35.5351 14.331L36.0494 15.9095L34.7103 14.934L33.3712 15.9095L33.8767 14.331L32.5376 13.3555H34.196L34.7103 11.7769Z" fill="#F8D12E"/>
<path d="M34.8433 25.6735L35.3577 27.252H37.0161L35.6681 28.2187L36.1824 29.7972L34.8433 28.8217L33.5042 29.7972L34.0097 28.2187L32.6706 27.252H34.329L34.8433 25.6735Z" fill="#F8D12E"/>
<path d="M7.43161 11.7769L7.9371 13.3555H9.59546L8.25636 14.331L8.77072 15.9095L7.43161 14.934L6.08364 15.9095L6.598 14.331L5.25889 13.3555H6.91726L7.43161 11.7769Z" fill="#F8D12E"/>
<path d="M35.9962 18.4016L36.5106 19.9801H38.1689L36.8298 20.9556L37.3442 22.5342L35.9962 21.5587L34.6571 22.5342L35.1715 20.9556L33.8323 19.9801H35.4907L35.9962 18.4016Z" fill="#F8D12E"/>
<path d="M6.16344 18.4016L6.66893 19.9801H8.32729L6.98819 20.9556L7.50255 22.5342L6.16344 21.5587L4.81547 22.5342L5.32983 20.9556L3.99072 19.9801H5.64908L6.16344 18.4016Z" fill="#F8D12E"/>
<path d="M7.24539 25.6735L7.75975 27.252H9.41811L8.07901 28.2187L8.5845 29.7972L7.24539 28.8217L5.90629 29.7972L6.42065 28.2187L5.08154 27.252H6.7399L7.24539 25.6735Z" fill="#F8D12E"/>
<path d="M29.3805 31.4024L29.886 32.981H31.5444L30.2053 33.9565L30.7196 35.535L29.3805 34.5595L28.0326 35.535L28.5469 33.9565L27.2078 32.981H28.8662L29.3805 31.4024Z" fill="#F8D12E"/>
<path d="M13.0629 6.27861L13.5773 7.85716H15.2357L13.8966 8.83266L14.402 10.4112L13.0629 9.4357L11.7238 10.4112L12.2382 8.83266L10.8902 7.85716H12.5486L13.0629 6.27861Z" fill="#F8D12E"/>
<path d="M12.4599 31.3048L12.9743 32.8833H14.6326L13.2846 33.8588L13.799 35.4285L12.4599 34.453L11.1208 35.4285L11.6263 33.8588L10.2872 32.8833H11.9455L12.4599 31.3048Z" fill="#F8D12E"/>
</svg>
