<svg width="42" height="42" viewBox="0 0 42 42" fill="none" xmlns="http://www.w3.org/2000/svg">
<path d="M21 0C9.4 0 0 9.4 0 21C0 32.6 9.4 42 21 42C32.6 42 42 32.6 42 21C42 9.4 32.6 0 21 0ZM26.2 21.4C26.2 21.6 26 21.7 25.9 21.7H23.1V31.8C23.1 32 23 32.1 22.8 32.1H18.6C18.4 32.1 18.3 32 18.3 31.8V21.7H15.8C15.6 21.7 15.4 21.5 15.4 21.4V17.7C15.4 17.5 15.5 17.4 15.7 17.4H18.3V14.6C18.2 14.3 18 12.6 19.6 11.2C21 9.9 22.8 9.8 23.3 9.8C23.4 9.8 23.4 9.8 23.4 9.8H26.3C26.5 9.8 26.6 9.9 26.6 10.1V13.5C26.6 13.7 26.5 13.8 26.3 13.8C26.3 13.8 24.3 13.8 24.2 13.8C23.5 13.8 23.1 14.1 23.1 14.9V17.3H26.4C26.5 17.3 26.6 17.4 26.7 17.4C26.8 17.5 26.8 17.6 26.8 17.7L26.2 21.4Z" fill="black"/>
</svg>
