<svg width="13" height="14" viewBox="0 0 13 14" fill="none" xmlns="http://www.w3.org/2000/svg">
<path d="M6.7 7.7V14H11.7V7.7H6.7ZM0.8 7.7V14H5.8V7.7H0.8ZM10.2 2.6C10.3 2.4 10.4 2.1 10.4 1.8C10.4 0.8 9.6 0 8.6 0C7.9 0 7.2 0.4 6.6 1C6.5 1.2 6.4 1.3 6.3 1.5C6.2 1.3 6.1 1.2 5.9 1C5.3 0.4 4.6 0 3.9 0C3 0 2.2 0.8 2.2 1.8C2.2 2.1 2.3 2.4 2.4 2.6H0V6.8H5.8V2.6H6.7V6.8H12.5V2.6H10.2ZM3.9 2.6C3.4 2.6 3.1 2.2 3.1 1.8C3.1 1.4 3.5 1 3.9 1C4.7 1 5.5 1.8 5.7 2.7H3.9V2.6ZM8.7 2.6H6.8C7 1.8 7.8 0.9 8.6 0.9C9.1 0.9 9.4 1.3 9.4 1.7C9.4 2.1 9.1 2.6 8.7 2.6Z" fill="#B0BF7A"/>
</svg>
