<svg width="137" height="32" viewBox="0 0 137 32" fill="none" xmlns="http://www.w3.org/2000/svg">
<path d="M25.9 13.8L20.1 10.5L3 0.7C2.8 0.6 2.6 0.5 2.4 0.5H2.3C2.2 0.4 2 0.3 1.9 0.3H1.8C1.6 0.3 1.5 0.3 1.4 0.3C1.2 0.4 1 0.4 0.9 0.5H0.8C0.7 0.5 0.7 0.6 0.6 0.7L0.5 0.8C0.5 0.8 0.5 0.9 0.4 0.9C0.4 1 0.3 1.1 0.3 1.2C0.3 1.3 0.3 1.3 0.2 1.4C0.2 1.4 0.1 1.6 0.1 1.7C0.1 1.8 0.1 1.8 0.1 1.9C0 2 0 2.2 0 2.4V28.4C0 29.1 0.2 29.7 0.5 30.1L0.6 30.2C1.2 30.7 2 30.7 3 30.2L20.1 20.5L20.2 20.4L26 17.1C26.5 16.8 26.8 16.5 27 16.1C27.1 15.9 27.2 15.7 27.2 15.4C27.2 14.8 26.8 14.2 25.9 13.8ZM114 12.5V27.2H116.2V12.5H114ZM133.8 17.8L131.3 24.2H131.2L128.6 17.8H126.2L130.1 26.7L127.9 31.7H130.2L136.2 17.8H133.8ZM121.6 17.5C120 17.5 118.4 18.2 117.7 19.7L119.6 20.5C120 19.7 120.8 19.4 121.6 19.4C122.7 19.4 123.9 20.1 123.9 21.3V21.4C123.5 21.2 122.7 20.8 121.6 20.8C119.5 20.8 117.4 22 117.4 24.1C117.4 26.1 119.1 27.3 121.1 27.3C122.6 27.3 123.4 26.6 123.9 25.9H124V27H126.1V21.4C126.1 18.9 124.1 17.5 121.6 17.5ZM121.4 25.5C120.7 25.5 119.7 25.1 119.7 24.3C119.7 23.2 120.9 22.7 122 22.7C123 22.7 123.4 22.9 124 23.2C123.8 24.6 122.6 25.5 121.4 25.5ZM108 12.5H102.7V27.2H104.9V21.6H108C110.4 21.6 112.8 19.8 112.8 17C112.8 14.3 110.4 12.5 108 12.5ZM108.1 19.6H105V14.6H108.1C109.7 14.6 110.7 16 110.7 17.1C110.6 18.2 109.7 19.6 108.1 19.6ZM81.8 17.8V18.6H81.7C81.2 18 80.3 17.5 79.1 17.5C76.6 17.5 74.3 19.7 74.3 22.5C74.3 25.3 76.6 27.5 79.1 27.5C80.3 27.5 81.2 27 81.7 26.4H81.8V27.1C81.8 29 80.8 30 79.1 30C77.8 30 76.9 29 76.6 28.2L74.7 29C75.2 30.3 76.7 32 79.1 32C81.7 32 83.9 30.5 83.9 26.8V17.8H81.8ZM79.3 25.5C77.8 25.5 76.5 24.2 76.5 22.5C76.5 20.7 77.8 19.5 79.3 19.5C80.8 19.5 82 20.8 82 22.5C82 24.3 80.8 25.5 79.3 25.5ZM85.4 12.5V27.2H87.6V12.5H85.4ZM93.7 25.5C92.6 25.5 91.8 25 91.3 24L98 21.2L97.8 20.6C97.4 19.5 96.1 17.4 93.5 17.4C90.9 17.4 88.8 19.4 88.8 22.4C88.8 25.2 90.9 27.4 93.8 27.4C96.1 27.4 97.4 26 98 25.2L96.3 24.1C95.6 25 94.8 25.5 93.7 25.5ZM93.5 19.4C94.4 19.4 95.1 19.8 95.4 20.5L90.9 22.4C90.8 20.4 92.4 19.4 93.5 19.4ZM51.6 19H44.4V21.1H49.5C49.3 22.3 48.9 23.2 48.3 23.8C47.6 24.5 46.4 25.4 44.4 25.4C41.3 25.4 38.8 22.9 38.8 19.8C38.8 16.7 41.3 14.1 44.4 14.1C46.1 14.1 47.3 14.8 48.2 15.6L49.7 14.1C48.4 12.9 46.7 12 44.4 12C40.1 12 36.5 15.5 36.5 19.8C36.5 24.1 40.1 27.6 44.4 27.6C46.7 27.6 48.5 26.8 49.8 25.4C51.2 24 51.6 22 51.6 20.4C51.7 19.9 51.6 19.4 51.6 19ZM57.4 17.5C54.6 17.5 52.4 19.6 52.4 22.5C52.4 25.4 54.7 27.5 57.4 27.5C60.2 27.5 62.4 25.4 62.4 22.5C62.5 19.6 60.2 17.5 57.4 17.5ZM57.4 25.5C55.9 25.5 54.6 24.3 54.6 22.5C54.6 20.7 55.9 19.5 57.4 19.5C58.9 19.5 60.2 20.7 60.2 22.5C60.3 24.3 59 25.5 57.4 25.5ZM68.4 17.5C65.6 17.5 63.4 19.6 63.4 22.5C63.4 25.4 65.7 27.5 68.4 27.5C71.2 27.5 73.4 25.4 73.4 22.5C73.4 19.6 71.2 17.5 68.4 17.5ZM68.4 25.5C66.9 25.5 65.6 24.3 65.6 22.5C65.6 20.7 66.9 19.5 68.4 19.5C69.9 19.5 71.2 20.7 71.2 22.5C71.2 24.3 69.9 25.5 68.4 25.5ZM81.7 0.2V4.3V5.7L78.3 0.2H77.2V7.2H78.1V2.8V1.4L81.7 7.2H82.6V0.2H81.7ZM74.8 1.1C74.1 0.4 73.3 0 72.2 0C71.2 0 70.3 0.4 69.6 1.1C68.9 1.8 68.6 2.7 68.6 3.7C68.6 4.7 68.9 5.6 69.6 6.3C70.3 7 71.2 7.4 72.2 7.4C73.2 7.4 74.1 7 74.8 6.3C75.5 5.6 75.8 4.7 75.8 3.7C75.9 2.7 75.5 1.8 74.8 1.1ZM74.2 5.7C73.7 6.2 73 6.5 72.3 6.5C71.5 6.5 70.9 6.2 70.4 5.7C69.9 5.2 69.6 4.5 69.6 3.7C69.6 2.9 69.9 2.2 70.4 1.7C70.9 1.2 71.6 0.9 72.3 0.9C73.1 0.9 73.7 1.2 74.2 1.7C74.7 2.2 75 2.9 75 3.7C75 4.5 74.7 5.2 74.2 5.7ZM60.8 0.2V1H62.8V7.2H63.7V1H65.7V0.2H60.8ZM58.8 0.2V7.2H59.7V0.2H58.8ZM50.4 0.2V1H52.4V7.2H53.3V1H55.3V0.2H50.4ZM49.5 1V0.2H45.4V7.2H49.5V6.3H46.3V4.1H49.2V3.3H46.3V1H49.5ZM44 3.4H40.6V4.3H43.2C43.2 4.9 43 5.4 42.6 5.7C42.1 6.2 41.4 6.5 40.6 6.5C39.9 6.5 39.2 6.2 38.7 5.7C38.1 5.2 37.9 4.5 37.9 3.7C37.9 2.9 38.2 2.2 38.7 1.7C39.2 1.2 39.9 0.9 40.6 0.9C41.4 0.9 42.1 1.2 42.5 1.7L43.1 1.1C42.8 0.8 42.5 0.5 42 0.3C41.6 0.1 41.1 0 40.6 0C39.6 0 38.7 0.3 38 1.1C37.3 1.8 36.9 2.7 36.9 3.7C36.9 4.7 37.3 5.6 38 6.3C38.7 7 39.6 7.4 40.6 7.4C41.7 7.4 42.5 7 43.2 6.4C43.8 5.7 44 5 44 4C44 3.8 44 3.6 44 3.4Z" fill="#B0BF7A"/>
</svg>
