<svg width="42" height="42" viewBox="0 0 42 42" fill="none" xmlns="http://www.w3.org/2000/svg">
<path d="M21 0C9.4 0 0 9.4 0 21C0 32.6 9.4 42 21 42C32.6 42 42 32.6 42 21C42 9.4 32.6 0 21 0ZM30.8 25C30.8 28.2 28.2 30.8 25 30.8H17.1C13.9 30.8 11.3 28.2 11.3 25V17C11.3 13.8 13.9 11.2 17.1 11.2H25C28.2 11.2 30.8 13.8 30.8 17V25ZM25 13.2H17.1C14.9 13.2 13.2 14.9 13.2 17.1V25C13.2 27.1 14.9 28.9 17.1 28.9H25C27.2 28.9 28.9 27.2 28.9 25V17C28.8 14.9 27.1 13.2 25 13.2ZM21 26C18.2 26 15.9 23.8 15.9 21C15.9 18.2 18.1 16 21 16C23.8 16 26 18.2 26 21C26 23.8 23.8 26 21 26ZM26.1 17.2C25.4 17.2 24.9 16.7 24.9 16C24.9 15.3 25.4 14.8 26.1 14.8C26.8 14.8 27.3 15.3 27.3 16C27.3 16.7 26.8 17.2 26.1 17.2ZM21 18C19.3 18 17.9 19.4 17.9 21.1C17.9 22.8 19.3 24.2 21 24.2C22.7 24.2 24.1 22.8 24.1 21.1C24.1 19.3 22.7 18 21 18Z" fill="black"/>
</svg>
