<svg width="42" height="42" viewBox="0 0 42 42" fill="none" xmlns="http://www.w3.org/2000/svg">
<path d="M21 42C32.598 42 42 32.598 42 21C42 9.40202 32.598 0 21 0C9.40202 0 0 9.40202 0 21C0 32.598 9.40202 42 21 42Z" fill="#338AF3"/>
<path d="M32.8697 21.2283H9.13049C9.13049 22.8672 10.5579 24.1957 12.1967 24.1957H12.0979C12.0979 25.8346 13.4264 27.1631 15.0653 27.1631C15.0653 28.802 16.3938 30.1305 18.0327 30.1305H23.9675C25.6064 30.1305 26.9349 28.802 26.9349 27.1631C28.5738 27.1631 29.9023 25.8346 29.9023 24.1957H29.8035C31.4421 24.1957 32.8697 22.8672 32.8697 21.2283Z" fill="#FFDA44"/>
<path d="M29.2174 17.3479C29.2174 21.8862 25.5383 25.5653 21 25.5653C16.4616 25.5653 12.7826 21.8862 12.7826 17.3479" fill="#338AF3"/>
<path d="M27.2766 17.3478L24.7119 18.5542L26.0776 21.0381L23.2926 20.5053L22.9397 23.3187L20.9999 21.2494L19.0601 23.3187L18.7073 20.5053L15.9223 21.0379L17.288 18.5541L14.7233 17.3478L17.288 16.1414L15.9223 13.6576L18.7072 14.1903L19.0602 11.377L20.9999 13.4462L22.9398 11.377L23.2926 14.1903L26.0777 13.6576L24.7119 16.1415L27.2766 17.3478Z" fill="#FFDA44"/>
</svg>
