<svg width="42" height="42" viewBox="0 0 42 42" fill="none" xmlns="http://www.w3.org/2000/svg">
<path d="M21 0C9.4 0 0 9.4 0 21C0 32.6 9.4 42 21 42C32.6 42 42 32.6 42 21C42 9.4 32.6 0 21 0ZM21.1 9.8C24.2 9.8 26.8 12.4 26.8 15.6C26.7 18.6 24.1 21.2 21 21.2C17.9 21.2 15.3 18.6 15.4 15.5C15.4 12.3 18 9.8 21.1 9.8ZM27.4 23.4C26.7 24.1 25.9 24.6 24.9 25C24 25.3 23 25.5 22.1 25.6C22.3 25.8 22.3 25.8 22.4 25.9C23.7 27.2 25 28.5 26.3 29.8C26.7 30.2 26.8 30.8 26.6 31.3C26.3 31.9 25.8 32.3 25.1 32.2C24.7 32.2 24.4 32 24.2 31.8C23.2 30.8 22.2 29.8 21.3 28.9C21 28.6 20.9 28.7 20.6 28.9C19.6 29.9 18.6 30.9 17.6 31.9C17.2 32.3 16.6 32.4 16.1 32.2C15.5 31.9 15.2 31.4 15.2 30.8C15.2 30.4 15.4 30.1 15.6 29.8C16.9 28.5 18.2 27.2 19.4 26C19.6 25.9 19.7 25.8 19.8 25.7C18.1 25.5 16.5 25.1 15.1 24C14.9 23.9 14.8 23.7 14.6 23.6C14 23 13.9 22.4 14.4 21.7C14.8 21.1 15.5 21 16.1 21.3C16.2 21.4 16.4 21.5 16.5 21.5C19 23.2 22.5 23.2 25 21.6C25.2 21.4 25.5 21.3 25.8 21.2C26.4 21 27 21.3 27.3 21.8C27.9 22.3 27.9 22.9 27.4 23.4ZM21.1 18.2C22.6 18.2 23.9 17 23.9 15.4C23.9 13.8 22.7 12.6 21.1 12.6C19.5 12.6 18.3 13.8 18.3 15.4C18.2 17 19.5 18.2 21.1 18.2Z" fill="black"/>
</svg>
