<svg width="42" height="42" viewBox="0 0 42 42" fill="none" xmlns="http://www.w3.org/2000/svg">
<path d="M21 0C9.4 0 0 9.4 0 21C0 32.6 9.4 42 21 42C32.6 42 42 32.6 42 21C42 9.4 32.6 0 21 0ZM29.7 27.7C29.7 28.3 29 28.7 28.5 28.4L21.4 25.3L17.9 30.8L16.8 23.3L11.9 21.2C11.6 21.1 11.4 20.7 11.4 20.4C11.4 20.1 11.6 19.7 11.9 19.6L29.8 11.2C30 11.1 30.1 11.1 30.3 11.2C30.3 11.2 30.3 11.2 30.4 11.2C30.6 11.3 30.7 11.5 30.6 11.7L29.7 27.7ZM18 28.7L19 24.4V24.3L19.1 24.2L26.7 15.1L17.2 23.5L18 28.7Z" fill="black"/>
</svg>
