<svg width="42" height="42" viewBox="0 0 42 42" fill="none" xmlns="http://www.w3.org/2000/svg">
<path d="M21 0C9.4 0 0 9.4 0 21C0 32.6 9.4 42 21 42C32.6 42 42 32.6 42 21C42 9.4 32.6 0 21 0ZM29.2 17.3C29.2 17.5 29.2 17.6 29.2 17.8C29.2 24.1 24.1 29.3 17.7 29.3C15.5 29.3 13.3 28.6 11.6 27.5C12 27.6 12.3 27.6 12.7 27.6C15.6 27.6 17.6 25.8 17.6 25.8C14.5 25.6 13.9 23 13.9 23C15 23.2 15.7 22.9 15.7 22.9C12.2 22.1 12.5 18.9 12.5 18.9C13.3 19.4 14.2 19.4 14.2 19.4C11 16.7 13 14.1 13 14.1C16.2 18 20.9 18.3 21.3 18.3C21.2 18 21.2 17.7 21.2 17.4C21.2 15.2 23 13.4 25.2 13.4C26.4 13.4 27.4 13.9 28.1 14.7C28.3 14.6 28.5 14.6 28.7 14.5C29.9 14.1 30.7 13.7 30.7 13.7C30.5 14.9 29.1 15.9 28.9 15.9C30 15.8 31 15.4 31.2 15.3C30.8 16 29.4 17.2 29.2 17.3Z" fill="black"/>
</svg>
