<svg width="42" height="42" viewBox="0 0 42 42" fill="none" xmlns="http://www.w3.org/2000/svg">
<path d="M21 0C9.4 0 0 9.4 0 21C0 32.6 9.4 42 21 42C32.6 42 42 32.6 42 21C42 9.4 32.6 0 21 0ZM31.6 27.4H28.3C27.4 27.5 26.8 27.1 26.2 26.5C25.8 26 25.3 25.5 24.9 25.1C24.7 24.9 24.5 24.7 24.3 24.6C23.9 24.3 23.5 24.4 23.2 24.9C22.9 25.4 22.9 25.9 22.9 26.4C22.9 27.2 22.6 27.4 21.9 27.4C20.3 27.5 18.7 27.2 17.2 26.4C15.9 25.7 14.9 24.6 14.1 23.5C12.4 21.2 11.1 18.7 10 16.1C9.7 15.5 9.9 15.2 10.6 15.2C11.7 15.2 12.7 15.2 13.8 15.2C14.2 15.2 14.5 15.5 14.7 15.9C15.3 17.3 16 18.7 16.9 19.9C17.1 20.2 17.4 20.6 17.7 20.8C18.1 21.1 18.4 21 18.6 20.5C18.7 20.2 18.8 19.9 18.8 19.6C18.9 18.6 18.9 17.6 18.7 16.7C18.6 16.1 18.3 15.7 17.7 15.6C17.4 15.5 17.4 15.4 17.6 15.3C17.9 15 18.1 14.8 18.6 14.8H22.3C22.9 14.9 23 15.2 23.1 15.8V19.9C23.1 20.1 23.2 20.8 23.6 20.9C23.9 21 24.1 20.7 24.3 20.6C25.2 19.6 25.8 18.5 26.4 17.4C26.7 16.9 26.9 16.4 27.1 15.8C27.3 15.4 27.5 15.2 27.9 15.2H31.5C31.6 15.2 31.7 15.2 31.8 15.2C32.4 15.3 32.6 15.5 32.4 16.2C32.1 17.1 31.5 17.9 31 18.6C30.4 19.4 29.8 20.2 29.2 21C28.7 21.8 28.8 22.1 29.4 22.8C30.1 23.5 30.9 24.2 31.6 25C31.9 25.3 32.2 25.7 32.4 26.1C32.4 26.7 32.1 27.3 31.6 27.4Z" fill="black"/>
</svg>
