<svg width="42" height="42" viewBox="0 0 42 42" fill="none" xmlns="http://www.w3.org/2000/svg">
<path d="M18.7 17.6L25.1 21.4L18.7 25V17.6ZM42 21C42 32.6 32.6 42 21 42C9.4 42 0 32.6 0 21C0 9.4 9.4 0 21 0C32.6 0 42 9.4 42 21ZM30.8 20.3C30.8 18.6 30.6 16.8 30.6 16.8C30.6 16.8 30.4 15.3 29.8 14.7C29.1 13.9 28.2 13.9 27.8 13.8C25.1 13.6 20.9 13.6 20.9 13.6C20.9 13.6 16.8 13.6 14 13.8C13.6 13.8 12.8 13.9 12 14.7C11.4 15.3 11.2 16.8 11.2 16.8C11.2 16.8 11 18.5 11 20.3V21.9C11 23.6 11.2 25.3 11.2 25.3C11.2 25.3 11.4 26.8 12 27.4C12.8 28.3 13.7 28.2 14.2 28.3C15.8 28.5 20.9 28.5 20.9 28.5C20.9 28.5 25 28.5 27.8 28.3C28.2 28.3 29 28.2 29.8 27.4C30.4 26.8 30.6 25.3 30.6 25.3C30.6 25.3 30.8 23.6 30.8 21.9V20.3Z" fill="black"/>
</svg>
