<svg width="16" height="16" viewBox="0 0 16 16" fill="none" xmlns="http://www.w3.org/2000/svg">
<path d="M8 0.940625C11.8906 0.940625 15.0594 4.10625 15.0594 8C15.0594 11.8906 11.8938 15.0594 8 15.0594C4.10938 15.0594 0.940625 11.8906 0.940625 8C0.940625 4.10938 4.10938 0.940625 8 0.940625ZM8 0C3.58125 0 0 3.58125 0 8C0 12.4187 3.58125 16 8 16C12.4187 16 16 12.4187 16 8C16 3.58125 12.4187 0 8 0Z" fill="#F17E00"/>
<path d="M7.35313 11.275C7.35313 10.7875 7.56875 10.5437 7.99687 10.5437C8.20312 10.5437 8.36562 10.6062 8.47812 10.7312C8.59062 10.8562 8.64688 11.0375 8.64688 11.2719C8.64688 11.5 8.59063 11.6781 8.475 11.8062C8.35938 11.9344 8.2 11.9969 7.99687 11.9969C7.8125 11.9969 7.65625 11.9406 7.53438 11.8281C7.41563 11.7188 7.35313 11.5344 7.35313 11.275ZM8.2875 9.68125H7.725L7.45 4H8.55937L8.2875 9.68125Z" fill="#F17E00"/>
</svg>
