<svg width="16" height="16" viewBox="0 0 16 16" fill="none" xmlns="http://www.w3.org/2000/svg">
<path d="M8 0.940625C11.8906 0.940625 15.0594 4.10625 15.0594 8C15.0594 11.8938 11.8906 15.0594 8 15.0594C4.10938 15.0594 0.940625 11.8906 0.940625 8C0.940625 4.10938 4.10938 0.940625 8 0.940625ZM8 0C3.58125 0 0 3.58125 0 8C0 12.4187 3.58125 16 8 16C12.4187 16 16 12.4187 16 8C16 3.58125 12.4187 0 8 0Z" fill="#50CE1B"/>
<path d="M9.14375 6.04375L7.64062 11.3625C7.54063 11.7219 7.4875 11.9375 7.4875 12.0063C7.4875 12.0875 7.5125 12.1531 7.55937 12.2031C7.60625 12.2531 7.66562 12.2781 7.73125 12.2781C7.80625 12.2781 7.89688 12.2375 8.00313 12.1562C8.29063 11.9281 8.58125 11.6031 8.875 11.1844L9.14062 11.3594C8.79688 11.8844 8.39062 12.3281 7.925 12.6875C7.58125 12.9563 7.25313 13.0906 6.9375 13.0906C6.73125 13.0906 6.55937 13.0281 6.42812 12.9062C6.29688 12.7812 6.23125 12.6281 6.23125 12.4406C6.23125 12.2531 6.29375 11.9406 6.42188 11.5063L7.40938 8.10625C7.57188 7.55 7.65312 7.2 7.65312 7.05937C7.65312 6.94687 7.6125 6.85625 7.53438 6.7875C7.45625 6.71875 7.35 6.68125 7.2125 6.68125C7.1 6.68125 6.87187 6.70937 6.52187 6.76562V6.46875L9.14375 6.04375ZM9.04375 3.03125C9.25625 3.03125 9.43437 3.10625 9.58125 3.25C9.72813 3.39687 9.8 3.575 9.8 3.7875C9.8 3.99375 9.725 4.17188 9.575 4.32188C9.425 4.47188 9.24687 4.54688 9.04062 4.54688C8.83437 4.54688 8.65625 4.47188 8.50625 4.32188C8.35625 4.17188 8.28125 3.99375 8.28125 3.7875C8.28125 3.575 8.35312 3.39375 8.5 3.25C8.65312 3.10625 8.83125 3.03125 9.04375 3.03125Z" fill="#50CE1B"/>
</svg>
