<svg width="20" height="20" viewBox="0 0 20 20" fill="none" xmlns="http://www.w3.org/2000/svg">
<path d="M7.22656 11.0586C7.22656 10.8008 7.01953 10.5938 6.76172 10.5938H5.14062C4.88281 10.5938 4.67578 10.8008 4.67578 11.0586V12.6797C4.67578 12.9375 4.88281 13.1445 5.14062 13.1445H6.76172C7.01953 13.1445 7.22656 12.9375 7.22656 12.6797V11.0586ZM11.2734 11.0586C11.2734 10.8008 11.0664 10.5938 10.8086 10.5938H9.1875C8.92969 10.5938 8.72266 10.8008 8.72266 11.0586V12.6797C8.72266 12.9375 8.92969 13.1445 9.1875 13.1445H10.8086C11.0664 13.1445 11.2734 12.9375 11.2734 12.6797V11.0586ZM15.3242 11.0586C15.3242 10.8008 15.1172 10.5938 14.8594 10.5938H13.2383C12.9805 10.5938 12.7734 10.8008 12.7734 11.0586V12.6797C12.7734 12.9375 12.9805 13.1445 13.2383 13.1445H14.8594C15.1172 13.1445 15.3242 12.9375 15.3242 12.6797V11.0586ZM7.22656 15.1055C7.22656 14.8477 7.01953 14.6406 6.76172 14.6406H5.14062C4.88281 14.6406 4.67578 14.8477 4.67578 15.1055V16.7266C4.67578 16.9844 4.88281 17.1914 5.14062 17.1914H6.76172C7.01953 17.1914 7.22656 16.9844 7.22656 16.7266V15.1055ZM11.2734 15.1055C11.2734 14.8477 11.0664 14.6406 10.8086 14.6406H9.1875C8.92969 14.6406 8.72266 14.8477 8.72266 15.1055V16.7266C8.72266 16.9844 8.92969 17.1914 9.1875 17.1914H10.8086C11.0664 17.1914 11.2734 16.9844 11.2734 16.7266V15.1055ZM15.3242 15.1055C15.3242 14.8477 15.1172 14.6406 14.8594 14.6406H13.2383C12.9805 14.6406 12.7734 14.8477 12.7734 15.1055V16.7266C12.7734 16.9844 12.9805 17.1914 13.2383 17.1914H14.8594C15.1172 17.1914 15.3242 16.9844 15.3242 16.7266V15.1055ZM18.2188 2.05078V4.52344C18.2188 5.64063 17.3125 6.54297 16.1953 6.54297H14.918C13.8008 6.54297 12.8789 5.64063 12.8789 4.52344V2.04297H7.12109V4.52734C7.12109 5.64453 6.20313 6.54688 5.08203 6.54688H3.80469C2.6875 6.54688 1.78125 5.64453 1.78125 4.52734V2.05078C0.804687 2.08203 0 2.89063 0 3.88281V18.3828C0 19.3945 0.820313 20.2266 1.83203 20.2266H18.1641C19.1758 20.2266 19.9961 19.3945 19.9961 18.3828V3.88281C20 2.89063 19.1953 2.08203 18.2188 2.05078ZM17.625 17.4805C17.625 17.918 17.2695 18.2734 16.832 18.2734H3.13281C2.69531 18.2734 2.33984 17.918 2.33984 17.4805V9.98828C2.33984 9.55078 2.69531 9.19531 3.13281 9.19531H16.8359C17.2734 9.19531 17.6289 9.55078 17.6289 9.98828L17.625 17.4805ZM3.80078 5.21875H5.06641C5.44922 5.21875 5.76172 4.90625 5.76172 4.52344V0.46875C5.76172 0.0859375 5.44922 -0.226562 5.06641 -0.226562H3.80078C3.41797 -0.226562 3.10547 0.0859375 3.10547 0.46875V4.52344C3.10547 4.90625 3.41797 5.21875 3.80078 5.21875ZM14.9023 5.21875H16.168C16.5508 5.21875 16.8633 4.90625 16.8633 4.52344V0.46875C16.8633 0.0859375 16.5508 -0.226562 16.168 -0.226562H14.9023C14.5195 -0.226562 14.207 0.0859375 14.207 0.46875V4.52344C14.207 4.90625 14.5156 5.21875 14.9023 5.21875Z" fill="#F17E00"/>
</svg>
