<svg width="12" height="9" viewBox="0 0 12 9" fill="none" xmlns="http://www.w3.org/2000/svg">
<path d="M2.32285 4.49218H0.567383C0.243945 4.49218 -0.0185547 4.75468 -0.0185547 5.07811V7.71014C-0.0185547 8.03358 0.243945 8.29608 0.567383 8.29608H2.32285C2.64629 8.29608 2.90879 8.03358 2.90879 7.71014V5.07811C2.90645 4.75468 2.64629 4.49218 2.32285 4.49218ZM6.85801 2.44374H5.10254C4.7791 2.44374 4.5166 2.70624 4.5166 3.02968V7.71014C4.5166 8.03358 4.7791 8.29608 5.10254 8.29608H6.85801C7.18144 8.29608 7.44394 8.03358 7.44394 7.71014V3.02968C7.44394 2.70624 7.18144 2.44374 6.85801 2.44374ZM11.3955 0.104675H9.64004C9.3166 0.104675 9.0541 0.367175 9.0541 0.690613V7.71249C9.0541 8.03592 9.3166 8.29842 9.64004 8.29842H11.3955C11.7189 8.29842 11.9814 8.03592 11.9814 7.71249V0.688269C11.9814 0.367175 11.7189 0.104675 11.3955 0.104675Z" fill="#F17E00"/>
</svg>
