<svg width="24" height="24" viewBox="0 0 24 24" fill="none" xmlns="http://www.w3.org/2000/svg">
<g clip-path="url(#clip0)">
<path d="M12 24C18.6274 24 24 18.6274 24 12C24 5.37258 18.6274 0 12 0C5.37258 0 0 5.37258 0 12C0 18.6274 5.37258 24 12 24Z" fill="#47B0D3"/>
<path d="M16.7999 5.76001L5.27993 11.16C5.03993 11.28 4.91992 11.4 4.91992 11.64C4.91992 11.88 5.03993 12.12 5.27993 12.12L8.39992 13.44L17.1599 5.64001C17.0399 5.76001 16.9199 5.76001 16.7999 5.76001Z" fill="white"/>
<path d="M17.0404 5.76001L8.40039 13.56L9.12039 18.36L10.0804 14.28L17.0404 5.76001Z" fill="#CCCCCC"/>
<path d="M10.0791 14.28L9.11914 18.36L11.2791 14.88L10.0791 14.28Z" fill="#E5E5E5"/>
<path d="M17.1601 5.88004C17.1601 5.76004 17.1601 5.76004 17.1601 5.88004L10.0801 14.4L11.4001 15L15.9601 17.04C16.3201 17.16 16.6801 16.92 16.8001 16.56L17.4001 6.36004C17.2801 6.00004 17.2801 5.88004 17.1601 5.88004Z" fill="white"/>
</g>
<defs>
<clipPath id="clip0">
<rect width="24" height="24" fill="white"/>
</clipPath>
</defs>
</svg>
