<svg width="24" height="24" viewBox="0 0 24 24" fill="none" xmlns="http://www.w3.org/2000/svg">
<g clip-path="url(#clip0)">
<path d="M12 0C5.4 0 0 5.4 0 12C0 18.6 5.4 24 12 24C18.6 24 24 18.6 24 12C24 5.4 18.6 0 12 0ZM18.36 15.84H16.44C15.96 15.84 15.48 15.72 15.12 15.36C14.88 15.12 14.64 14.76 14.28 14.52C14.16 14.4 14.04 14.28 13.92 14.16C13.68 14.04 13.44 14.04 13.32 14.28C13.2 14.52 13.08 14.88 13.08 15.24C13.08 15.72 12.96 15.84 12.48 15.84C11.52 15.84 10.56 15.72 9.72 15.24C9 14.76 8.4 14.16 7.8 13.44C6.72 12.12 6 10.56 5.28 9C5.16 8.64 5.28 8.4 5.64 8.4C6.24 8.4 6.96 8.4 7.56 8.4C7.8 8.4 8.04 8.52 8.04 8.76C8.4 9.6 8.76 10.44 9.36 11.16C9.6 11.4 9.72 11.64 9.96 11.76C10.2 12 10.32 11.88 10.44 11.64C10.56 11.52 10.56 11.28 10.56 11.16C10.56 10.56 10.56 9.96 10.56 9.36C10.56 9 10.32 8.76 9.96 8.64C9.72 8.64 9.84 8.52 9.84 8.4C9.96 8.16 10.2 8.04 10.44 8.04H12.6C12.96 8.16 13.08 8.28 13.08 8.64V11.16C13.08 11.28 13.2 11.64 13.44 11.76C13.68 11.76 13.8 11.64 13.92 11.52C14.4 10.92 14.88 10.32 15.24 9.6C15.36 9.24 15.48 9 15.6 8.64C15.6 8.52 15.72 8.4 16.08 8.4H18.24C18.24 8.4 18.36 8.4 18.48 8.4C18.84 8.4 18.96 8.64 18.84 9C18.72 9.6 18.36 9.96 18 10.44C17.52 10.92 17.04 11.4 16.8 12C16.56 12.48 16.56 12.72 16.92 13.08C17.4 13.56 17.88 13.92 18.24 14.4C18.36 14.64 18.6 14.88 18.72 15.12C18.84 15.36 18.72 15.84 18.36 15.84Z" fill="#436EAB"/>
</g>
<defs>
<clipPath id="clip0">
<rect width="24" height="24" fill="white"/>
</clipPath>
</defs>
</svg>
