<svg width="24" height="24" viewBox="0 0 24 24" fill="none" xmlns="http://www.w3.org/2000/svg">
<g clip-path="url(#clip0)">
<path d="M12 6C8.76 6 6 8.64 6 12C6 13.2 6.36 14.28 6.96 15.24L7.08 15.48L6.48 17.52L8.64 16.92L8.88 17.04C9.84 17.64 10.92 18 12 18C15.24 18 18 15.36 18 12C18 8.64 15.36 6 12 6ZM15.6 14.16C15.48 14.52 15.24 14.88 15 15.12C14.52 15.36 14.04 15.48 13.32 15.36C11.16 14.76 9.96 13.32 9.24 12.36C8.52 11.4 8.28 10.56 8.4 9.84C8.52 9.36 8.88 9 9.12 8.76C9.24 8.64 9.36 8.64 9.48 8.64H9.96C10.08 8.64 10.08 8.64 10.2 8.76L10.92 10.32C10.92 10.44 10.92 10.56 10.92 10.56L10.32 11.28C10.32 11.28 10.32 11.4 10.32 11.52C11.04 12.96 12.48 13.56 12.96 13.8C13.08 13.8 13.08 13.8 13.2 13.68L13.8 12.84C13.92 12.72 14.04 12.72 14.04 12.72L15.6 13.44C15.72 13.44 15.72 13.56 15.72 13.68L15.6 14.16ZM12 0C5.4 0 0 5.4 0 12C0 18.6 5.4 24 12 24C18.6 24 24 18.6 24 12C24 5.4 18.6 0 12 0ZM12 19.2C10.8 19.2 9.6 18.84 8.52 18.24L4.8 19.2L5.76 15.6C5.16 14.52 4.8 13.2 4.8 12C4.8 8.04 8.04 4.8 12 4.8C15.96 4.8 19.2 8.04 19.2 12C19.2 15.96 15.96 19.2 12 19.2Z" fill="#1BD741"/>
</g>
<defs>
<clipPath id="clip0">
<rect width="24" height="24" fill="white"/>
</clipPath>
</defs>
</svg>
