<svg width="16" height="16" viewBox="0 0 16 16" fill="none" xmlns="http://www.w3.org/2000/svg">
<path d="M8.49667 0C4.3065 0 0.895899 3.4106 0.895899 7.60077C0.895899 8.96501 1.28568 10.2318 1.87036 11.4012L0.895899 11.2063C0.506116 11.1088 0.116332 11.4012 0.0188864 11.7909C-0.0785594 12.1807 0.213778 12.5705 0.603561 12.668L4.11161 13.2526L4.89118 9.74458C4.98862 9.3548 4.69629 8.96501 4.3065 8.86757C3.91672 8.77012 3.52694 9.06246 3.42949 9.45224L3.2346 10.6216C2.64992 9.74458 2.35759 8.67268 2.35759 7.50333C2.35759 4.19017 5.08607 1.46169 8.39923 1.46169C11.7124 1.46169 14.4409 4.19017 14.4409 7.50333C14.4409 10.8165 11.8098 13.6424 8.49667 13.6424C8.10689 13.6424 7.71711 13.9348 7.71711 14.422C7.71711 14.9092 8.00944 15.2015 8.49667 15.2015C12.6868 15.2015 16 11.7909 16 7.60077C16 3.4106 12.5894 0 8.49667 0Z" fill="white"/>
</svg>
