<svg width="6" height="6" viewBox="0 0 6 6" fill="none" xmlns="http://www.w3.org/2000/svg">
<path d="M5.9121 0.0879739C5.7948 -0.0293246 5.6052 -0.0293246 5.48791 0.0879739L3.00004 2.57584L0.512169 0.0879739C0.39487 -0.0293246 0.205272 -0.0293246 0.0879739 0.0879739C-0.0293246 0.205272 -0.0293246 0.39487 0.0879739 0.512169L2.57584 3.00004L0.0879739 5.48791C-0.0293246 5.6052 -0.0293246 5.7948 0.0879739 5.9121C0.146473 5.9706 0.223272 6 0.300071 6C0.376871 6 0.45367 5.9706 0.512169 5.9121L3.00004 3.42423L5.48791 5.9121C5.54641 5.9706 5.6232 6 5.7 6C5.7768 6 5.8536 5.9706 5.9121 5.9121C6.0294 5.7948 6.0294 5.6052 5.9121 5.48791L3.42423 3.00004L5.9121 0.512169C6.0294 0.39487 6.0294 0.205272 5.9121 0.0879739Z" fill="#F17E00"/>
</svg>
