<svg width="24" height="20" viewBox="0 0 24 20" fill="none" xmlns="http://www.w3.org/2000/svg">
<path d="M23.6197 0.534851H0.380252C0.170277 0.534851 0 0.705052 0 0.915103V19.0849C0 19.295 0.170277 19.4652 0.380252 19.4652H23.6197C23.8299 19.4652 24 19.295 24 19.0849V0.915103C24 0.705052 23.8299 0.534851 23.6197 0.534851ZM21.7185 16.4336L16.4888 11.0177C16.431 10.958 16.3365 10.9541 16.2741 11.009L12.6469 14.2016L8.0107 8.49315C7.98058 8.45588 7.93655 8.43459 7.88674 8.43565C7.83875 8.43664 7.79396 8.45969 7.76528 8.49817L2.28151 15.8564V2.81636H21.7185V16.4336Z" fill="#F17E00"/>
<path d="M15.9748 8.30906C17.0044 8.30906 17.8402 7.47387 17.8402 6.44346C17.8402 5.41336 17.0044 4.57772 15.9748 4.57772C14.9444 4.57772 14.1094 5.41336 14.1094 6.44346C14.1094 7.4738 14.9445 8.30906 15.9748 8.30906Z" fill="#F17E00"/>
</svg>
