<svg width="50" height="50" viewBox="0 0 50 50" fill="none" xmlns="http://www.w3.org/2000/svg">
<path d="M28.4889 38.1836H21.5111L22.9759 41.1133H27.0241L28.4889 38.1836Z" fill="#F17E00"/>
<path d="M18.235 38.1836H3.25127L6.17981 50H43.8202L46.7487 38.1836H31.765L28.8353 44.043H21.1647L18.235 38.1836Z" fill="#F17E00"/>
<path d="M14.716 10.0079C14.716 11.6787 15.5457 13.2294 16.9361 14.1563L18.5612 11.7188C17.979 11.3312 17.6456 10.7075 17.6456 10.0079C17.6456 9.30824 17.979 8.68454 18.5612 8.29697C19.9516 7.36999 20.7813 5.81932 20.7813 4.14848C20.7813 2.47765 19.9516 0.926971 18.5612 0L16.9361 2.43759C17.5182 2.82516 17.8516 3.44887 17.8516 4.14848C17.8516 4.8481 17.5182 5.4718 16.9361 5.85938C15.5457 6.78635 14.716 8.33702 14.716 10.0079Z" fill="#F17E00"/>
<path d="M22.0402 10.0079C22.0402 11.6787 22.8699 13.2294 24.2603 14.1563L25.8854 11.7188C25.3033 11.3312 24.9699 10.7075 24.9699 10.0079C24.9699 9.30824 25.3033 8.68454 25.8854 8.29697C27.2758 7.36999 28.1055 5.81932 28.1055 4.14848C28.1055 2.47765 27.2758 0.926971 25.8854 0L24.2603 2.43759C24.8425 2.82516 25.1759 3.44887 25.1759 4.14848C25.1759 4.8481 24.8425 5.4718 24.2603 5.85938C22.8699 6.78635 22.0402 8.33702 22.0402 10.0079Z" fill="#F17E00"/>
<path d="M29.3644 10.0079C29.3644 11.6787 30.1941 13.2294 31.5845 14.1563L33.2096 11.7188C32.6275 11.3312 32.2941 10.7075 32.2941 10.0079C32.2941 9.30824 32.6275 8.68454 33.2096 8.29697C34.6001 7.36999 35.4298 5.81932 35.4298 4.14848C35.4298 2.47765 34.6001 0.926971 33.2096 0L31.5845 2.43759C32.1667 2.82516 32.5001 3.44887 32.5001 4.14848C32.5001 4.8481 32.1667 5.4718 31.5845 5.85938C30.1941 6.78635 29.3644 8.33702 29.3644 10.0079Z" fill="#F17E00"/>
<path d="M0 29.3945H50V35.2539H0V29.3945Z" fill="#F17E00"/>
<path d="M4.47769 26.4648H45.5223L42.2264 17.5781H7.77359L4.47769 26.4648Z" fill="#F17E00"/>
</svg>
