<svg width="40" height="50" viewBox="0 0 40 50" fill="none" xmlns="http://www.w3.org/2000/svg">
<path d="M36.4062 41.0156V5.46875C36.4062 2.45117 33.9551 0 30.9375 0H9.0625C6.04492 0 3.59375 2.45117 3.59375 5.46875V41.0156H0.859375V43.75H11.1426C8.93555 40.0293 7.82227 36.7773 7.82227 34.0527C7.82227 30.498 9.35547 27.2852 11.7969 25.0586C11.9629 24.9023 12.1387 24.7559 12.3145 24.6094C14.4141 22.9004 17.0898 21.875 20 21.875C22.9102 21.875 25.5859 22.9004 27.6855 24.6094C27.8613 24.7559 28.0371 24.9023 28.2031 25.0586C30.6445 27.2852 32.1777 30.498 32.1777 34.0527C32.1777 36.7773 31.0645 40.0293 28.8574 43.75H39.1406V41.0156H36.4062ZM17.2656 21.875H11.7969V16.4062H17.2656V21.875ZM17.2656 13.6719H11.7969V8.20312H17.2656V13.6719ZM28.2031 21.875H22.7344V16.4062H28.2031V21.875ZM28.2031 13.6719H22.7344V8.20312H28.2031V13.6719ZM28.1348 30.0781C27.0508 27.8809 25.1074 26.1719 22.7344 25.4199C21.875 25.1465 20.957 25 20 25C19.043 25 18.125 25.1465 17.2656 25.4199C14.9023 26.1719 12.9492 27.8711 11.8652 30.0781C11.2793 31.2793 10.9473 32.627 10.9473 34.0527C10.9473 37.041 12.832 40.7129 14.834 43.75C16.9727 47.002 19.2188 49.5312 19.4043 49.7266C19.5703 49.9023 19.7852 50 20.0098 50C20.2344 50 20.4492 49.9121 20.6152 49.7266C20.791 49.5312 23.0469 47.002 25.1855 43.75C27.1777 40.7129 29.0723 37.041 29.0723 34.0527C29.0527 32.627 28.7207 31.2793 28.1348 30.0781ZM20 29.502C22.0801 29.502 23.8379 30.9082 24.3848 32.8125C24.4922 33.2031 24.5605 33.623 24.5605 34.0527C24.5605 36.5625 22.5195 38.6133 20 38.6133C17.4805 38.6133 15.4395 36.5723 15.4395 34.0527C15.4395 33.623 15.498 33.2031 15.6152 32.8125C16.1621 30.8984 17.9199 29.502 20 29.502Z" fill="#F17E00"/>
</svg>
