<svg width="50" height="50" viewBox="0 0 50 50" fill="none" xmlns="http://www.w3.org/2000/svg">
<path d="M33.7988 17.9102C32.1289 17.9102 30.791 18.8281 28.9355 20.2637V29.2773C30.4687 29.6973 32.041 29.8633 33.4082 29.834C36.4746 29.8047 37.6172 28.3008 37.6562 23.7891C37.6172 19.4141 36.8652 17.9102 33.7988 17.9102Z" fill="#F17E00"/>
<path d="M46.3379 0H3.66211C1.64062 0 0 1.64062 0 3.66211V46.3477C0 48.3594 1.64062 50 3.66211 50H46.3477C48.3691 50 50.0098 48.3594 50.0098 46.3379V3.66211C50 1.64062 48.3594 0 46.3379 0ZM9.47266 23.8281C9.47266 17.6855 11.5332 15.498 17.0508 15.498C18.457 15.498 20.6055 15.6641 22.1777 16.25L21.8164 18.0469C20.3809 17.9199 18.6133 17.8516 17.5098 17.8516C13.7207 17.8516 12.4121 19.1895 12.4121 23.8281C12.4121 28.4961 13.7207 29.834 17.5098 29.834C18.457 29.834 20.5469 29.7656 22.1777 29.5117L22.4707 31.377C20.8691 31.9336 18.877 32.1973 17.0215 32.1973C11.5332 32.1875 9.47266 29.9609 9.47266 23.8281ZM24.1895 42.3633C19.8438 42.3633 15.752 40.6641 12.6758 37.5879L14.5117 35.752C17.0996 38.3398 20.5371 39.7656 24.1895 39.7656C27.8418 39.7656 31.2793 38.3398 33.8672 35.752L35.7031 37.5879C32.6172 40.6738 28.5352 42.3633 24.1895 42.3633ZM33.4766 32.1875C31.2598 32.1875 28.2812 31.7969 26.1621 31.0449V8.93555H28.9355V14.8828C28.9355 16.2207 28.9062 17.2949 28.6426 18.4082C30.5371 16.4844 32.627 15.498 34.7852 15.498C38.7012 15.498 40.5371 17.8125 40.5371 23.7891C40.5273 29.248 38.9258 32.1875 33.4766 32.1875Z" fill="#F17E00"/>
</svg>
