<svg width="44" height="50" viewBox="0 0 44 50" fill="none" xmlns="http://www.w3.org/2000/svg">
<path d="M0.710709 30.6348C1.89235 24.9316 6.23805 20.2832 6.60915 14.5898C8.25954 17.5879 8.45485 19.7559 8.6404 22.8906C13.8845 16.4648 19.324 7.86133 18.1521 0C18.1521 0 28.0935 3.125 32.117 18.3691C34.49 16.2598 34.2654 11.9043 33.0935 9.32617C36.6189 11.9043 56.8826 34.7363 29.9099 50C34.9783 40.127 31.2185 26.8066 22.4099 20.6543C22.9959 23.3008 22.2634 30.2051 18.367 34.541C19.2459 30.0586 17.0486 27.1875 17.0486 27.1875C17.0486 27.1875 16.3259 31.25 13.5232 35.3418C10.9646 39.082 9.18727 43.0566 12.5173 49.9902C1.90211 44.0234 -0.890853 38.3594 0.710709 30.6348ZM19.822 41.0059L14.949 41.7188L18.4744 45.1562L17.6443 50.0098L21.9998 47.7148L26.3552 50.0098L25.5252 45.1562L29.0506 41.7188L24.1775 41.0059L21.9998 36.582L19.822 41.0059Z" fill="#F17E00"/>
</svg>
