<svg width="30" height="50" viewBox="0 0 30 50" fill="none" xmlns="http://www.w3.org/2000/svg">
<path d="M2.75415 0C3.8772 0 4.79517 0.917969 4.79517 2.04102V22.4512H8.8772V2.04102C8.8772 0.917969 9.79517 0 10.9182 0C12.0413 0 12.9592 0.917969 12.9592 2.04102V22.4512H17.0413V2.04102C17.0413 0.917969 17.9592 0 19.0823 0C20.2053 0 21.1233 0.917969 21.1233 2.04102V22.4512H25.2053V2.04102C25.2053 0.917969 26.1233 0 27.2463 0C28.3694 0 29.2874 0.917969 29.2874 2.04102V26.5332C29.2874 31.4648 25.7815 35.5859 21.1233 36.5332V50H17.0413V34.6973V32.666H19.053C19.0627 32.666 19.0725 32.666 19.0823 32.666C22.4612 32.666 25.2053 29.9219 25.2053 26.543H4.79517C4.79517 29.9219 7.53931 32.666 10.9182 32.666C10.928 32.666 10.9377 32.666 10.9475 32.666H12.9592V50H8.8772V36.5332C4.21899 35.5859 0.713139 31.4746 0.713139 26.5332V2.04102C0.713139 0.917969 1.6311 0 2.75415 0Z" fill="#50CE1B"/>
</svg>
