<svg width="70" height="70" viewBox="0 0 70 70" fill="none" xmlns="http://www.w3.org/2000/svg">
<g clip-path="url(#clip0)">
<path d="M66.4453 14.2187H57.7637C58.9121 12.7422 59.6094 10.8828 59.6094 8.88672C59.6094 4.06055 55.6445 0.136719 50.7637 0.136719C44.1602 0.136719 38.1035 5.4414 34.9727 11.4023C31.8145 5.4414 25.7578 0.123047 19.1543 0.123047C14.2734 0.123047 10.3086 4.04687 10.3086 8.87304C10.3086 10.8828 10.9922 12.7285 12.1543 14.2051H3.47266V36.8183H8.72266V70.1094H33.25H36.668H61.1953V36.832H66.4453V14.2187ZM50.7363 3.54101C53.7305 3.54101 56.1641 5.93359 56.1641 8.87304C56.1641 11.7988 53.7441 14.1914 50.7637 14.2051H37.3379C40.0859 7.75195 46.1562 3.54101 50.7363 3.54101ZM19.1543 3.54101C24.7188 3.54101 30.1328 8.72265 32.5254 14.2187H19.1133C16.1328 14.2051 13.7129 11.8125 13.7129 8.88672C13.7129 5.93359 16.1465 3.54101 19.1543 3.54101ZM6.86328 33.4141V17.6367H19.0996C19.1133 17.6367 19.127 17.6367 19.1543 17.6367H33.2363V33.4141H8.70898H6.86328ZM33.2363 66.7051H12.127V36.832H33.2363V66.7051ZM57.7637 66.7051H36.6543V36.832H57.7637V66.7051ZM63.0273 33.4141H61.1953H36.6543V17.6367H50.7363C50.75 17.6367 50.7637 17.6367 50.791 17.6367H63.0273V33.4141Z" fill="white"/>
</g>
<defs>
<clipPath id="clip0">
<rect width="70" height="70" fill="white"/>
</clipPath>
</defs>
</svg>
