<svg width="70" height="70" viewBox="0 0 70 70" fill="none" xmlns="http://www.w3.org/2000/svg">
<g clip-path="url(#clip0)">
<path d="M52.2129 66.4316H46.7168C44.3379 66.4316 42.3691 64.4902 42.082 61.9882C38.8965 62.3984 35.6836 62.3574 32.5117 61.8788C32.1973 64.3535 30.2422 66.2675 27.8906 66.2675H22.3945C19.8242 66.2675 17.7324 63.998 17.7324 61.1953V55.9726C15.5176 54.3867 13.5352 52.5683 11.8535 50.5312H6.27539C2.87109 50.5449 0.0957031 47.7421 0.0957031 44.2968V31.2265C0.0957031 27.7812 2.87109 24.9785 6.27539 24.9785H6.58984C7.3418 22.5585 8.42188 20.2617 9.83008 18.1015L5.74219 12.5234L8.24414 10.6367C10.8008 8.70892 14.3691 8.44916 17.7871 9.89838C18.9902 9.05072 20.248 8.2851 21.5469 7.61517C32.7715 1.87299 50.6406 1.88666 61.6328 13.2343C68.6738 20.4941 70.123 27.9726 70.1094 32.9628C70.082 39.1562 67.7851 45.1855 63.4512 50.4355C60.8672 53.5527 58.2422 55.6171 56.9023 56.5605V61.373C56.8887 64.162 54.7969 66.4316 52.2129 66.4316ZM45.4726 57.955V61.373C45.4726 62.2617 46.0469 63.0273 46.7168 63.0273H52.2129C52.8965 63.0273 53.457 62.2753 53.457 61.373V54.7148L54.25 54.2089C54.6055 53.9902 57.75 51.9257 60.7988 48.248C64.668 43.5585 66.6504 38.4179 66.6641 32.9492C66.6777 28.5878 65.3926 22.039 59.1445 15.6132C53.4434 9.73431 46.334 7.91596 41.3574 7.42377C35 6.79486 28.3281 7.97064 23.0645 10.664C21.6426 11.3886 20.2617 12.2636 18.9766 13.2343L18.1016 13.9042L17.1309 13.3984C14.7109 12.1132 12.1816 12.0585 10.459 13.2343L14 18.0468L13.2754 19.0585C11.5117 21.5331 10.2402 24.2538 9.50195 27.1249L9.17383 28.4101H6.27539C4.74414 28.4101 3.51367 29.6816 3.51367 31.2402V44.2968C3.51367 45.8554 4.75781 47.1269 6.27539 47.1269H13.4941L14.0137 47.7831C15.7773 50.0253 17.9102 52.0078 20.3848 53.662L21.1367 54.1679V61.1953C21.1367 62.0839 21.7109 62.8495 22.3809 62.8495H27.8906C28.5742 62.8495 29.1348 62.0976 29.1348 61.1953V57.7363L31.1992 58.1601C35.2461 59.0078 39.375 59.0488 43.4492 58.2968L45.4726 57.955Z" fill="white"/>
<path d="M21.8203 33.4824C18.8398 33.4824 16.4062 31.0624 16.4062 28.0683C16.4062 25.0742 18.8262 22.6542 21.8203 22.6542C24.8145 22.6542 27.2344 25.0742 27.2344 28.0683C27.2344 31.0624 24.8008 33.4824 21.8203 33.4824ZM21.8203 26.0859C20.7266 26.0859 19.8242 26.9745 19.8242 28.082C19.8242 29.1894 20.7129 30.0781 21.8203 30.0781C22.9277 30.0781 23.8164 29.1894 23.8164 28.082C23.8164 26.9745 22.9141 26.0859 21.8203 26.0859Z" fill="white"/>
</g>
<defs>
<clipPath id="clip0">
<rect width="70" height="70" fill="white"/>
</clipPath>
</defs>
</svg>
