<svg width="70" height="70" viewBox="0 0 70 70" fill="none" xmlns="http://www.w3.org/2000/svg">
<g clip-path="url(#clip0)">
<path d="M17.6093 70.1504H13.9863C11.8672 70.1504 10.1035 68.5645 9.88473 66.459L7.79294 45.8828C7.75192 45.418 7.62887 44.9531 7.43747 44.4883L7.4238 44.4746C6.24801 42.2871 5.44137 40.3867 5.05856 39.0059C4.78512 38.0078 4.47067 35.793 4.40231 33.7832C4.29294 30.6523 4.73044 28.6973 5.79684 27.6309C6.24801 27.1797 6.56247 26.8652 7.19137 26.4141C8.98239 25.1016 11.0605 24.1855 11.6621 23.9395L11.7168 23.9258C12.9336 23.4473 14.3144 23.8437 15.0664 24.9102L15.791 25.9082L16.5429 24.8828C17.1035 24.1172 18.1699 23.9531 18.9355 24.5137C19.7011 25.0742 19.8652 26.1406 19.3047 26.9062L15.7773 31.7188L12.5644 27.2754C11.8398 27.6035 10.4179 28.2871 9.22848 29.1621C8.80465 29.4766 8.62692 29.6406 8.23044 30.0371C8.08005 30.2285 7.72458 31.2812 7.83395 33.7969C7.91598 35.7246 8.21676 37.543 8.36715 38.0898C8.54489 38.7324 9.05075 40.2227 10.459 42.8477L10.5683 43.0527C10.9101 43.8594 11.1289 44.6934 11.2109 45.541L13.3027 66.0898C13.3437 66.4453 13.6308 66.7188 14 66.7188H17.623C17.9785 66.7188 18.2793 66.4453 18.3203 66.0898L20.4121 45.541C20.5078 44.5977 21.3418 43.9141 22.2851 44.0098C23.2285 44.1055 23.9121 44.9395 23.8164 45.8828L21.7246 66.4316C21.4922 68.5645 19.7285 70.1504 17.6093 70.1504Z" fill="white"/>
<path d="M15.914 22.3945H15.6816C13.9316 22.3672 12.414 21.6973 11.3066 20.4668C9.32419 18.2383 9.41989 14.916 9.51559 13.9043C9.74801 9.63867 12.7968 7.72461 15.709 7.72461H15.8867C18.8125 7.72461 21.8476 9.625 22.08 13.8906C22.1484 14.5195 22.3945 18.0879 20.289 20.4668C19.2089 21.6836 17.705 22.3535 15.9277 22.4082L15.914 22.3945ZM15.7226 18.9766H15.873C16.666 18.9492 17.2949 18.6895 17.7324 18.1836C18.7441 17.0488 18.7578 14.875 18.6757 14.2051L18.6621 14.0957C18.5254 11.416 16.666 11.1289 15.873 11.1289H15.6953C14.9023 11.1289 13.0429 11.416 12.9062 14.0957V14.1504C12.7968 15.3945 12.9746 17.1992 13.8496 18.1836C14.3144 18.6895 14.9433 18.9629 15.7226 18.9766Z" fill="white"/>
<path d="M55.8906 70.1367H52.2675C50.1484 70.1367 48.3847 68.5508 48.166 66.4453L46.0742 45.8828C45.9785 44.9395 46.6621 44.1055 47.6054 44.0098C48.5488 43.9141 49.3828 44.5977 49.4785 45.541L51.5703 66.1035C51.6113 66.459 51.9121 66.7324 52.2675 66.7324H55.8906C56.2461 66.7324 56.5468 66.459 56.5879 66.1035L58.6796 45.541C58.7754 44.6523 58.9941 43.832 59.3222 43.0664L59.3496 42.998L59.3906 42.9297C60.416 41.0566 61.2089 39.252 61.5097 38.1035C61.6601 37.5566 61.9746 35.7246 62.0566 33.7969C62.166 31.2676 61.8105 30.2285 61.6601 30.0371C61.2636 29.6406 61.0859 29.4766 60.6621 29.1621C59.4453 28.2598 58.0097 27.5762 57.3261 27.2617L54.0859 31.7051L50.5586 26.9062C49.998 26.1406 50.1621 25.0742 50.9277 24.5137C51.6933 23.9531 52.7597 24.1172 53.3203 24.8828L54.0859 25.9219L54.8379 24.8828C55.6035 23.8164 56.9843 23.4199 58.2011 23.9121C58.5566 24.0625 60.7714 24.9785 62.6992 26.4004C63.3281 26.8652 63.6425 27.166 64.0937 27.6172C65.1601 28.6836 65.5976 30.6387 65.4882 33.7695C65.4062 35.8477 65.0918 37.9941 64.8183 38.9785C64.3125 40.8789 63.123 43.2168 62.4394 44.4746C62.2617 44.9121 62.1386 45.377 62.0839 45.8965L59.9921 66.4453C59.7734 68.5508 58.0097 70.1367 55.8906 70.1367Z" fill="white"/>
<path d="M54.1679 22.3809H53.9218C52.1582 22.3398 50.6543 21.6699 49.5605 20.4395C47.5918 18.2246 47.6875 14.9023 47.7695 13.877C48.0019 9.61133 51.0507 7.69727 53.9629 7.69727H54.1406C57.0664 7.69727 60.1015 9.61133 60.3339 13.8633C60.4023 14.4922 60.6484 18.0605 58.5429 20.4395C57.4355 21.6836 55.9179 22.3398 54.1679 22.3809ZM53.9902 18.9629H54.1406C54.9199 18.9492 55.5625 18.6758 56.0136 18.1699C57.0117 17.0352 57.0253 14.875 56.9433 14.2051L56.9296 14.0957C56.7929 11.416 54.9336 11.1289 54.1406 11.1289H53.9629C53.1699 11.1289 51.3105 11.416 51.1738 14.0957V14.1504C51.1464 14.4238 50.9687 16.8984 52.1171 18.1836C52.5683 18.6758 53.1972 18.9492 53.9902 18.9629Z" fill="white"/>
<path d="M37.0371 70.1231H32.8671C30.5839 70.1231 28.6972 68.4277 28.4785 66.1582L26.0586 42.4922C26.0039 41.9043 25.8535 41.3301 25.6211 40.7832C25.3066 40.2227 23.5839 37.0234 22.9004 34.5078C22.5996 33.4004 22.2168 30.8848 22.1347 28.5879C21.9433 23.4746 23.2148 22.1758 23.6386 21.7383C24.1445 21.2188 24.5 20.8906 25.1972 20.3574L25.2109 20.3438C27.4531 18.7031 30.0507 17.623 30.3379 17.5C31.5957 17.0078 33.0175 17.418 33.7832 18.5117L34.9316 20.084L36.0937 18.498C36.8867 17.4043 38.3086 16.9941 39.5664 17.5L39.6894 17.5547C41.6035 18.375 43.3398 19.3457 44.6796 20.3438C45.3769 20.8633 45.7324 21.2188 46.2382 21.7109C47.7695 23.2422 47.8379 26.3594 47.7422 28.5605C47.6465 31.0488 47.2363 33.5098 46.9902 34.4668C46.3886 36.6406 45.0351 39.3066 44.2558 40.7422C44.0234 41.2754 43.873 41.8496 43.8183 42.4512L41.4257 66.1719C41.1796 68.4277 39.2929 70.1231 37.0371 70.1231ZM26.0722 24.1582C25.8945 24.3633 25.4433 25.5254 25.5527 28.5195C25.6484 30.8027 26.0175 32.9629 26.1953 33.6055C26.7148 35.5195 28.1504 38.2949 28.6562 39.1973L28.6972 39.2656L28.7246 39.3477C29.1211 40.25 29.3671 41.1934 29.4629 42.1504L31.8828 65.8301C31.9375 66.3496 32.3476 66.7051 32.8671 66.7051H37.0371C37.5429 66.7051 37.9668 66.3223 38.0214 65.8164L40.4414 42.1504C40.5371 41.166 40.7968 40.2227 41.1797 39.334L41.2343 39.2109C42.4101 37.0371 43.3398 34.9453 43.709 33.6055C43.8867 32.9492 44.2558 30.7754 44.3515 28.5195C44.4746 25.5254 44.0234 24.3633 43.8457 24.1582C43.3808 23.6934 43.1621 23.4883 42.6562 23.1055C41.6035 22.3262 40.1953 21.5332 38.6504 20.8496L34.9316 25.8945L31.2675 20.8496C30.5429 21.1641 28.7656 21.998 27.248 23.1191C26.7285 23.502 26.5097 23.7207 26.0859 24.1445L26.0722 24.1582Z" fill="white"/>
<path d="M34.7949 15.7227C32.9218 15.6816 31.3222 14.957 30.1601 13.6445C29.1757 12.5508 28.5605 11.0605 28.3144 9.24219C28.205 8.39453 28.1777 7.45117 28.2461 6.60352C28.4785 2.05078 31.7187 0.0136719 34.8359 0.0136719H35.041C38.1582 0.0136719 41.3847 2.05078 41.6308 6.60352C41.6718 7.10938 41.7129 8.09375 41.5625 9.24219C41.3164 11.0742 40.7011 12.5508 39.7168 13.6582C38.5546 14.9707 36.955 15.6816 35.0683 15.7227H34.7949ZM34.8496 12.3047H35.0136C35.9297 12.291 36.6132 12.0039 37.1465 11.4023C38.1172 10.3086 38.3359 8.28516 38.2129 6.87695V6.82227C38.0625 3.77344 35.9433 3.44531 35.041 3.44531H34.8359C32.0468 3.44531 31.705 6.0293 31.664 6.82227V6.87695C31.541 8.28516 31.7597 10.3086 32.7168 11.3887C33.2363 11.9766 33.9336 12.2773 34.8496 12.3047Z" fill="white"/>
</g>
<defs>
<clipPath id="clip0">
<rect width="70" height="70" fill="white"/>
</clipPath>
</defs>
</svg>
