<svg width="24" height="30" viewBox="0 0 24 30" fill="none" xmlns="http://www.w3.org/2000/svg">
<path d="M12 30C11.4727 30 10.9688 29.7773 10.6172 29.3848C9.61523 28.2656 0.873047 18.252 0.873047 11.1211C0.878906 4.98633 5.86523 0 12 0C18.1289 0 23.1211 4.98633 23.127 11.1211C23.127 18.252 14.3848 28.2656 13.3828 29.3848C13.0313 29.7773 12.5273 30 12 30ZM12 1.875C6.90234 1.875 2.75391 6.02344 2.75391 11.1211C2.75391 17.5898 11.4316 27.4746 12 28.1133C12.5508 27.498 21.252 17.6016 21.252 11.1211C21.2461 6.02344 17.0977 1.875 12 1.875ZM12 17.1855C8.6543 17.1855 5.93555 14.4668 5.93555 11.1211C5.93555 7.77539 8.6543 5.05664 12 5.05664C15.3457 5.05664 18.0645 7.77539 18.0645 11.1211C18.0645 14.4668 15.3457 17.1855 12 17.1855ZM12 6.93164C9.69141 6.93164 7.81055 8.8125 7.81055 11.1211C7.81055 13.4297 9.69141 15.3105 12 15.3105C14.3086 15.3105 16.1895 13.4297 16.1895 11.1211C16.1895 8.8125 14.3086 6.93164 12 6.93164Z" fill="white"/>
</svg>
