<svg width="20" height="30" viewBox="0 0 20 30" fill="none" xmlns="http://www.w3.org/2000/svg">
<path d="M10 21.3457C11.7637 21.3457 13.2988 20.7188 14.5586 19.4883C15.8242 18.252 16.4629 16.7402 16.4629 15V6.3457C16.4629 4.60547 15.8242 3.09375 14.5586 1.85742C13.2988 0.626953 11.7637 0 10 0C8.23633 0 6.70117 0.626953 5.44141 1.85742C4.17578 3.09375 3.53711 4.60547 3.53711 6.3457V15C3.53711 16.7402 4.17578 18.252 5.44141 19.4883C6.70117 20.7188 8.23633 21.3457 10 21.3457ZM5.41211 6.3457C5.41211 5.10938 5.85156 4.07812 6.75391 3.19336C7.66211 2.30859 8.72266 1.875 10 1.875C11.2773 1.875 12.3379 2.30859 13.2461 3.19336C14.1484 4.07812 14.5879 5.10938 14.5879 6.3457V15C14.5879 16.2363 14.1484 17.2676 13.2461 18.1523C12.3379 19.043 11.2773 19.4707 10 19.4707C8.72266 19.4707 7.66211 19.0371 6.75391 18.1523C5.85156 17.2676 5.41211 16.2363 5.41211 15V6.3457Z" fill="white"/>
<path d="M19.041 11.9004C18.5254 11.9004 18.1035 12.3223 18.1035 12.8379V15.2695C18.1035 17.3613 17.3301 19.1074 15.7422 20.5957C14.1602 22.084 12.3145 22.8164 10.0938 22.834C10.0645 22.8281 10.0293 22.8281 10 22.8281C9.9707 22.8281 9.93555 22.8281 9.90625 22.834C7.68555 22.8105 5.83984 22.0781 4.25781 20.5957C2.66992 19.1016 1.89648 17.3613 1.89648 15.2695V12.8379C1.89648 12.3223 1.47461 11.9004 0.958984 11.9004C0.443359 11.9004 0.0214844 12.3223 0.0214844 12.8379V15.2695C0.0214844 17.8711 1.01172 20.1211 2.96875 21.9668C4.68555 23.5781 6.73047 24.4863 9.0625 24.6797V28.125H3.87109C3.35547 28.125 2.93359 28.5469 2.93359 29.0625C2.93359 29.5781 3.35547 30 3.87109 30H16.1289C16.6445 30 17.0664 29.5781 17.0664 29.0625C17.0664 28.5469 16.6445 28.125 16.1289 28.125H10.9375V24.6738C13.2695 24.4863 15.3145 23.5723 17.0312 21.9609C18.9883 20.1211 19.9785 17.8652 19.9785 15.2637V12.832C19.9785 12.3223 19.5566 11.9004 19.041 11.9004Z" fill="white"/>
</svg>
