<svg width="170" height="116" viewBox="0 0 170 116" fill="none" xmlns="http://www.w3.org/2000/svg">
<path d="M0 104.816H170V115.441H0V104.816ZM139.785 41.3652C127.766 29.3789 112.459 21.8418 95.9238 19.5176C96.9863 17.6582 97.6172 15.5332 97.6172 13.2422C97.6172 6.30273 91.9727 0.691406 85 0.691406C78.0273 0.691406 72.3828 6.33594 72.3828 13.2422C72.3828 15.5332 73.0137 17.6914 74.0762 19.5176C57.5078 21.8418 42.2344 29.3789 30.2148 41.3652C16.0039 55.543 7.96875 74.2363 7.53711 94.1914H25.7324C26.0977 75.6641 33.0703 58.2988 45.4551 45.1836C53.5566 36.584 63.3516 30.4414 74.043 27.1211C67.2695 30.8066 61.0273 36.2188 55.6816 43.1914C45.1562 56.8711 39.2461 74.9336 38.9473 94.1914H162.463C162.031 74.2363 154.029 55.543 139.785 41.3652Z" fill="#50CE1B"/>
</svg>
