<svg width="23" height="24" viewBox="0 0 23 24" fill="none" xmlns="http://www.w3.org/2000/svg">
<path d="M22.5495 21.7582L16.8792 15.8242C18.3297 14.1099 19.1209 11.8681 19.1209 9.62637C19.1209 4.35165 14.7693 0 9.49453 0C4.21979 0 0 4.48352 0 9.75824C0 15.033 4.35166 19.3846 9.6264 19.3846C11.6044 19.3846 13.4506 18.7253 15.1649 17.6703L20.8352 23.6044C21.099 23.8681 21.3627 24 21.7583 24C22.022 24 22.4176 23.8681 22.6814 23.6044C23.077 23.0769 23.077 22.2857 22.5495 21.7582ZM9.6264 2.63736C13.5825 2.63736 16.7473 5.8022 16.7473 9.75824C16.7473 13.7143 13.5825 16.8791 9.6264 16.8791C5.67035 16.8791 2.5055 13.7143 2.5055 9.75824C2.5055 5.8022 5.67035 2.63736 9.6264 2.63736Z" fill="white"/>
</svg>
