<svg width="20" height="16" viewBox="0 0 20 16" fill="none" xmlns="http://www.w3.org/2000/svg">
<path d="M19.6831 0.112366H0.316877C0.141897 0.112366 0 0.2542 0 0.429243V15.5708C0 15.7458 0.141897 15.8876 0.316877 15.8876H19.6831C19.8582 15.8876 20 15.7458 20 15.5708V0.429243C20 0.2542 19.8582 0.112366 19.6831 0.112366ZM18.0987 13.3613L13.7407 8.84809C13.6925 8.79834 13.6137 8.79511 13.5618 8.84086L10.5391 11.5013L6.67558 6.74428C6.65049 6.71323 6.61379 6.69548 6.57228 6.69637C6.53229 6.69719 6.49496 6.7164 6.47107 6.74846L1.90126 12.8803V2.01363H18.0987V13.3613Z" fill="#F17E00"/>
</svg>
