<svg width="10" height="12" viewBox="0 0 10 12" fill="none" xmlns="http://www.w3.org/2000/svg">
<path d="M6.18623 0H2.39639H2.12686V0.269531V6.37031H0.940918H0.671387V6.63984V7.27734V7.54688H0.940918H2.1292V8.19844H0.940918H0.671387V8.46797V9.10547V9.375H0.940918H2.1292V11.7375V12H2.39873H3.03623H3.30576V11.7305V9.36797H5.73154H6.00107V9.09844V8.46094V8.19141H5.73154H3.30107V7.53984H6.18623C7.91826 7.53984 9.32686 6.01875 9.32686 4.14844V3.38672C9.3292 1.52109 7.91826 0 6.18623 0ZM6.18623 6.37031H3.30107V1.17422H6.18623C7.27139 1.17422 8.15498 2.16797 8.15498 3.39141V4.15312C8.15498 5.37422 7.27139 6.37031 6.18623 6.37031Z" fill="#F17E00"/>
</svg>
