<svg width="10" height="12" viewBox="0 0 10 12" fill="none" xmlns="http://www.w3.org/2000/svg">
<path d="M5.01844 0C2.58281 0 0.599609 1.9832 0.599609 4.41883C0.599609 5.05411 0.728541 5.66126 0.986404 6.22153C2.09053 8.63841 4.20969 11.1912 4.83325 11.9156C4.88013 11.9695 4.94811 12 5.01844 12C5.08877 12 5.15909 11.9695 5.20363 11.9156C5.82719 11.1912 7.94401 8.63841 9.05048 6.22153C9.306 5.66126 9.43727 5.05411 9.43727 4.41883C9.43727 1.9832 7.45407 0 5.01844 0ZM5.01844 6.71381C3.75257 6.71381 2.72346 5.6847 2.72346 4.41883C2.72346 3.15296 3.75257 2.12385 5.01844 2.12385C6.28431 2.12385 7.31342 3.15296 7.31342 4.41883C7.31342 5.6847 6.28431 6.71381 5.01844 6.71381Z" fill="#F17E00"/>
</svg>
