<svg width="176" height="23" viewBox="0 0 176 23" fill="none" xmlns="http://www.w3.org/2000/svg">
<path d="M18.9 2.4C20 0.8 22.1 0 25.1 0C28.1 0 30.1 0.8 31.3 2.4C32.4 3.9 33 6.8 33 11C33 15.2 32.4 18.1 31.3 19.6C30.1 21.2 28 22 25.1 22C22.1 22 20.1 21.2 18.9 19.6C17.7 18 17.2 15.2 17.2 11C17.2 6.8 17.7 3.9 18.9 2.4ZM27.9 5.3C27.4 4.3 26.4 3.8 25 3.8C23.6 3.8 22.7 4.3 22.1 5.3C21.6 6.3 21.3 8.2 21.3 11C21.3 13.8 21.6 15.7 22.1 16.7C22.6 17.7 23.6 18.2 25 18.2C26.4 18.2 27.3 17.7 27.9 16.7C28.4 15.7 28.7 13.8 28.7 11C28.7 8.2 28.4 6.3 27.9 5.3Z" fill="#B0BF7A"/>
<path d="M49.7 0V22H45.6V13.6C43.5 14.4 41.8 14.6 39.9 14.6C38.3 14.6 37.1 14.2 36.3 13.3C35.5 12.4 35.2 11.1 35.2 9.3V0H39.3V8.2C39.3 9 39.4 9.6 39.7 10C40 10.3 40.6 10.5 41.3 10.5C42.7 10.5 44.1 10.2 45.5 9.5V0H49.7Z" fill="#B0BF7A"/>
<path d="M92.8 0V22H88.6V3.5H82V22H77.8V0H92.8Z" fill="#B0BF7A"/>
<path d="M97.4 2.4C98.6 0.8 100.6 0 103.6 0C106.6 0 108.6 0.8 109.8 2.4C111 4 111.5 6.9 111.5 11C111.5 15.2 110.9 18.1 109.8 19.6C108.6 21.2 106.6 22 103.6 22C100.6 22 98.6 21.2 97.4 19.6C96.2 18 95.7 15.2 95.7 11C95.7 6.8 96.2 3.9 97.4 2.4ZM106.4 5.3C105.9 4.3 104.9 3.8 103.5 3.8C102.1 3.8 101.2 4.3 100.6 5.3C100.1 6.3 99.8 8.2 99.8 11C99.8 13.8 100.1 15.7 100.6 16.7C101.1 17.7 102.1 18.2 103.5 18.2C104.9 18.2 105.8 17.7 106.4 16.7C106.9 15.7 107.2 13.8 107.2 11C107.2 8.2 106.9 6.3 106.4 5.3Z" fill="#B0BF7A"/>
<path d="M126.7 18.1L126.9 21.6C125.2 21.8 122.3 21.9 118.2 21.9C117 21.9 116 21.5 115.2 20.7C114.5 19.9 114.1 18.8 114.1 17.5V4.4C114.1 3.1 114.5 2 115.2 1.2C115.9 0.4 116.9 0 118.2 0C122.3 0 125.2 0.1 126.9 0.3L126.7 3.9H119.5C119 3.9 118.7 4 118.5 4.3C118.3 4.6 118.2 5 118.2 5.5V8.8H125.7V12.3H118.2V16.5C118.2 17.1 118.3 17.5 118.5 17.8C118.7 18.1 119 18.2 119.5 18.2H126.7V18.1Z" fill="#B0BF7A"/>
<path d="M142.1 17.7001L142.4 21.2001C140.8 21.8001 138.8 22.1001 136.5 22.1001C133.7 22.1001 131.7 21.3001 130.5 19.6001C129.3 18.0001 128.8 15.1001 128.8 11.1001C128.8 7.1001 129.4 4.2001 130.5 2.6001C131.7 1.0001 133.7 0.100098 136.5 0.100098C138.6 0.100098 140.4 0.300098 142 0.800098L141.7 4.3001C140.3 4.2001 138.5 4.1001 136.5 4.1001C135.2 4.1001 134.3 4.6001 133.8 5.6001C133.3 6.6001 133.1 8.4001 133.1 11.1001C133.1 13.8001 133.3 15.6001 133.8 16.6001C134.3 17.6001 135.2 18.1001 136.5 18.1001C139 17.9001 140.9 17.8001 142.1 17.7001Z" fill="#B0BF7A"/>
<path d="M159 4H153.4V22H149.2V4H143.6V0H159V4Z" fill="#B0BF7A"/>
<path d="M165.6 8.1H168.4C171 8.1 172.7 8.6 173.7 9.6C174.7 10.6 175.2 12.4 175.2 15.1C175.2 17.7 174.7 19.5 173.8 20.5C172.9 21.5 171.3 22 169.1 22C165.8 22 163.4 21.9 161.6 21.7H161.5V0H165.6V8.1ZM165.6 18.3H168.4C169.5 18.3 170.2 18.1 170.5 17.7C170.8 17.3 171 16.4 171 15C171 13.6 170.8 12.7 170.5 12.2C170.2 11.7 169.5 11.5 168.4 11.5H165.6V18.3Z" fill="#B0BF7A"/>
<path d="M62.9 0L59.8 9.9L56.8 0H51.9L57.5 17L56 22H60.2L67.8 0H62.9Z" fill="#B0BF7A"/>
<path d="M16.3 22L11.4 10.7L15.9 0H11.7L8.1 9.1L4.6 0H0.4L4.8 10.7L0 22H4.2L8.1 12.3L12 22H16.3Z" fill="#B0BF7A"/>
</svg>
