<svg width="36" height="36" viewBox="0 0 36 36" fill="none" xmlns="http://www.w3.org/2000/svg">
<path d="M18 0C8.05714 0 0 8.05714 0 18C0 27.9429 8.05714 36 18 36C27.9429 36 36 27.9429 36 18C36 8.05714 27.9429 0 18 0ZM27.0857 23.4857H24.2571C23.4857 23.5714 22.9714 23.2286 22.4571 22.7143C22.1143 22.2857 21.6857 21.8571 21.3429 21.5143C21.1714 21.3429 21 21.1714 20.8286 21.0857C20.4857 20.8286 20.1429 20.9143 19.8857 21.3429C19.6286 21.7714 19.6286 22.2 19.6286 22.6286C19.6286 23.3143 19.3714 23.4857 18.7714 23.4857C17.4 23.5714 16.0286 23.3143 14.7429 22.6286C13.6286 22.0286 12.7714 21.0857 12.0857 20.1429C10.6286 18.1714 9.51429 16.0286 8.57143 13.8C8.31429 13.2857 8.48571 13.0286 9.08571 13.0286C10.0286 13.0286 10.8857 13.0286 11.8286 13.0286C12.1714 13.0286 12.4286 13.2857 12.6 13.6286C13.1143 14.8286 13.7143 16.0286 14.4857 17.0571C14.6571 17.3143 14.9143 17.6571 15.1714 17.8286C15.5143 18.0857 15.7714 18 15.9429 17.5714C16.0286 17.3143 16.1143 17.0571 16.1143 16.8C16.2 15.9429 16.2 15.0857 16.0286 14.3143C15.9429 13.8 15.6857 13.4571 15.1714 13.3714C14.9143 13.2857 14.9143 13.2 15.0857 13.1143C15.3429 12.8571 15.5143 12.6857 15.9429 12.6857H19.1143C19.6286 12.7714 19.7143 13.0286 19.8 13.5429V17.0571C19.8 17.2286 19.8857 17.8286 20.2286 17.9143C20.4857 18 20.6571 17.7429 20.8286 17.6571C21.6 16.8 22.1143 15.8571 22.6286 14.9143C22.8857 14.4857 23.0571 14.0571 23.2286 13.5429C23.4 13.2 23.5714 13.0286 23.9143 13.0286H27C27.0857 13.0286 27.1714 13.0286 27.2571 13.0286C27.7714 13.1143 27.9429 13.2857 27.7714 13.8857C27.5143 14.6571 27 15.3429 26.5714 15.9429C26.0571 16.6286 25.5429 17.3143 25.0286 18C24.6 18.6857 24.6857 18.9429 25.2 19.5429C25.8 20.1429 26.4857 20.7429 27.0857 21.4286C27.3429 21.6857 27.6 22.0286 27.7714 22.3714C27.7714 22.8857 27.5143 23.4 27.0857 23.4857Z" fill="black"/>
</svg>
