<svg width="36" height="36" viewBox="0 0 36 36" fill="none" xmlns="http://www.w3.org/2000/svg">
<path d="M18 0C8.05714 0 0 8.05714 0 18C0 27.9429 8.05714 36 18 36C27.9429 36 36 27.9429 36 18C36 8.05714 27.9429 0 18 0ZM22.4571 18.3429C22.4571 18.5143 22.2857 18.6 22.2 18.6H19.8V27.2571C19.8 27.4286 19.7143 27.5143 19.5429 27.5143H15.9429C15.7714 27.5143 15.6857 27.4286 15.6857 27.2571V18.6H13.5429C13.3714 18.6 13.2 18.4286 13.2 18.3429V15.1714C13.2 15 13.2857 14.9143 13.4571 14.9143H15.6857V12.5143C15.6 12.2571 15.4286 10.8 16.8 9.6C18 8.48571 19.5429 8.4 19.9714 8.4C20.0571 8.4 20.0571 8.4 20.0571 8.4H22.5429C22.7143 8.4 22.8 8.48571 22.8 8.65714V11.5714C22.8 11.7429 22.7143 11.8286 22.5429 11.8286C22.5429 11.8286 20.8286 11.8286 20.7429 11.8286C20.1429 11.8286 19.8 12.0857 19.8 12.7714V14.8286H22.6286C22.7143 14.8286 22.8 14.9143 22.8857 14.9143C22.9714 15 22.9714 15.0857 22.9714 15.1714L22.4571 18.3429Z" fill="black"/>
</svg>
