<svg width="36" height="36" viewBox="0 0 36 36" fill="none" xmlns="http://www.w3.org/2000/svg">
<path d="M18 0C8.05714 0 0 8.05714 0 18C0 27.9429 8.05714 36 18 36C27.9429 36 36 27.9429 36 18C36 8.05714 27.9429 0 18 0ZM18.0857 8.4C20.7429 8.4 22.9714 10.6286 22.9714 13.3714C22.8857 15.9429 20.6571 18.1714 18 18.1714C15.3429 18.1714 13.1143 15.9429 13.2 13.2857C13.2 10.5429 15.4286 8.4 18.0857 8.4ZM23.4857 20.0571C22.8857 20.6571 22.2 21.0857 21.3429 21.4286C20.5714 21.6857 19.7143 21.8571 18.9429 21.9429C19.1143 22.1143 19.1143 22.1143 19.2 22.2C20.3143 23.3143 21.4286 24.4286 22.5429 25.5429C22.8857 25.8857 22.9714 26.4 22.8 26.8286C22.5429 27.3429 22.1143 27.6857 21.5143 27.6C21.1714 27.6 20.9143 27.4286 20.7429 27.2571C19.8857 26.4 19.0286 25.5429 18.2571 24.7714C18 24.5143 17.9143 24.6 17.6571 24.7714C16.8 25.6286 15.9429 26.4857 15.0857 27.3429C14.7429 27.6857 14.2286 27.7714 13.8 27.6C13.2857 27.3429 13.0286 26.9143 13.0286 26.4C13.0286 26.0571 13.2 25.8 13.3714 25.5429C14.4857 24.4286 15.6 23.3143 16.6286 22.2857C16.8 22.2 16.8857 22.1143 16.9714 22.0286C15.5143 21.8571 14.1429 21.5143 12.9429 20.5714C12.7714 20.4857 12.6857 20.3143 12.5143 20.2286C12 19.7143 11.9143 19.2 12.3429 18.6C12.6857 18.0857 13.2857 18 13.8 18.2571C13.8857 18.3429 14.0571 18.4286 14.1429 18.4286C16.2857 19.8857 19.2857 19.8857 21.4286 18.5143C21.6 18.3429 21.8571 18.2571 22.1143 18.1714C22.6286 18 23.1429 18.2571 23.4 18.6857C23.9143 19.1143 23.9143 19.6286 23.4857 20.0571ZM18.0857 15.6C19.3714 15.6 20.4857 14.5714 20.4857 13.2C20.4857 11.8286 19.4571 10.8 18.0857 10.8C16.7143 10.8 15.6857 11.8286 15.6857 13.2C15.6 14.5714 16.7143 15.6 18.0857 15.6Z" fill="black"/>
</svg>
