<svg width="36" height="36" viewBox="0 0 36 36" fill="none" xmlns="http://www.w3.org/2000/svg">
<path d="M18 0C8.05714 0 0 8.05714 0 18C0 27.9429 8.05714 36 18 36C27.9429 36 36 27.9429 36 18C36 8.05714 27.9429 0 18 0ZM26.4 21.4286C26.4 24.1714 24.1714 26.4 21.4286 26.4H14.6571C11.9143 26.4 9.68572 24.1714 9.68572 21.4286V14.5714C9.68572 11.8286 11.9143 9.6 14.6571 9.6H21.4286C24.1714 9.6 26.4 11.8286 26.4 14.5714V21.4286ZM21.4286 11.3143H14.6571C12.7714 11.3143 11.3143 12.7714 11.3143 14.6571V21.4286C11.3143 23.2286 12.7714 24.7714 14.6571 24.7714H21.4286C23.3143 24.7714 24.7714 23.3143 24.7714 21.4286V14.5714C24.6857 12.7714 23.2286 11.3143 21.4286 11.3143ZM18 22.2857C15.6 22.2857 13.6286 20.4 13.6286 18C13.6286 15.6 15.5143 13.7143 18 13.7143C20.4 13.7143 22.2857 15.6 22.2857 18C22.2857 20.4 20.4 22.2857 18 22.2857ZM22.3714 14.7429C21.7714 14.7429 21.3429 14.3143 21.3429 13.7143C21.3429 13.1143 21.7714 12.6857 22.3714 12.6857C22.9714 12.6857 23.4 13.1143 23.4 13.7143C23.4 14.3143 22.9714 14.7429 22.3714 14.7429ZM18 15.4286C16.5429 15.4286 15.3429 16.6286 15.3429 18.0857C15.3429 19.5429 16.5429 20.7429 18 20.7429C19.4571 20.7429 20.6571 19.5429 20.6571 18.0857C20.6571 16.5429 19.4571 15.4286 18 15.4286Z" fill="black"/>
</svg>
