<svg width="36" height="36" viewBox="0 0 36 36" fill="none" xmlns="http://www.w3.org/2000/svg">
<path d="M16.0286 15.0857L21.5143 18.3429L16.0286 21.4286V15.0857ZM36 18C36 27.9429 27.9429 36 18 36C8.05714 36 0 27.9429 0 18C0 8.05714 8.05714 0 18 0C27.9429 0 36 8.05714 36 18ZM26.4 17.4C26.4 15.9429 26.2286 14.4 26.2286 14.4C26.2286 14.4 26.0571 13.1143 25.5429 12.6C24.9429 11.9143 24.1714 11.9143 23.8286 11.8286C21.5143 11.6571 17.9143 11.6571 17.9143 11.6571C17.9143 11.6571 14.4 11.6571 12 11.8286C11.6571 11.8286 10.9714 11.9143 10.2857 12.6C9.77143 13.1143 9.6 14.4 9.6 14.4C9.6 14.4 9.42857 15.8571 9.42857 17.4V18.7714C9.42857 20.2286 9.6 21.6857 9.6 21.6857C9.6 21.6857 9.77143 22.9714 10.2857 23.4857C10.9714 24.2571 11.7429 24.1714 12.1714 24.2571C13.5429 24.4286 17.9143 24.4286 17.9143 24.4286C17.9143 24.4286 21.4286 24.4286 23.8286 24.2571C24.1714 24.2571 24.8571 24.1714 25.5429 23.4857C26.0571 22.9714 26.2286 21.6857 26.2286 21.6857C26.2286 21.6857 26.4 20.2286 26.4 18.7714V17.4Z" fill="black"/>
</svg>
