<svg width="36" height="36" viewBox="0 0 36 36" fill="none" xmlns="http://www.w3.org/2000/svg">
<path d="M18 0C8.05714 0 0 8.05714 0 18C0 27.9429 8.05714 36 18 36C27.9429 36 36 27.9429 36 18C36 8.05714 27.9429 0 18 0ZM25.0286 14.8286C25.0286 15 25.0286 15.0857 25.0286 15.2571C25.0286 20.6571 20.6571 25.1143 15.1714 25.1143C13.2857 25.1143 11.4 24.5143 9.94286 23.5714C10.2857 23.6571 10.5429 23.6571 10.8857 23.6571C13.3714 23.6571 15.0857 22.1143 15.0857 22.1143C12.4286 21.9429 11.9143 19.7143 11.9143 19.7143C12.8571 19.8857 13.4571 19.6286 13.4571 19.6286C10.4571 18.9429 10.7143 16.2 10.7143 16.2C11.4 16.6286 12.1714 16.6286 12.1714 16.6286C9.42857 14.3143 11.1429 12.0857 11.1429 12.0857C13.8857 15.4286 17.9143 15.6857 18.2571 15.6857C18.1714 15.4286 18.1714 15.1714 18.1714 14.9143C18.1714 13.0286 19.7143 11.4857 21.6 11.4857C22.6286 11.4857 23.4857 11.9143 24.0857 12.6C24.2571 12.5143 24.4286 12.5143 24.6 12.4286C25.6286 12.0857 26.3143 11.7429 26.3143 11.7429C26.1429 12.7714 24.9429 13.6286 24.7714 13.6286C25.7143 13.5429 26.5714 13.2 26.7429 13.1143C26.4 13.7143 25.2 14.7429 25.0286 14.8286Z" fill="black"/>
</svg>
