<svg width="36" height="36" viewBox="0 0 36 36" fill="none" xmlns="http://www.w3.org/2000/svg">
<path d="M18 0C8.05714 0 0 8.05714 0 18C0 27.9429 8.05714 36 18 36C27.9429 36 36 27.9429 36 18C36 8.05714 27.9429 0 18 0ZM25.4572 23.7429C25.4572 24.2571 24.8571 24.6 24.4286 24.3429L18.3429 21.6857L15.3429 26.4L14.4 19.9714L10.2 18.1714C9.94285 18.0857 9.77142 17.7429 9.77142 17.4857C9.77142 17.2286 9.94285 16.8857 10.2 16.8L25.5428 9.6C25.7143 9.51429 25.8 9.51429 25.9714 9.6C25.9714 9.6 25.9714 9.6 26.0571 9.6C26.2286 9.68571 26.3143 9.85714 26.2286 10.0286L25.4572 23.7429ZM15.4286 24.6L16.2857 20.9143V20.8286L16.3714 20.7429L22.8857 12.9429L14.7429 20.1429L15.4286 24.6Z" fill="black"/>
</svg>
