<svg width="570" height="219" viewBox="0 0 570 219" fill="none" xmlns="http://www.w3.org/2000/svg">
<path d="M534.182 207.85C533.107 207.85 532.262 208.193 531.645 208.881C531.027 209.568 530.719 210.51 530.719 211.705C530.719 212.928 531.01 213.877 531.592 214.553C532.174 215.229 533.006 215.566 534.088 215.566C534.807 215.566 535.467 215.475 536.068 215.291V215.818C535.502 216.018 534.795 216.117 533.947 216.117C532.744 216.117 531.797 215.729 531.105 214.951C530.414 214.174 530.068 213.088 530.068 211.693C530.068 210.822 530.232 210.055 530.561 209.391C530.893 208.727 531.367 208.215 531.984 207.855C532.605 207.492 533.326 207.311 534.146 207.311C534.982 207.311 535.73 207.467 536.391 207.779L536.15 208.318C535.525 208.006 534.869 207.85 534.182 207.85ZM540.404 216.117C539.479 216.117 538.756 215.832 538.236 215.262C537.721 214.691 537.463 213.893 537.463 212.865C537.463 211.85 537.713 211.037 538.213 210.428C538.713 209.814 539.387 209.508 540.234 209.508C540.984 209.508 541.576 209.77 542.01 210.293C542.443 210.816 542.66 211.527 542.66 212.426V212.895H538.072C538.08 213.77 538.283 214.438 538.682 214.898C539.084 215.359 539.658 215.59 540.404 215.59C540.768 215.59 541.086 215.564 541.359 215.514C541.637 215.463 541.986 215.354 542.408 215.186V215.713C542.049 215.869 541.717 215.975 541.412 216.029C541.107 216.088 540.771 216.117 540.404 216.117ZM540.234 210.023C539.621 210.023 539.129 210.227 538.758 210.633C538.387 211.035 538.17 211.617 538.107 212.379H542.045C542.045 211.641 541.885 211.064 541.564 210.65C541.244 210.232 540.801 210.023 540.234 210.023ZM544.998 209.631V212.426H549.041V209.631H549.615V216H549.041V212.93H544.998V216H544.418V209.631H544.998Z" fill="black"/>
<path d="M475.811 212.977H472.33L471.135 216H470.473L473.918 207.398H474.299L477.674 216H477L475.811 212.977ZM472.547 212.438H475.611L474.445 209.35C474.348 209.107 474.23 208.771 474.094 208.342C473.988 208.717 473.873 209.057 473.748 209.361L472.547 212.438ZM483.633 211.166C483.633 211.568 483.533 211.885 483.334 212.115C483.135 212.342 482.811 212.5 482.361 212.59V212.631C482.873 212.689 483.242 212.838 483.469 213.076C483.699 213.311 483.814 213.648 483.814 214.09C483.814 214.703 483.611 215.176 483.205 215.508C482.803 215.836 482.213 216 481.436 216H478.746V209.631H481.447C482.174 209.631 482.719 209.762 483.082 210.023C483.449 210.285 483.633 210.666 483.633 211.166ZM483.199 214.078C483.199 213.297 482.6 212.906 481.4 212.906H479.326V215.449H481.482C482.627 215.449 483.199 214.992 483.199 214.078ZM483.018 211.213C483.018 210.842 482.885 210.578 482.619 210.422C482.354 210.262 481.955 210.182 481.424 210.182H479.326V212.361H481.354C481.947 212.361 482.373 212.27 482.631 212.086C482.889 211.902 483.018 211.611 483.018 211.213ZM489.287 210.135H486.123V216H485.543V209.631H489.287V210.135Z" fill="black"/>
<path d="M408.826 207.434H409.4V213.035C409.4 213.434 409.385 214.102 409.354 215.039H409.389L414.451 207.434H415.055V216H414.475V210.434C414.475 209.801 414.5 209.117 414.551 208.383H414.504L409.424 216H408.826V207.434ZM425.156 212.807C425.156 213.846 424.922 214.658 424.453 215.244C423.988 215.826 423.35 216.117 422.537 216.117C421.771 216.117 421.154 215.83 420.686 215.256C420.221 214.682 419.982 213.906 419.971 212.93H417.92V216H417.34V209.631H417.92V212.426H419.982C420.037 211.508 420.291 210.793 420.744 210.281C421.201 209.766 421.811 209.508 422.572 209.508C423.369 209.508 423.998 209.803 424.459 210.393C424.924 210.979 425.156 211.783 425.156 212.807ZM420.58 212.807C420.58 213.682 420.752 214.365 421.096 214.857C421.443 215.346 421.932 215.59 422.561 215.59C423.189 215.59 423.676 215.344 424.02 214.852C424.367 214.359 424.541 213.678 424.541 212.807C424.541 211.932 424.367 211.252 424.02 210.768C423.672 210.279 423.182 210.035 422.549 210.035C421.92 210.035 421.434 210.277 421.09 210.762C420.75 211.242 420.58 211.924 420.58 212.807ZM431.32 216H430.746V210.17H428.49C428.373 211.713 428.229 212.891 428.057 213.703C427.889 214.512 427.67 215.107 427.4 215.49C427.135 215.869 426.789 216.059 426.363 216.059C426.211 216.059 426.078 216.043 425.965 216.012V215.484C426.039 215.508 426.145 215.52 426.281 215.52C426.723 215.52 427.078 215.055 427.348 214.125C427.621 213.191 427.828 211.693 427.969 209.631H431.32V216Z" fill="black"/>
<path d="M348.428 207.434H349.002V213.035C349.002 213.434 348.986 214.102 348.955 215.039H348.99L354.053 207.434H354.656V216H354.076V210.434C354.076 209.801 354.102 209.117 354.152 208.383H354.105L349.025 216H348.428V207.434ZM364.758 212.807C364.758 213.846 364.523 214.658 364.055 215.244C363.59 215.826 362.951 216.117 362.139 216.117C361.373 216.117 360.756 215.83 360.287 215.256C359.822 214.682 359.584 213.906 359.572 212.93H357.521V216H356.941V209.631H357.521V212.426H359.584C359.639 211.508 359.893 210.793 360.346 210.281C360.803 209.766 361.412 209.508 362.174 209.508C362.971 209.508 363.6 209.803 364.061 210.393C364.525 210.979 364.758 211.783 364.758 212.807ZM360.182 212.807C360.182 213.682 360.354 214.365 360.697 214.857C361.045 215.346 361.533 215.59 362.162 215.59C362.791 215.59 363.277 215.344 363.621 214.852C363.969 214.359 364.143 213.678 364.143 212.807C364.143 211.932 363.969 211.252 363.621 210.768C363.273 210.279 362.783 210.035 362.15 210.035C361.521 210.035 361.035 210.277 360.691 210.762C360.352 211.242 360.182 211.924 360.182 212.807ZM367.096 209.631V212.426H371.139V209.631H371.713V216H371.139V212.93H367.096V216H366.516V209.631H367.096Z" fill="black"/>
<path d="M293.016 216L289.822 208.09H289.775C289.807 208.574 289.822 209.07 289.822 209.578V216H289.248V207.434H290.174L293.209 214.969H293.244L296.279 207.434H297.182V216H296.578V209.508C296.578 209.055 296.602 208.586 296.648 208.102H296.602L293.396 216H293.016ZM303.328 216L303.182 214.992H303.135C302.814 215.402 302.484 215.693 302.145 215.865C301.809 216.033 301.41 216.117 300.949 216.117C300.324 216.117 299.838 215.957 299.49 215.637C299.143 215.316 298.969 214.873 298.969 214.307C298.969 213.686 299.227 213.203 299.742 212.859C300.262 212.516 301.012 212.334 301.992 212.314L303.205 212.279V211.857C303.205 211.252 303.082 210.795 302.836 210.486C302.59 210.178 302.193 210.023 301.646 210.023C301.057 210.023 300.445 210.188 299.812 210.516L299.596 210.012C300.295 209.684 300.986 209.52 301.67 209.52C302.369 209.52 302.891 209.701 303.234 210.064C303.582 210.428 303.756 210.994 303.756 211.764V216H303.328ZM300.984 215.59C301.664 215.59 302.199 215.396 302.59 215.01C302.984 214.619 303.182 214.078 303.182 213.387V212.76L302.068 212.807C301.174 212.85 300.535 212.99 300.152 213.229C299.773 213.463 299.584 213.83 299.584 214.33C299.584 214.729 299.705 215.039 299.947 215.262C300.193 215.48 300.539 215.59 300.984 215.59ZM306.375 209.631V214.236L306.34 215.438L310.119 209.631H310.893V216H310.336V211.424L310.359 210.193L306.58 216H305.824V209.631H306.375ZM308.361 208.729C307.779 208.729 307.336 208.6 307.031 208.342C306.727 208.08 306.549 207.66 306.498 207.082H307.014C307.072 207.512 307.205 207.816 307.412 207.996C307.619 208.172 307.939 208.26 308.373 208.26C308.803 208.26 309.121 208.168 309.328 207.984C309.539 207.801 309.668 207.5 309.715 207.082H310.23C310.148 208.18 309.525 208.729 308.361 208.729Z" fill="black"/>
<path d="M234.551 212.977H231.07L229.875 216H229.213L232.658 207.398H233.039L236.414 216H235.74L234.551 212.977ZM231.287 212.438H234.352L233.186 209.35C233.088 209.107 232.971 208.771 232.834 208.342C232.729 208.717 232.613 209.057 232.488 209.361L231.287 212.438ZM238.066 216H237.486V209.631H242.566V216H241.986V210.182H238.066V216ZM247.43 216.117C246.449 216.117 245.734 215.75 245.285 215.016H245.244L245.262 215.508C245.277 215.797 245.285 216.113 245.285 216.457V218.883H244.705V209.631H245.197L245.309 210.539H245.344C245.781 209.852 246.48 209.508 247.441 209.508C248.301 209.508 248.955 209.791 249.404 210.357C249.857 210.92 250.084 211.74 250.084 212.818C250.084 213.865 249.846 214.678 249.369 215.256C248.896 215.83 248.25 216.117 247.43 216.117ZM247.418 215.602C248.07 215.602 248.574 215.359 248.93 214.875C249.289 214.391 249.469 213.713 249.469 212.842C249.469 210.971 248.793 210.035 247.441 210.035C246.699 210.035 246.154 210.24 245.807 210.65C245.459 211.057 245.285 211.721 245.285 212.643V212.83C245.285 213.826 245.451 214.537 245.783 214.963C246.119 215.389 246.664 215.602 247.418 215.602Z" fill="black"/>
<path d="M173.045 216L169.852 208.09H169.805C169.836 208.574 169.852 209.07 169.852 209.578V216H169.277V207.434H170.203L173.238 214.969H173.273L176.309 207.434H177.211V216H176.607V209.508C176.607 209.055 176.631 208.586 176.678 208.102H176.631L173.426 216H173.045ZM183.357 216L183.211 214.992H183.164C182.844 215.402 182.514 215.693 182.174 215.865C181.838 216.033 181.439 216.117 180.979 216.117C180.354 216.117 179.867 215.957 179.52 215.637C179.172 215.316 178.998 214.873 178.998 214.307C178.998 213.686 179.256 213.203 179.771 212.859C180.291 212.516 181.041 212.334 182.021 212.314L183.234 212.279V211.857C183.234 211.252 183.111 210.795 182.865 210.486C182.619 210.178 182.223 210.023 181.676 210.023C181.086 210.023 180.475 210.188 179.842 210.516L179.625 210.012C180.324 209.684 181.016 209.52 181.699 209.52C182.398 209.52 182.92 209.701 183.264 210.064C183.611 210.428 183.785 210.994 183.785 211.764V216H183.357ZM181.014 215.59C181.693 215.59 182.229 215.396 182.619 215.01C183.014 214.619 183.211 214.078 183.211 213.387V212.76L182.098 212.807C181.203 212.85 180.564 212.99 180.182 213.229C179.803 213.463 179.613 213.83 179.613 214.33C179.613 214.729 179.734 215.039 179.977 215.262C180.223 215.48 180.568 215.59 181.014 215.59ZM188.578 216.117C187.598 216.117 186.883 215.75 186.434 215.016H186.393L186.41 215.508C186.426 215.797 186.434 216.113 186.434 216.457V218.883H185.854V209.631H186.346L186.457 210.539H186.492C186.93 209.852 187.629 209.508 188.59 209.508C189.449 209.508 190.104 209.791 190.553 210.357C191.006 210.92 191.232 211.74 191.232 212.818C191.232 213.865 190.994 214.678 190.518 215.256C190.045 215.83 189.398 216.117 188.578 216.117ZM188.566 215.602C189.219 215.602 189.723 215.359 190.078 214.875C190.438 214.391 190.617 213.713 190.617 212.842C190.617 210.971 189.941 210.035 188.59 210.035C187.848 210.035 187.303 210.24 186.955 210.65C186.607 211.057 186.434 211.721 186.434 212.643V212.83C186.434 213.826 186.6 214.537 186.932 214.963C187.268 215.389 187.812 215.602 188.566 215.602Z" fill="black"/>
<path d="M113.004 207.311H113.602V208.365H113.854C114.928 208.365 115.758 208.641 116.344 209.191C116.934 209.742 117.229 210.508 117.229 211.488C117.229 212.168 117.092 212.756 116.818 213.252C116.549 213.748 116.146 214.131 115.611 214.4C115.08 214.666 114.432 214.799 113.666 214.799H113.602V216.117H113.004V214.799H112.898C112.145 214.799 111.504 214.666 110.977 214.4C110.453 214.135 110.057 213.762 109.787 213.281C109.518 212.801 109.383 212.227 109.383 211.559C109.383 210.949 109.52 210.4 109.793 209.912C110.066 209.42 110.459 209.039 110.971 208.77C111.482 208.5 112.088 208.365 112.787 208.365H113.004V207.311ZM113.602 214.307H113.689C114.611 214.307 115.322 214.064 115.822 213.58C116.326 213.092 116.578 212.402 116.578 211.512C116.578 210.656 116.344 210 115.875 209.543C115.406 209.086 114.732 208.857 113.854 208.857H113.602V214.307ZM113.004 208.857H112.764C111.908 208.857 111.238 209.096 110.754 209.572C110.27 210.049 110.027 210.699 110.027 211.523C110.027 212.41 110.277 213.096 110.777 213.58C111.281 214.064 111.992 214.307 112.91 214.307H113.004V208.857ZM121.523 216.117C120.598 216.117 119.875 215.832 119.355 215.262C118.84 214.691 118.582 213.893 118.582 212.865C118.582 211.85 118.832 211.037 119.332 210.428C119.832 209.814 120.506 209.508 121.354 209.508C122.104 209.508 122.695 209.77 123.129 210.293C123.562 210.816 123.779 211.527 123.779 212.426V212.895H119.191C119.199 213.77 119.402 214.438 119.801 214.898C120.203 215.359 120.777 215.59 121.523 215.59C121.887 215.59 122.205 215.564 122.479 215.514C122.756 215.463 123.105 215.354 123.527 215.186V215.713C123.168 215.869 122.836 215.975 122.531 216.029C122.227 216.088 121.891 216.117 121.523 216.117ZM121.354 210.023C120.74 210.023 120.248 210.227 119.877 210.633C119.506 211.035 119.289 211.617 119.227 212.379H123.164C123.164 211.641 123.004 211.064 122.684 210.65C122.363 210.232 121.92 210.023 121.354 210.023ZM130.424 211.166C130.424 211.568 130.324 211.885 130.125 212.115C129.926 212.342 129.602 212.5 129.152 212.59V212.631C129.664 212.689 130.033 212.838 130.26 213.076C130.49 213.311 130.605 213.648 130.605 214.09C130.605 214.703 130.402 215.176 129.996 215.508C129.594 215.836 129.004 216 128.227 216H125.537V209.631H128.238C128.965 209.631 129.51 209.762 129.873 210.023C130.24 210.285 130.424 210.666 130.424 211.166ZM129.99 214.078C129.99 213.297 129.391 212.906 128.191 212.906H126.117V215.449H128.273C129.418 215.449 129.99 214.992 129.99 214.078ZM129.809 211.213C129.809 210.842 129.676 210.578 129.41 210.422C129.145 210.262 128.746 210.182 128.215 210.182H126.117V212.361H128.145C128.738 212.361 129.164 212.27 129.422 212.086C129.68 211.902 129.809 211.611 129.809 211.213Z" fill="black"/>
<path d="M52.6055 212.268L50.3145 216H49.5938L52.002 212.15C51.4043 212.033 50.9414 211.777 50.6133 211.383C50.2852 210.988 50.1211 210.492 50.1211 209.895C50.1211 208.254 51.1484 207.434 53.2031 207.434H55.2422V216H54.6445V212.268H52.6055ZM54.6445 207.973H53.2266C52.3633 207.973 51.7363 208.123 51.3457 208.424C50.959 208.721 50.7656 209.201 50.7656 209.865C50.7656 210.49 50.957 210.961 51.3398 211.277C51.7227 211.594 52.2832 211.752 53.0215 211.752H54.6445V207.973ZM58.1016 209.631V212.426H62.1445V209.631H62.7188V216H62.1445V212.93H58.1016V216H57.5215V209.631H58.1016ZM69.7441 211.166C69.7441 211.568 69.6445 211.885 69.4453 212.115C69.2461 212.342 68.9219 212.5 68.4727 212.59V212.631C68.9844 212.689 69.3535 212.838 69.5801 213.076C69.8105 213.311 69.9258 213.648 69.9258 214.09C69.9258 214.703 69.7227 215.176 69.3164 215.508C68.9141 215.836 68.3242 216 67.5469 216H64.8574V209.631H67.5586C68.2852 209.631 68.8301 209.762 69.1934 210.023C69.5605 210.285 69.7441 210.666 69.7441 211.166ZM69.3105 214.078C69.3105 213.297 68.7109 212.906 67.5117 212.906H65.4375V215.449H67.5938C68.7383 215.449 69.3105 214.992 69.3105 214.078ZM69.1289 211.213C69.1289 210.842 68.9961 210.578 68.7305 210.422C68.4648 210.262 68.0664 210.182 67.5352 210.182H65.4375V212.361H67.4648C68.0586 212.361 68.4844 212.27 68.7422 212.086C69 211.902 69.1289 211.611 69.1289 211.213Z" fill="black"/>
<line x1="570" y1="192.5" x2="40" y2="192.5" stroke="black"/>
<line x1="570" y1="146.5" x2="40" y2="146.5" stroke="black"/>
<line x1="570" y1="100.5" x2="40" y2="100.5" stroke="black"/>
<line x1="570" y1="54.5" x2="40" y2="54.5" stroke="black"/>
<line x1="570" y1="8.5" x2="40" y2="8.49995" stroke="black"/>
<path d="M19.3262 192.693C19.3262 194.197 19.0957 195.311 18.6348 196.033C18.1777 196.756 17.4844 197.117 16.5547 197.117C15.6602 197.117 14.9805 196.746 14.5156 196.004C14.0508 195.258 13.8184 194.154 13.8184 192.693C13.8184 191.201 14.043 190.096 14.4922 189.377C14.9453 188.658 15.6328 188.299 16.5547 188.299C17.457 188.299 18.1445 188.672 18.6172 189.418C19.0898 190.16 19.3262 191.252 19.3262 192.693ZM14.4512 192.693C14.4512 194.021 14.625 195.004 14.9727 195.641C15.3203 196.273 15.8477 196.59 16.5547 196.59C17.293 196.59 17.8301 196.262 18.166 195.605C18.5059 194.949 18.6758 193.979 18.6758 192.693C18.6758 191.428 18.5059 190.467 18.166 189.811C17.8301 189.154 17.293 188.826 16.5547 188.826C15.8164 188.826 15.2812 189.154 14.9492 189.811C14.6172 190.467 14.4512 191.428 14.4512 192.693Z" fill="black"/>
<path d="M10.2852 151H9.71094V144.76C9.71094 144.193 9.73438 143.605 9.78125 142.996C9.72266 143.055 9.66211 143.111 9.59961 143.166C9.53711 143.221 8.93359 143.695 7.78906 144.59L7.45508 144.174L9.78125 142.434H10.2852V151ZM16.291 145.85C17.2051 145.85 17.9238 146.07 18.4473 146.512C18.9746 146.953 19.2383 147.561 19.2383 148.334C19.2383 149.213 18.9648 149.896 18.418 150.385C17.8711 150.873 17.1172 151.117 16.1562 151.117C15.7305 151.117 15.3262 151.076 14.9434 150.994C14.5605 150.908 14.2402 150.787 13.9824 150.631V150.027C14.4043 150.242 14.7793 150.393 15.1074 150.479C15.4355 150.561 15.7852 150.602 16.1562 150.602C16.9062 150.602 17.5078 150.404 17.9609 150.01C18.4141 149.611 18.6406 149.074 18.6406 148.398C18.6406 147.762 18.4199 147.262 17.9785 146.898C17.5371 146.535 16.9375 146.354 16.1797 146.354C15.6719 146.354 15.1406 146.43 14.5859 146.582L14.2344 146.354L14.5742 142.434H18.6992V142.996H15.125L14.8613 146.02C15.4707 145.906 15.9473 145.85 16.291 145.85Z" fill="black"/>
<path d="M12.0254 98.4492C12.0254 98.9805 11.8574 99.4277 11.5215 99.791C11.1895 100.154 10.7422 100.387 10.1797 100.488V100.523C10.8672 100.609 11.3906 100.828 11.75 101.18C12.1094 101.531 12.2891 102.004 12.2891 102.598C12.2891 103.398 12.0156 104.02 11.4688 104.461C10.9258 104.898 10.1426 105.117 9.11914 105.117C8.24805 105.117 7.48828 104.955 6.83984 104.631V104.051C7.16797 104.223 7.53516 104.357 7.94141 104.455C8.35156 104.553 8.73633 104.602 9.0957 104.602C9.95898 104.602 10.6074 104.428 11.041 104.08C11.4746 103.729 11.6914 103.234 11.6914 102.598C11.6914 102.031 11.4688 101.596 11.0234 101.291C10.582 100.986 9.93164 100.834 9.07227 100.834H8.14648V100.271H9.08398C9.79492 100.271 10.3574 100.104 10.7715 99.7676C11.1895 99.4277 11.3984 98.9688 11.3984 98.3906C11.3984 97.9141 11.2285 97.5332 10.8887 97.248C10.5527 96.959 10.1113 96.8145 9.56445 96.8145C9.13867 96.8145 8.75 96.875 8.39844 96.9961C8.04688 97.1133 7.65234 97.3164 7.21484 97.6055L6.92773 97.2129C7.25977 96.9355 7.66016 96.7168 8.12891 96.5566C8.59766 96.3926 9.07227 96.3105 9.55273 96.3105C10.3418 96.3105 10.9512 96.498 11.3809 96.873C11.8105 97.2441 12.0254 97.7695 12.0254 98.4492ZM19.3262 100.693C19.3262 102.197 19.0957 103.311 18.6348 104.033C18.1777 104.756 17.4844 105.117 16.5547 105.117C15.6602 105.117 14.9805 104.746 14.5156 104.004C14.0508 103.258 13.8184 102.154 13.8184 100.693C13.8184 99.2012 14.043 98.0957 14.4922 97.377C14.9453 96.6582 15.6328 96.2988 16.5547 96.2988C17.457 96.2988 18.1445 96.6719 18.6172 97.418C19.0898 98.1602 19.3262 99.252 19.3262 100.693ZM14.4512 100.693C14.4512 102.021 14.625 103.004 14.9727 103.641C15.3203 104.273 15.8477 104.59 16.5547 104.59C17.293 104.59 17.8301 104.262 18.166 103.605C18.5059 102.949 18.6758 101.979 18.6758 100.693C18.6758 99.4277 18.5059 98.4668 18.166 97.8105C17.8301 97.1543 17.293 96.8262 16.5547 96.8262C15.8164 96.8262 15.2812 97.1543 14.9492 97.8105C14.6172 98.4668 14.4512 99.4277 14.4512 100.693Z" fill="black"/>
<path d="M12.9746 56.8145H11.498V59H10.9473V56.8145H6.54102V56.4219L10.7891 50.3867H11.498V56.3105H12.9746V56.8145ZM10.9473 56.3105V53.8613C10.9473 52.6816 10.9746 51.6914 11.0293 50.8906H10.9824C10.9043 51.0352 10.6641 51.4023 10.2617 51.9922L7.23828 56.3105H10.9473ZM16.291 53.8496C17.2051 53.8496 17.9238 54.0703 18.4473 54.5117C18.9746 54.9531 19.2383 55.5605 19.2383 56.334C19.2383 57.2129 18.9648 57.8965 18.418 58.3848C17.8711 58.873 17.1172 59.1172 16.1562 59.1172C15.7305 59.1172 15.3262 59.0762 14.9434 58.9941C14.5605 58.9082 14.2402 58.7871 13.9824 58.6309V58.0273C14.4043 58.2422 14.7793 58.3926 15.1074 58.4785C15.4355 58.5605 15.7852 58.6016 16.1562 58.6016C16.9062 58.6016 17.5078 58.4043 17.9609 58.0098C18.4141 57.6113 18.6406 57.0742 18.6406 56.3984C18.6406 55.7617 18.4199 55.2617 17.9785 54.8984C17.5371 54.5352 16.9375 54.3535 16.1797 54.3535C15.6719 54.3535 15.1406 54.4297 14.5859 54.582L14.2344 54.3535L14.5742 50.4336H18.6992V50.9961H15.125L14.8613 54.0195C15.4707 53.9062 15.9473 53.8496 16.291 53.8496Z" fill="black"/>
<path d="M7.05664 9.34961C7.05664 8.23633 7.20703 7.30078 7.50781 6.54297C7.8125 5.78125 8.24219 5.2168 8.79688 4.84961C9.35547 4.48242 10.0273 4.29883 10.8125 4.29883C11.1797 4.29883 11.5156 4.34375 11.8203 4.43359V4.94922C11.5352 4.84375 11.1914 4.79102 10.7891 4.79102C9.82422 4.79102 9.07227 5.13867 8.5332 5.83398C7.99805 6.5293 7.69727 7.54102 7.63086 8.86914H7.70703C8.00391 8.48633 8.34375 8.19727 8.72656 8.00195C9.10938 7.80664 9.51367 7.70898 9.93945 7.70898C10.7402 7.70898 11.3652 7.9375 11.8145 8.39453C12.2676 8.85156 12.4941 9.48242 12.4941 10.2871C12.4941 11.1621 12.2559 11.8535 11.7793 12.3613C11.3066 12.8652 10.668 13.1172 9.86328 13.1172C8.99609 13.1172 8.31055 12.7871 7.80664 12.127C7.30664 11.4629 7.05664 10.5371 7.05664 9.34961ZM9.86328 12.6016C10.5039 12.6016 11.002 12.4004 11.3574 11.998C11.7129 11.5957 11.8906 11.0215 11.8906 10.2754C11.8906 9.61914 11.7148 9.10742 11.3633 8.74023C11.0117 8.37305 10.5332 8.18945 9.92773 8.18945C9.5293 8.18945 9.1582 8.27734 8.81445 8.45312C8.47461 8.62891 8.20312 8.86328 8 9.15625C7.79688 9.44531 7.69531 9.74219 7.69531 10.0469C7.69531 10.4805 7.79102 10.8984 7.98242 11.3008C8.17773 11.6992 8.43945 12.0156 8.76758 12.25C9.09961 12.4844 9.46484 12.6016 9.86328 12.6016ZM19.3262 8.69336C19.3262 10.1973 19.0957 11.3105 18.6348 12.0332C18.1777 12.7559 17.4844 13.1172 16.5547 13.1172C15.6602 13.1172 14.9805 12.7461 14.5156 12.0039C14.0508 11.2578 13.8184 10.1543 13.8184 8.69336C13.8184 7.20117 14.043 6.0957 14.4922 5.37695C14.9453 4.6582 15.6328 4.29883 16.5547 4.29883C17.457 4.29883 18.1445 4.67188 18.6172 5.41797C19.0898 6.16016 19.3262 7.25195 19.3262 8.69336ZM14.4512 8.69336C14.4512 10.0215 14.625 11.0039 14.9727 11.6406C15.3203 12.2734 15.8477 12.5898 16.5547 12.5898C17.293 12.5898 17.8301 12.2617 18.166 11.6055C18.5059 10.9492 18.6758 9.97852 18.6758 8.69336C18.6758 7.42773 18.5059 6.4668 18.166 5.81055C17.8301 5.1543 17.293 4.82617 16.5547 4.82617C15.8164 4.82617 15.2812 5.1543 14.9492 5.81055C14.6172 6.4668 14.4512 7.42773 14.4512 8.69336Z" fill="black"/>
<circle cx="539.5" cy="24.5" r="1.5" fill="#50CE1B"/>
<circle cx="479.5" cy="24.5" r="1.5" fill="#50CE1B"/>
<circle cx="419.5" cy="24.5" r="1.5" fill="#50CE1B"/>
<circle cx="359.5" cy="24.5" r="1.5" fill="#50CE1B"/>
<circle cx="299.5" cy="24.5" r="1.5" fill="#50CE1B"/>
<circle cx="239.5" cy="24.5" r="1.5" fill="#50CE1B"/>
<circle cx="179.5" cy="76.5" r="1.5" fill="#50CE1B"/>
<circle cx="119.5" cy="114.5" r="1.5" fill="#50CE1B"/>
<circle cx="59.5" cy="158.5" r="1.5" fill="#50CE1B"/>
<path d="M539 24.4999L240 24.4999L179.5 75.9999L119.5 114.5L59.5 158.5" stroke="#50CE1B"/>
</svg>
