<svg width="572" height="219" viewBox="0 0 572 219" fill="none" xmlns="http://www.w3.org/2000/svg">
<path d="M496.734 207.311H497.332V208.365H497.584C498.658 208.365 499.488 208.641 500.074 209.191C500.664 209.742 500.959 210.508 500.959 211.488C500.959 212.168 500.822 212.756 500.549 213.252C500.279 213.748 499.877 214.131 499.342 214.4C498.811 214.666 498.162 214.799 497.396 214.799H497.332V216.117H496.734V214.799H496.629C495.875 214.799 495.234 214.666 494.707 214.4C494.184 214.135 493.787 213.762 493.518 213.281C493.248 212.801 493.113 212.227 493.113 211.559C493.113 210.949 493.25 210.4 493.523 209.912C493.797 209.42 494.189 209.039 494.701 208.77C495.213 208.5 495.818 208.365 496.518 208.365H496.734V207.311ZM497.332 214.307H497.42C498.342 214.307 499.053 214.064 499.553 213.58C500.057 213.092 500.309 212.402 500.309 211.512C500.309 210.656 500.074 210 499.605 209.543C499.137 209.086 498.463 208.857 497.584 208.857H497.332V214.307ZM496.734 208.857H496.494C495.639 208.857 494.969 209.096 494.484 209.572C494 210.049 493.758 210.699 493.758 211.523C493.758 212.41 494.008 213.096 494.508 213.58C495.012 214.064 495.723 214.307 496.641 214.307H496.734V208.857ZM505.254 216.117C504.328 216.117 503.605 215.832 503.086 215.262C502.57 214.691 502.312 213.893 502.312 212.865C502.312 211.85 502.562 211.037 503.062 210.428C503.562 209.814 504.236 209.508 505.084 209.508C505.834 209.508 506.426 209.77 506.859 210.293C507.293 210.816 507.51 211.527 507.51 212.426V212.895H502.922C502.93 213.77 503.133 214.438 503.531 214.898C503.934 215.359 504.508 215.59 505.254 215.59C505.617 215.59 505.936 215.564 506.209 215.514C506.486 215.463 506.836 215.354 507.258 215.186V215.713C506.898 215.869 506.566 215.975 506.262 216.029C505.957 216.088 505.621 216.117 505.254 216.117ZM505.084 210.023C504.471 210.023 503.979 210.227 503.607 210.633C503.236 211.035 503.02 211.617 502.957 212.379H506.895C506.895 211.641 506.734 211.064 506.414 210.65C506.094 210.232 505.65 210.023 505.084 210.023ZM514.154 211.166C514.154 211.568 514.055 211.885 513.855 212.115C513.656 212.342 513.332 212.5 512.883 212.59V212.631C513.395 212.689 513.764 212.838 513.99 213.076C514.221 213.311 514.336 213.648 514.336 214.09C514.336 214.703 514.133 215.176 513.727 215.508C513.324 215.836 512.734 216 511.957 216H509.268V209.631H511.969C512.695 209.631 513.24 209.762 513.604 210.023C513.971 210.285 514.154 210.666 514.154 211.166ZM513.721 214.078C513.721 213.297 513.121 212.906 511.922 212.906H509.848V215.449H512.004C513.148 215.449 513.721 214.992 513.721 214.078ZM513.539 211.213C513.539 210.842 513.406 210.578 513.141 210.422C512.875 210.262 512.477 210.182 511.945 210.182H509.848V212.361H511.875C512.469 212.361 512.895 212.27 513.152 212.086C513.41 211.902 513.539 211.611 513.539 211.213ZM524.139 216H518.777V215.484L521.057 213.105C521.697 212.441 522.146 211.934 522.404 211.582C522.662 211.23 522.852 210.895 522.973 210.574C523.094 210.254 523.154 209.918 523.154 209.566C523.154 209.055 522.986 208.639 522.65 208.318C522.314 207.998 521.879 207.838 521.344 207.838C520.629 207.838 519.945 208.098 519.293 208.617L518.977 208.213C519.691 207.611 520.484 207.311 521.355 207.311C522.102 207.311 522.688 207.51 523.113 207.908C523.543 208.307 523.758 208.855 523.758 209.555C523.758 210.121 523.613 210.67 523.324 211.201C523.039 211.729 522.516 212.381 521.754 213.158L519.557 215.414V215.438H524.139V216ZM531.152 211.693C531.152 213.197 530.922 214.311 530.461 215.033C530.004 215.756 529.311 216.117 528.381 216.117C527.486 216.117 526.807 215.746 526.342 215.004C525.877 214.258 525.645 213.154 525.645 211.693C525.645 210.201 525.869 209.096 526.318 208.377C526.771 207.658 527.459 207.299 528.381 207.299C529.283 207.299 529.971 207.672 530.443 208.418C530.916 209.16 531.152 210.252 531.152 211.693ZM526.277 211.693C526.277 213.021 526.451 214.004 526.799 214.641C527.146 215.273 527.674 215.59 528.381 215.59C529.119 215.59 529.656 215.262 529.992 214.605C530.332 213.949 530.502 212.979 530.502 211.693C530.502 210.428 530.332 209.467 529.992 208.811C529.656 208.154 529.119 207.826 528.381 207.826C527.643 207.826 527.107 208.154 526.775 208.811C526.443 209.467 526.277 210.428 526.277 211.693ZM535.822 216H535.248V209.76C535.248 209.193 535.271 208.605 535.318 207.996C535.26 208.055 535.199 208.111 535.137 208.166C535.074 208.221 534.471 208.695 533.326 209.59L532.992 209.174L535.318 207.434H535.822V216ZM542.092 207.287C542.818 207.287 543.402 207.473 543.844 207.844C544.289 208.215 544.512 208.717 544.512 209.35C544.512 209.787 544.373 210.174 544.096 210.51C543.822 210.846 543.377 211.156 542.76 211.441C543.51 211.75 544.037 212.088 544.342 212.455C544.646 212.822 544.799 213.268 544.799 213.791C544.799 214.498 544.551 215.062 544.055 215.484C543.562 215.906 542.9 216.117 542.068 216.117C541.205 216.117 540.543 215.92 540.082 215.525C539.621 215.131 539.391 214.557 539.391 213.803C539.391 213.291 539.553 212.842 539.877 212.455C540.201 212.068 540.703 211.738 541.383 211.465C540.754 211.168 540.311 210.855 540.053 210.527C539.795 210.195 539.666 209.799 539.666 209.338C539.666 208.928 539.77 208.568 539.977 208.26C540.184 207.947 540.473 207.707 540.844 207.539C541.219 207.371 541.635 207.287 542.092 207.287ZM539.988 213.891C539.988 214.43 540.17 214.848 540.533 215.145C540.9 215.441 541.412 215.59 542.068 215.59C542.709 215.59 543.225 215.434 543.615 215.121C544.006 214.805 544.201 214.377 544.201 213.838C544.201 213.354 544.047 212.961 543.738 212.66C543.434 212.355 542.844 212.037 541.969 211.705C541.25 211.982 540.74 212.289 540.439 212.625C540.139 212.961 539.988 213.383 539.988 213.891ZM542.08 207.814C541.529 207.814 541.086 207.951 540.75 208.225C540.418 208.494 540.252 208.865 540.252 209.338C540.252 209.611 540.312 209.854 540.434 210.064C540.559 210.271 540.736 210.461 540.967 210.633C541.201 210.801 541.592 210.998 542.139 211.225C542.775 210.979 543.232 210.707 543.51 210.41C543.787 210.113 543.926 209.756 543.926 209.338C543.926 208.869 543.76 208.498 543.428 208.225C543.1 207.951 542.65 207.814 542.08 207.814Z" fill="black"/>
<path d="M387.336 212.268L385.045 216H384.324L386.732 212.15C386.135 212.033 385.672 211.777 385.344 211.383C385.016 210.988 384.852 210.492 384.852 209.895C384.852 208.254 385.879 207.434 387.934 207.434H389.973V216H389.375V212.268H387.336ZM389.375 207.973H387.957C387.094 207.973 386.467 208.123 386.076 208.424C385.689 208.721 385.496 209.201 385.496 209.865C385.496 210.49 385.688 210.961 386.07 211.277C386.453 211.594 387.014 211.752 387.752 211.752H389.375V207.973ZM392.832 209.631V212.426H396.875V209.631H397.449V216H396.875V212.93H392.832V216H392.252V209.631H392.832ZM404.475 211.166C404.475 211.568 404.375 211.885 404.176 212.115C403.977 212.342 403.652 212.5 403.203 212.59V212.631C403.715 212.689 404.084 212.838 404.311 213.076C404.541 213.311 404.656 213.648 404.656 214.09C404.656 214.703 404.453 215.176 404.047 215.508C403.645 215.836 403.055 216 402.277 216H399.588V209.631H402.289C403.016 209.631 403.561 209.762 403.924 210.023C404.291 210.285 404.475 210.666 404.475 211.166ZM404.041 214.078C404.041 213.297 403.441 212.906 402.242 212.906H400.168V215.449H402.324C403.469 215.449 404.041 214.992 404.041 214.078ZM403.859 211.213C403.859 210.842 403.727 210.578 403.461 210.422C403.195 210.262 402.797 210.182 402.266 210.182H400.168V212.361H402.195C402.789 212.361 403.215 212.27 403.473 212.086C403.73 211.902 403.859 211.611 403.859 211.213ZM414.459 216H409.098V215.484L411.377 213.105C412.018 212.441 412.467 211.934 412.725 211.582C412.982 211.23 413.172 210.895 413.293 210.574C413.414 210.254 413.475 209.918 413.475 209.566C413.475 209.055 413.307 208.639 412.971 208.318C412.635 207.998 412.199 207.838 411.664 207.838C410.949 207.838 410.266 208.098 409.613 208.617L409.297 208.213C410.012 207.611 410.805 207.311 411.676 207.311C412.422 207.311 413.008 207.51 413.434 207.908C413.863 208.307 414.078 208.855 414.078 209.555C414.078 210.121 413.934 210.67 413.645 211.201C413.359 211.729 412.836 212.381 412.074 213.158L409.877 215.414V215.438H414.459V216ZM421.473 211.693C421.473 213.197 421.242 214.311 420.781 215.033C420.324 215.756 419.631 216.117 418.701 216.117C417.807 216.117 417.127 215.746 416.662 215.004C416.197 214.258 415.965 213.154 415.965 211.693C415.965 210.201 416.189 209.096 416.639 208.377C417.092 207.658 417.779 207.299 418.701 207.299C419.604 207.299 420.291 207.672 420.764 208.418C421.236 209.16 421.473 210.252 421.473 211.693ZM416.598 211.693C416.598 213.021 416.771 214.004 417.119 214.641C417.467 215.273 417.994 215.59 418.701 215.59C419.439 215.59 419.977 215.262 420.312 214.605C420.652 213.949 420.822 212.979 420.822 211.693C420.822 210.428 420.652 209.467 420.312 208.811C419.977 208.154 419.439 207.826 418.701 207.826C417.963 207.826 417.428 208.154 417.096 208.811C416.764 209.467 416.598 210.428 416.598 211.693ZM426.143 216H425.568V209.76C425.568 209.193 425.592 208.605 425.639 207.996C425.58 208.055 425.52 208.111 425.457 208.166C425.395 208.221 424.791 208.695 423.646 209.59L423.312 209.174L425.639 207.434H426.143V216ZM432.412 207.287C433.139 207.287 433.723 207.473 434.164 207.844C434.609 208.215 434.832 208.717 434.832 209.35C434.832 209.787 434.693 210.174 434.416 210.51C434.143 210.846 433.697 211.156 433.08 211.441C433.83 211.75 434.357 212.088 434.662 212.455C434.967 212.822 435.119 213.268 435.119 213.791C435.119 214.498 434.871 215.062 434.375 215.484C433.883 215.906 433.221 216.117 432.389 216.117C431.525 216.117 430.863 215.92 430.402 215.525C429.941 215.131 429.711 214.557 429.711 213.803C429.711 213.291 429.873 212.842 430.197 212.455C430.521 212.068 431.023 211.738 431.703 211.465C431.074 211.168 430.631 210.855 430.373 210.527C430.115 210.195 429.986 209.799 429.986 209.338C429.986 208.928 430.09 208.568 430.297 208.26C430.504 207.947 430.793 207.707 431.164 207.539C431.539 207.371 431.955 207.287 432.412 207.287ZM430.309 213.891C430.309 214.43 430.49 214.848 430.854 215.145C431.221 215.441 431.732 215.59 432.389 215.59C433.029 215.59 433.545 215.434 433.936 215.121C434.326 214.805 434.521 214.377 434.521 213.838C434.521 213.354 434.367 212.961 434.059 212.66C433.754 212.355 433.164 212.037 432.289 211.705C431.57 211.982 431.061 212.289 430.76 212.625C430.459 212.961 430.309 213.383 430.309 213.891ZM432.4 207.814C431.85 207.814 431.406 207.951 431.07 208.225C430.738 208.494 430.572 208.865 430.572 209.338C430.572 209.611 430.633 209.854 430.754 210.064C430.879 210.271 431.057 210.461 431.287 210.633C431.521 210.801 431.912 210.998 432.459 211.225C433.096 210.979 433.553 210.707 433.83 210.41C434.107 210.113 434.246 209.756 434.246 209.338C434.246 208.869 434.08 208.498 433.748 208.225C433.42 207.951 432.971 207.814 432.4 207.814Z" fill="black"/>
<path d="M283.24 218.162H282.666V216H276.426V218.162H275.846V215.438H276.461C277.039 214.434 277.547 213.16 277.984 211.617C278.422 210.07 278.666 208.676 278.717 207.434H282.361V215.438H283.24V218.162ZM281.752 215.438V207.996H279.232C279.139 209.227 278.893 210.553 278.494 211.975C278.096 213.396 277.641 214.551 277.129 215.438H281.752ZM287.242 216.117C286.316 216.117 285.594 215.832 285.074 215.262C284.559 214.691 284.301 213.893 284.301 212.865C284.301 211.85 284.551 211.037 285.051 210.428C285.551 209.814 286.225 209.508 287.072 209.508C287.822 209.508 288.414 209.77 288.848 210.293C289.281 210.816 289.498 211.527 289.498 212.426V212.895H284.91C284.918 213.77 285.121 214.438 285.52 214.898C285.922 215.359 286.496 215.59 287.242 215.59C287.605 215.59 287.924 215.564 288.197 215.514C288.475 215.463 288.824 215.354 289.246 215.186V215.713C288.887 215.869 288.555 215.975 288.25 216.029C287.945 216.088 287.609 216.117 287.242 216.117ZM287.072 210.023C286.459 210.023 285.967 210.227 285.596 210.633C285.225 211.035 285.008 211.617 284.945 212.379H288.883C288.883 211.641 288.723 211.064 288.402 210.65C288.082 210.232 287.639 210.023 287.072 210.023ZM294.713 209.631H295.434L292.58 212.713L295.639 216H294.859L291.848 212.771V216H291.256V209.631H291.848V212.725L294.713 209.631ZM304.838 216H299.477V215.484L301.756 213.105C302.396 212.441 302.846 211.934 303.104 211.582C303.361 211.23 303.551 210.895 303.672 210.574C303.793 210.254 303.854 209.918 303.854 209.566C303.854 209.055 303.686 208.639 303.35 208.318C303.014 207.998 302.578 207.838 302.043 207.838C301.328 207.838 300.645 208.098 299.992 208.617L299.676 208.213C300.391 207.611 301.184 207.311 302.055 207.311C302.801 207.311 303.387 207.51 303.812 207.908C304.242 208.307 304.457 208.855 304.457 209.555C304.457 210.121 304.312 210.67 304.023 211.201C303.738 211.729 303.215 212.381 302.453 213.158L300.256 215.414V215.438H304.838V216ZM311.852 211.693C311.852 213.197 311.621 214.311 311.16 215.033C310.703 215.756 310.01 216.117 309.08 216.117C308.186 216.117 307.506 215.746 307.041 215.004C306.576 214.258 306.344 213.154 306.344 211.693C306.344 210.201 306.568 209.096 307.018 208.377C307.471 207.658 308.158 207.299 309.08 207.299C309.982 207.299 310.67 207.672 311.143 208.418C311.615 209.16 311.852 210.252 311.852 211.693ZM306.977 211.693C306.977 213.021 307.15 214.004 307.498 214.641C307.846 215.273 308.373 215.59 309.08 215.59C309.818 215.59 310.355 215.262 310.691 214.605C311.031 213.949 311.201 212.979 311.201 211.693C311.201 210.428 311.031 209.467 310.691 208.811C310.355 208.154 309.818 207.826 309.08 207.826C308.342 207.826 307.807 208.154 307.475 208.811C307.143 209.467 306.977 210.428 306.977 211.693ZM316.521 216H315.947V209.76C315.947 209.193 315.971 208.605 316.018 207.996C315.959 208.055 315.898 208.111 315.836 208.166C315.773 208.221 315.17 208.695 314.025 209.59L313.691 209.174L316.018 207.434H316.521V216ZM321.338 216L324.865 207.996H320.02V207.434H325.562V207.861L322.023 216H321.338Z" fill="black"/>
<path d="M173.139 216H172.535V211.787H167.531V216H166.934V207.434H167.531V211.236H172.535V207.434H173.139V216ZM180.691 212.807C180.691 213.846 180.439 214.658 179.936 215.244C179.432 215.826 178.736 216.117 177.85 216.117C177.291 216.117 176.799 215.982 176.373 215.713C175.947 215.443 175.621 215.057 175.395 214.553C175.168 214.049 175.055 213.467 175.055 212.807C175.055 211.768 175.307 210.959 175.811 210.381C176.314 209.799 177.006 209.508 177.885 209.508C178.76 209.508 179.445 209.803 179.941 210.393C180.441 210.979 180.691 211.783 180.691 212.807ZM175.664 212.807C175.664 213.682 175.855 214.365 176.238 214.857C176.625 215.346 177.17 215.59 177.873 215.59C178.576 215.59 179.119 215.346 179.502 214.857C179.889 214.365 180.082 213.682 180.082 212.807C180.082 211.928 179.887 211.246 179.496 210.762C179.109 210.277 178.564 210.035 177.861 210.035C177.158 210.035 176.615 210.277 176.232 210.762C175.854 211.242 175.664 211.924 175.664 212.807ZM182.361 216H181.629L183.551 213.252C182.965 213.143 182.541 212.939 182.279 212.643C182.021 212.346 181.893 211.965 181.893 211.5C181.893 210.922 182.086 210.467 182.473 210.135C182.863 209.799 183.387 209.631 184.043 209.631H186.668V216H186.094V213.322H184.148L182.361 216ZM182.502 211.477C182.502 211.914 182.643 212.24 182.924 212.455C183.209 212.666 183.637 212.771 184.207 212.771H186.094V210.182H184.031C183.547 210.182 183.17 210.293 182.9 210.516C182.635 210.734 182.502 211.055 182.502 211.477ZM196.881 216H191.52V215.484L193.799 213.105C194.439 212.441 194.889 211.934 195.146 211.582C195.404 211.23 195.594 210.895 195.715 210.574C195.836 210.254 195.896 209.918 195.896 209.566C195.896 209.055 195.729 208.639 195.393 208.318C195.057 207.998 194.621 207.838 194.086 207.838C193.371 207.838 192.688 208.098 192.035 208.617L191.719 208.213C192.434 207.611 193.227 207.311 194.098 207.311C194.844 207.311 195.43 207.51 195.855 207.908C196.285 208.307 196.5 208.855 196.5 209.555C196.5 210.121 196.355 210.67 196.066 211.201C195.781 211.729 195.258 212.381 194.496 213.158L192.299 215.414V215.438H196.881V216ZM203.895 211.693C203.895 213.197 203.664 214.311 203.203 215.033C202.746 215.756 202.053 216.117 201.123 216.117C200.229 216.117 199.549 215.746 199.084 215.004C198.619 214.258 198.387 213.154 198.387 211.693C198.387 210.201 198.611 209.096 199.061 208.377C199.514 207.658 200.201 207.299 201.123 207.299C202.025 207.299 202.713 207.672 203.186 208.418C203.658 209.16 203.895 210.252 203.895 211.693ZM199.02 211.693C199.02 213.021 199.193 214.004 199.541 214.641C199.889 215.273 200.416 215.59 201.123 215.59C201.861 215.59 202.398 215.262 202.734 214.605C203.074 213.949 203.244 212.979 203.244 211.693C203.244 210.428 203.074 209.467 202.734 208.811C202.398 208.154 201.861 207.826 201.123 207.826C200.385 207.826 199.85 208.154 199.518 208.811C199.186 209.467 199.02 210.428 199.02 211.693ZM208.564 216H207.99V209.76C207.99 209.193 208.014 208.605 208.061 207.996C208.002 208.055 207.941 208.111 207.879 208.166C207.816 208.221 207.213 208.695 206.068 209.59L205.734 209.174L208.061 207.434H208.564V216ZM213.381 216L216.908 207.996H212.062V207.434H217.605V207.861L214.066 216H213.381Z" fill="black"/>
<path d="M66.125 211.705C66.125 213.064 65.7852 214.141 65.1055 214.934C64.4258 215.723 63.4883 216.117 62.293 216.117C61.1016 216.117 60.166 215.723 59.4863 214.934C58.8066 214.141 58.4668 213.061 58.4668 211.693C58.4668 210.33 58.8086 209.258 59.4922 208.477C60.1797 207.691 61.1172 207.299 62.3047 207.299C63.5 207.299 64.4355 207.693 65.1113 208.482C65.7871 209.268 66.125 210.342 66.125 211.705ZM59.1172 211.705C59.1172 212.932 59.3906 213.881 59.9375 214.553C60.4844 215.221 61.2695 215.555 62.293 215.555C63.3242 215.555 64.1113 215.223 64.6543 214.559C65.2012 213.895 65.4746 212.943 65.4746 211.705C65.4746 210.471 65.2012 209.525 64.6543 208.869C64.1113 208.209 63.3281 207.879 62.3047 207.879C61.2852 207.879 60.498 208.211 59.9434 208.875C59.3926 209.539 59.1172 210.482 59.1172 211.705ZM71.4102 209.631H72.1309L69.2773 212.713L72.3359 216H71.5566L68.5449 212.771V216H67.9531V209.631H68.5449V212.725L71.4102 209.631ZM77.5039 210.135H75.3828V216H74.8086V210.135H72.6348V209.631H77.5039V210.135ZM86.8906 216H81.5293V215.484L83.8086 213.105C84.4492 212.441 84.8984 211.934 85.1562 211.582C85.4141 211.23 85.6035 210.895 85.7246 210.574C85.8457 210.254 85.9062 209.918 85.9062 209.566C85.9062 209.055 85.7383 208.639 85.4023 208.318C85.0664 207.998 84.6309 207.838 84.0957 207.838C83.3809 207.838 82.6973 208.098 82.0449 208.617L81.7285 208.213C82.4434 207.611 83.2363 207.311 84.1074 207.311C84.8535 207.311 85.4395 207.51 85.8652 207.908C86.2949 208.307 86.5098 208.855 86.5098 209.555C86.5098 210.121 86.3652 210.67 86.0762 211.201C85.791 211.729 85.2676 212.381 84.5059 213.158L82.3086 215.414V215.438H86.8906V216ZM93.9043 211.693C93.9043 213.197 93.6738 214.311 93.2129 215.033C92.7559 215.756 92.0625 216.117 91.1328 216.117C90.2383 216.117 89.5586 215.746 89.0938 215.004C88.6289 214.258 88.3965 213.154 88.3965 211.693C88.3965 210.201 88.6211 209.096 89.0703 208.377C89.5234 207.658 90.2109 207.299 91.1328 207.299C92.0352 207.299 92.7227 207.672 93.1953 208.418C93.668 209.16 93.9043 210.252 93.9043 211.693ZM89.0293 211.693C89.0293 213.021 89.2031 214.004 89.5508 214.641C89.8984 215.273 90.4258 215.59 91.1328 215.59C91.8711 215.59 92.4082 215.262 92.7441 214.605C93.084 213.949 93.2539 212.979 93.2539 211.693C93.2539 210.428 93.084 209.467 92.7441 208.811C92.4082 208.154 91.8711 207.826 91.1328 207.826C90.3945 207.826 89.8594 208.154 89.5273 208.811C89.1953 209.467 89.0293 210.428 89.0293 211.693ZM98.5742 216H98V209.76C98 209.193 98.0234 208.605 98.0703 207.996C98.0117 208.055 97.9512 208.111 97.8887 208.166C97.8262 208.221 97.2227 208.695 96.0781 209.59L95.7441 209.174L98.0703 207.434H98.5742V216ZM103.391 216L106.918 207.996H102.072V207.434H107.615V207.861L104.076 216H103.391Z" fill="black"/>
<line x1="570" y1="192.5" x2="40" y2="192.5" stroke="black"/>
<line x1="570" y1="146.5" x2="40" y2="146.5" stroke="black"/>
<line x1="570" y1="100.5" x2="40" y2="100.5" stroke="black"/>
<line x1="570" y1="54.5" x2="40" y2="54.5" stroke="black"/>
<line x1="570" y1="8.5" x2="40" y2="8.49995" stroke="black"/>
<rect x="499" y="8" width="40" height="184" fill="#50CE1B"/>
<rect x="390" y="42" width="40" height="150" fill="#50CE1B"/>
<rect x="281" y="72" width="40" height="120" fill="#50CE1B"/>
<rect x="172" y="112" width="40" height="80" fill="#50CE1B"/>
<rect x="63" y="132" width="40" height="60" fill="#50CE1B"/>
<path d="M29.3262 192.693C29.3262 194.197 29.0957 195.311 28.6348 196.033C28.1777 196.756 27.4844 197.117 26.5547 197.117C25.6602 197.117 24.9805 196.746 24.5156 196.004C24.0508 195.258 23.8184 194.154 23.8184 192.693C23.8184 191.201 24.043 190.096 24.4922 189.377C24.9453 188.658 25.6328 188.299 26.5547 188.299C27.457 188.299 28.1445 188.672 28.6172 189.418C29.0898 190.16 29.3262 191.252 29.3262 192.693ZM24.4512 192.693C24.4512 194.021 24.625 195.004 24.9727 195.641C25.3203 196.273 25.8477 196.59 26.5547 196.59C27.293 196.59 27.8301 196.262 28.166 195.605C28.5059 194.949 28.6758 193.979 28.6758 192.693C28.6758 191.428 28.5059 190.467 28.166 189.811C27.8301 189.154 27.293 188.826 26.5547 188.826C25.8164 188.826 25.2812 189.154 24.9492 189.811C24.6172 190.467 24.4512 191.428 24.4512 192.693Z" fill="black"/>
<path d="M15.457 151H10.0957V150.484L12.375 148.105C13.0156 147.441 13.4648 146.934 13.7227 146.582C13.9805 146.23 14.1699 145.895 14.291 145.574C14.4121 145.254 14.4727 144.918 14.4727 144.566C14.4727 144.055 14.3047 143.639 13.9688 143.318C13.6328 142.998 13.1973 142.838 12.6621 142.838C11.9473 142.838 11.2637 143.098 10.6113 143.617L10.2949 143.213C11.0098 142.611 11.8027 142.311 12.6738 142.311C13.4199 142.311 14.0059 142.51 14.4316 142.908C14.8613 143.307 15.0762 143.855 15.0762 144.555C15.0762 145.121 14.9316 145.67 14.6426 146.201C14.3574 146.729 13.834 147.381 13.0723 148.158L10.875 150.414V150.438H15.457V151ZM19.4355 145.85C20.3496 145.85 21.0684 146.07 21.5918 146.512C22.1191 146.953 22.3828 147.561 22.3828 148.334C22.3828 149.213 22.1094 149.896 21.5625 150.385C21.0156 150.873 20.2617 151.117 19.3008 151.117C18.875 151.117 18.4707 151.076 18.0879 150.994C17.7051 150.908 17.3848 150.787 17.127 150.631V150.027C17.5488 150.242 17.9238 150.393 18.252 150.479C18.5801 150.561 18.9297 150.602 19.3008 150.602C20.0508 150.602 20.6523 150.404 21.1055 150.01C21.5586 149.611 21.7852 149.074 21.7852 148.398C21.7852 147.762 21.5645 147.262 21.123 146.898C20.6816 146.535 20.082 146.354 19.3242 146.354C18.8164 146.354 18.2852 146.43 17.7305 146.582L17.3789 146.354L17.7188 142.434H21.8438V142.996H18.2695L18.0059 146.02C18.6152 145.906 19.0918 145.85 19.4355 145.85ZM29.3262 146.693C29.3262 148.197 29.0957 149.311 28.6348 150.033C28.1777 150.756 27.4844 151.117 26.5547 151.117C25.6602 151.117 24.9805 150.746 24.5156 150.004C24.0508 149.258 23.8184 148.154 23.8184 146.693C23.8184 145.201 24.043 144.096 24.4922 143.377C24.9453 142.658 25.6328 142.299 26.5547 142.299C27.457 142.299 28.1445 142.672 28.6172 143.418C29.0898 144.16 29.3262 145.252 29.3262 146.693ZM24.4512 146.693C24.4512 148.021 24.625 149.004 24.9727 149.641C25.3203 150.273 25.8477 150.59 26.5547 150.59C27.293 150.59 27.8301 150.262 28.166 149.605C28.5059 148.949 28.6758 147.979 28.6758 146.693C28.6758 145.428 28.5059 144.467 28.166 143.811C27.8301 143.154 27.293 142.826 26.5547 142.826C25.8164 142.826 25.2812 143.154 24.9492 143.811C24.6172 144.467 24.4512 145.428 24.4512 146.693Z" fill="black"/>
<path d="M12.5801 99.8496C13.4941 99.8496 14.2129 100.07 14.7363 100.512C15.2637 100.953 15.5273 101.561 15.5273 102.334C15.5273 103.213 15.2539 103.896 14.707 104.385C14.1602 104.873 13.4062 105.117 12.4453 105.117C12.0195 105.117 11.6152 105.076 11.2324 104.994C10.8496 104.908 10.5293 104.787 10.2715 104.631V104.027C10.6934 104.242 11.0684 104.393 11.3965 104.479C11.7246 104.561 12.0742 104.602 12.4453 104.602C13.1953 104.602 13.7969 104.404 14.25 104.01C14.7031 103.611 14.9297 103.074 14.9297 102.398C14.9297 101.762 14.709 101.262 14.2676 100.898C13.8262 100.535 13.2266 100.354 12.4688 100.354C11.9609 100.354 11.4297 100.43 10.875 100.582L10.5234 100.354L10.8633 96.4336H14.9883V96.9961H11.4141L11.1504 100.02C11.7598 99.9062 12.2363 99.8496 12.5801 99.8496ZM22.4707 100.693C22.4707 102.197 22.2402 103.311 21.7793 104.033C21.3223 104.756 20.6289 105.117 19.6992 105.117C18.8047 105.117 18.125 104.746 17.6602 104.004C17.1953 103.258 16.9629 102.154 16.9629 100.693C16.9629 99.2012 17.1875 98.0957 17.6367 97.377C18.0898 96.6582 18.7773 96.2988 19.6992 96.2988C20.6016 96.2988 21.2891 96.6719 21.7617 97.418C22.2344 98.1602 22.4707 99.252 22.4707 100.693ZM17.5957 100.693C17.5957 102.021 17.7695 103.004 18.1172 103.641C18.4648 104.273 18.9922 104.59 19.6992 104.59C20.4375 104.59 20.9746 104.262 21.3105 103.605C21.6504 102.949 21.8203 101.979 21.8203 100.693C21.8203 99.4277 21.6504 98.4668 21.3105 97.8105C20.9746 97.1543 20.4375 96.8262 19.6992 96.8262C18.9609 96.8262 18.4258 97.1543 18.0938 97.8105C17.7617 98.4668 17.5957 99.4277 17.5957 100.693ZM29.3262 100.693C29.3262 102.197 29.0957 103.311 28.6348 104.033C28.1777 104.756 27.4844 105.117 26.5547 105.117C25.6602 105.117 24.9805 104.746 24.5156 104.004C24.0508 103.258 23.8184 102.154 23.8184 100.693C23.8184 99.2012 24.043 98.0957 24.4922 97.377C24.9453 96.6582 25.6328 96.2988 26.5547 96.2988C27.457 96.2988 28.1445 96.6719 28.6172 97.418C29.0898 98.1602 29.3262 99.252 29.3262 100.693ZM24.4512 100.693C24.4512 102.021 24.625 103.004 24.9727 103.641C25.3203 104.273 25.8477 104.59 26.5547 104.59C27.293 104.59 27.8301 104.262 28.166 103.605C28.5059 102.949 28.6758 101.979 28.6758 100.693C28.6758 99.4277 28.5059 98.4668 28.166 97.8105C27.8301 97.1543 27.293 96.8262 26.5547 96.8262C25.8164 96.8262 25.2812 97.1543 24.9492 97.8105C24.6172 98.4668 24.4512 99.4277 24.4512 100.693Z" fill="black"/>
<path d="M11.3906 59L14.918 50.9961H10.0723V50.4336H15.6152V50.8613L12.0762 59H11.3906ZM19.4355 53.8496C20.3496 53.8496 21.0684 54.0703 21.5918 54.5117C22.1191 54.9531 22.3828 55.5605 22.3828 56.334C22.3828 57.2129 22.1094 57.8965 21.5625 58.3848C21.0156 58.873 20.2617 59.1172 19.3008 59.1172C18.875 59.1172 18.4707 59.0762 18.0879 58.9941C17.7051 58.9082 17.3848 58.7871 17.127 58.6309V58.0273C17.5488 58.2422 17.9238 58.3926 18.252 58.4785C18.5801 58.5605 18.9297 58.6016 19.3008 58.6016C20.0508 58.6016 20.6523 58.4043 21.1055 58.0098C21.5586 57.6113 21.7852 57.0742 21.7852 56.3984C21.7852 55.7617 21.5645 55.2617 21.123 54.8984C20.6816 54.5352 20.082 54.3535 19.3242 54.3535C18.8164 54.3535 18.2852 54.4297 17.7305 54.582L17.3789 54.3535L17.7188 50.4336H21.8438V50.9961H18.2695L18.0059 54.0195C18.6152 53.9062 19.0918 53.8496 19.4355 53.8496ZM29.3262 54.6934C29.3262 56.1973 29.0957 57.3105 28.6348 58.0332C28.1777 58.7559 27.4844 59.1172 26.5547 59.1172C25.6602 59.1172 24.9805 58.7461 24.5156 58.0039C24.0508 57.2578 23.8184 56.1543 23.8184 54.6934C23.8184 53.2012 24.043 52.0957 24.4922 51.377C24.9453 50.6582 25.6328 50.2988 26.5547 50.2988C27.457 50.2988 28.1445 50.6719 28.6172 51.418C29.0898 52.1602 29.3262 53.252 29.3262 54.6934ZM24.4512 54.6934C24.4512 56.0215 24.625 57.0039 24.9727 57.6406C25.3203 58.2734 25.8477 58.5898 26.5547 58.5898C27.293 58.5898 27.8301 58.2617 28.166 57.6055C28.5059 56.9492 28.6758 55.9785 28.6758 54.6934C28.6758 53.4277 28.5059 52.4668 28.166 51.8105C27.8301 51.1543 27.293 50.8262 26.5547 50.8262C25.8164 50.8262 25.2812 51.1543 24.9492 51.8105C24.6172 52.4668 24.4512 53.4277 24.4512 54.6934Z" fill="black"/>
<path d="M6.57422 13H6V6.75977C6 6.19336 6.02344 5.60547 6.07031 4.99609C6.01172 5.05469 5.95117 5.11133 5.88867 5.16602C5.82617 5.2207 5.22266 5.69531 4.07812 6.58984L3.74414 6.17383L6.07031 4.43359H6.57422V13ZM15.6152 8.69336C15.6152 10.1973 15.3848 11.3105 14.9238 12.0332C14.4668 12.7559 13.7734 13.1172 12.8438 13.1172C11.9492 13.1172 11.2695 12.7461 10.8047 12.0039C10.3398 11.2578 10.1074 10.1543 10.1074 8.69336C10.1074 7.20117 10.332 6.0957 10.7812 5.37695C11.2344 4.6582 11.9219 4.29883 12.8438 4.29883C13.7461 4.29883 14.4336 4.67188 14.9062 5.41797C15.3789 6.16016 15.6152 7.25195 15.6152 8.69336ZM10.7402 8.69336C10.7402 10.0215 10.9141 11.0039 11.2617 11.6406C11.6094 12.2734 12.1367 12.5898 12.8438 12.5898C13.582 12.5898 14.1191 12.2617 14.4551 11.6055C14.7949 10.9492 14.9648 9.97852 14.9648 8.69336C14.9648 7.42773 14.7949 6.4668 14.4551 5.81055C14.1191 5.1543 13.582 4.82617 12.8438 4.82617C12.1055 4.82617 11.5703 5.1543 11.2383 5.81055C10.9062 6.4668 10.7402 7.42773 10.7402 8.69336ZM22.4707 8.69336C22.4707 10.1973 22.2402 11.3105 21.7793 12.0332C21.3223 12.7559 20.6289 13.1172 19.6992 13.1172C18.8047 13.1172 18.125 12.7461 17.6602 12.0039C17.1953 11.2578 16.9629 10.1543 16.9629 8.69336C16.9629 7.20117 17.1875 6.0957 17.6367 5.37695C18.0898 4.6582 18.7773 4.29883 19.6992 4.29883C20.6016 4.29883 21.2891 4.67188 21.7617 5.41797C22.2344 6.16016 22.4707 7.25195 22.4707 8.69336ZM17.5957 8.69336C17.5957 10.0215 17.7695 11.0039 18.1172 11.6406C18.4648 12.2734 18.9922 12.5898 19.6992 12.5898C20.4375 12.5898 20.9746 12.2617 21.3105 11.6055C21.6504 10.9492 21.8203 9.97852 21.8203 8.69336C21.8203 7.42773 21.6504 6.4668 21.3105 5.81055C20.9746 5.1543 20.4375 4.82617 19.6992 4.82617C18.9609 4.82617 18.4258 5.1543 18.0938 5.81055C17.7617 6.4668 17.5957 7.42773 17.5957 8.69336ZM29.3262 8.69336C29.3262 10.1973 29.0957 11.3105 28.6348 12.0332C28.1777 12.7559 27.4844 13.1172 26.5547 13.1172C25.6602 13.1172 24.9805 12.7461 24.5156 12.0039C24.0508 11.2578 23.8184 10.1543 23.8184 8.69336C23.8184 7.20117 24.043 6.0957 24.4922 5.37695C24.9453 4.6582 25.6328 4.29883 26.5547 4.29883C27.457 4.29883 28.1445 4.67188 28.6172 5.41797C29.0898 6.16016 29.3262 7.25195 29.3262 8.69336ZM24.4512 8.69336C24.4512 10.0215 24.625 11.0039 24.9727 11.6406C25.3203 12.2734 25.8477 12.5898 26.5547 12.5898C27.293 12.5898 27.8301 12.2617 28.166 11.6055C28.5059 10.9492 28.6758 9.97852 28.6758 8.69336C28.6758 7.42773 28.5059 6.4668 28.166 5.81055C27.8301 5.1543 27.293 4.82617 26.5547 4.82617C25.8164 4.82617 25.2812 5.1543 24.9492 5.81055C24.6172 6.4668 24.4512 7.42773 24.4512 8.69336Z" fill="black"/>
</svg>
