<svg width="60" height="60" viewBox="0 0 60 60" fill="none" xmlns="http://www.w3.org/2000/svg">
<g clip-path="url(#clip0)">
<path d="M60 26.6836H57.1172V14.9531C57.1172 12.9258 55.5234 11.2734 53.5664 11.2734H51.8789H48.4453H20.168H7.08984H3.55078C1.59375 11.2734 0 12.9258 0 14.9531V56.3203C0 58.3477 1.59375 60 3.55078 60H53.707C55.6641 60 57.2578 58.3477 57.2578 56.3203V44.5898H60V26.6836ZM56.5664 30.1055V41.168H42.4102C39.4219 41.168 36.9023 38.6367 36.9023 35.6367C36.9023 32.6484 39.4219 30.1172 42.4102 30.1172H56.5664V30.1055ZM53.8242 56.3203C53.8242 56.4727 53.7305 56.5664 53.6953 56.5781H3.53906C3.50391 56.5664 3.42188 56.4727 3.42188 56.3203V14.9531C3.42188 14.8008 3.51562 14.707 3.55078 14.6953H53.5664C53.5898 14.707 53.6836 14.8008 53.6836 14.9531V26.6836H42.3984C37.5586 26.6836 33.4688 30.7852 33.4688 35.6367C33.4688 40.4883 37.5586 44.5898 42.3984 44.5898H53.8125V56.3203H53.8242Z" fill="#FF7F00"/>
<path d="M20.168 11.2734H7.08984L48.6328 0L49.043 0.0820312C50.6602 0.421875 51.8906 2.19141 51.8906 4.19531V11.2734H48.457V4.19531C48.457 3.94922 48.4102 3.76172 48.3516 3.63281L20.168 11.2734ZM45.4453 35.6367C45.4453 37.2891 44.0977 38.6367 42.4453 38.6367C40.793 38.6367 39.4453 37.2891 39.4453 35.6367C39.4453 33.9844 40.793 32.6367 42.4453 32.6367C44.0977 32.6367 45.4453 33.9727 45.4453 35.6367ZM42.8789 35.6367C42.8789 35.4023 42.6797 35.2031 42.4453 35.2031C42.2109 35.2031 42.0117 35.4023 42.0117 35.6367C42.0117 35.8711 42.1992 36.0703 42.4453 36.0703C42.6797 36.0586 42.8789 35.8711 42.8789 35.6367ZM45.4453 35.6367C45.4453 37.2891 44.0977 38.6367 42.4453 38.6367C40.793 38.6367 39.4453 37.2891 39.4453 35.6367C39.4453 33.9844 40.793 32.6367 42.4453 32.6367C44.0977 32.6367 45.4453 33.9727 45.4453 35.6367ZM42.8789 35.6367C42.8789 35.4023 42.6797 35.2031 42.4453 35.2031C42.2109 35.2031 42.0117 35.4023 42.0117 35.6367C42.0117 35.8711 42.1992 36.0703 42.4453 36.0703C42.6797 36.0586 42.8789 35.8711 42.8789 35.6367ZM45.4453 35.6367C45.4453 37.2891 44.0977 38.6367 42.4453 38.6367C40.793 38.6367 39.4453 37.2891 39.4453 35.6367C39.4453 33.9844 40.793 32.6367 42.4453 32.6367C44.0977 32.6367 45.4453 33.9727 45.4453 35.6367ZM42.8789 35.6367C42.8789 35.4023 42.6797 35.2031 42.4453 35.2031C42.2109 35.2031 42.0117 35.4023 42.0117 35.6367C42.0117 35.8711 42.1992 36.0703 42.4453 36.0703C42.6797 36.0586 42.8789 35.8711 42.8789 35.6367Z" fill="#00CE00"/>
</g>
<defs>
<clipPath id="clip0">
<rect width="60" height="60" fill="white"/>
</clipPath>
</defs>
</svg>
