<svg width="60" height="60" viewBox="0 0 60 60" fill="none" xmlns="http://www.w3.org/2000/svg">
<g clip-path="url(#clip0)">
<path d="M60.002 7.93359V52.0781H16.291C15.3418 52.0781 14.5801 51.3164 14.5801 50.3672C14.5801 49.418 15.3418 48.6562 16.291 48.6562H56.5801V11.3555H33.0957L34.373 12.6328C35.041 13.3008 35.041 14.3906 34.373 15.0586C34.0332 15.3984 33.5996 15.5625 33.166 15.5625C32.7324 15.5625 32.2871 15.3984 31.959 15.0586L27.752 10.8516L26.5449 9.64453L27.7402 8.4375L31.9473 4.21875C32.6152 3.55078 33.7051 3.55078 34.373 4.21875C35.041 4.88672 35.041 5.97656 34.373 6.64453L33.0957 7.92187H60.002V7.93359Z" fill="#FF7F00"/>
<path d="M18 0V18H0V0H18ZM0 21H18V39H0V21ZM3.43359 35.5664H14.5781V24.4219H3.43359V35.5664ZM0 42H18V60H0V42ZM3.43359 56.5664H14.5781V45.4219H3.43359V56.5664Z" fill="#00CE00"/>
</g>
<defs>
<clipPath id="clip0">
<rect width="60" height="60" fill="white"/>
</clipPath>
</defs>
</svg>
