<svg width="60" height="60" viewBox="0 0 60 60" fill="none" xmlns="http://www.w3.org/2000/svg">
<path d="M27.0234 54.0469C12.1172 54.0469 0 41.918 0 27.0234C0 12.1172 12.1172 0 27.0234 0C41.9297 0 54.0469 12.1172 54.0469 27.0234C54.0469 29.2383 53.7656 31.4648 53.2148 33.6211C52.9805 34.5352 52.0547 35.0977 51.1289 34.8633C50.2148 34.6289 49.6523 33.6914 49.8867 32.7773C50.3672 30.8906 50.6133 28.957 50.6133 27.0234C50.6133 14.0156 40.0312 3.43359 27.0234 3.43359C14.0156 3.43359 3.43359 14.0156 3.43359 27.0234C3.43359 40.0312 14.0156 50.6133 27.0234 50.6133C28.9453 50.6133 30.8555 50.3789 32.7305 49.9102C33.6445 49.6875 34.582 50.2383 34.8164 51.1523C35.0508 52.0664 34.4883 53.0039 33.5742 53.2383C31.4297 53.7656 29.2266 54.0469 27.0234 54.0469Z" fill="#00CE00"/>
<path d="M58.9688 49.6875L55.207 45.9258L56.0391 45.0938C56.9297 44.2031 57.2695 42.9375 56.9414 41.7188C56.6133 40.5 55.6875 39.5742 54.4688 39.2461L39.5039 35.2383C38.2852 34.9102 37.0195 35.25 36.1289 36.1406C35.2383 37.0312 34.8984 38.2969 35.2266 39.5156C36.1055 42.7734 36.7852 45.3633 37.3242 47.4258C39.6445 56.25 39.6914 56.4141 41.707 56.9531C42.9141 57.2695 44.2031 56.9297 45.0937 56.0508L45.9258 55.2188L49.6875 58.9805C50.3438 59.6367 51.2227 60 52.1602 60C53.0977 60 53.9766 59.6367 54.6328 58.9805L58.9688 54.6445C59.625 53.9883 60 53.1094 60 52.1719C60 51.2344 59.6367 50.3555 58.9688 49.6875ZM56.5547 52.207L52.2188 56.543C52.1953 56.5664 52.1484 56.5664 52.125 56.543L45.9375 50.3555L42.6328 53.6133C42.3047 52.8164 41.6836 50.4609 40.6523 46.5469C40.1133 44.4844 39.4219 41.8828 38.5547 38.625L36.9023 39.0703L38.6484 38.543L53.6133 42.5508L53.6484 42.668L50.3906 45.9258L56.5781 52.1133C56.5781 52.1367 56.5781 52.1836 56.5547 52.207ZM29.3906 32.3203H23.0508V30.8789H30.6094C35.3203 30.8789 39.1523 26.7539 39.1523 21.668V19.6406C39.1523 14.5664 35.3203 10.4297 30.6094 10.4297H19.6172V27.4453H16.5938C15.6445 27.4453 14.8828 28.207 14.8828 29.1562C14.8828 30.1055 15.6445 30.8672 16.5938 30.8672H19.6172V32.3086H16.5938C15.6445 32.3086 14.8828 33.0703 14.8828 34.0195C14.8828 34.9687 15.6445 35.7305 16.5938 35.7305H19.6172V41.8945C19.6172 42.8438 20.3789 43.6055 21.3281 43.6055C22.2773 43.6055 23.0391 42.8438 23.0391 41.8945V35.7422H29.3789C30.3281 35.7422 31.0898 34.9805 31.0898 34.0312C31.0898 33.082 30.3398 32.3203 29.3906 32.3203ZM23.0508 13.8516H30.6094C33.4219 13.8516 35.7187 16.4414 35.7187 19.6289V21.6562C35.7187 24.8438 33.4219 27.4336 30.6094 27.4336H23.0508V13.8516Z" fill="#FF7F00"/>
</svg>
