<svg width="60" height="60" viewBox="0 0 60 60" fill="none" xmlns="http://www.w3.org/2000/svg">
<path d="M6.17578 12.3633C2.77734 12.3633 0 9.58594 0 6.17578C0 2.76562 2.77734 0 6.17578 0C9.57422 0 12.3516 2.77734 12.3516 6.17578C12.3516 9.57422 9.58594 12.3633 6.17578 12.3633ZM6.17578 3.43359C4.66406 3.43359 3.42188 4.66406 3.42188 6.1875C3.42188 7.71094 4.65234 8.94141 6.17578 8.94141C7.6875 8.94141 8.92969 7.71094 8.92969 6.1875C8.92969 4.66406 7.69922 3.43359 6.17578 3.43359ZM6.17578 28.2422C2.77734 28.2422 0 25.4648 0 22.0547C0 18.6445 2.77734 15.8789 6.17578 15.8789C9.57422 15.8789 12.3516 18.6562 12.3516 22.0547C12.3516 25.4531 9.58594 28.2422 6.17578 28.2422ZM6.17578 19.3125C4.66406 19.3125 3.42188 20.543 3.42188 22.0664C3.42188 23.5898 4.65234 24.8203 6.17578 24.8203C7.6875 24.8203 8.92969 23.5898 8.92969 22.0664C8.92969 20.543 7.69922 19.3125 6.17578 19.3125ZM6.17578 44.1211C2.77734 44.1211 0 41.3438 0 37.9453C0 34.5469 2.77734 31.7578 6.17578 31.7578C9.57422 31.7578 12.3516 34.5352 12.3516 37.9336C12.3516 41.332 9.58594 44.1211 6.17578 44.1211ZM6.17578 35.1914C4.66406 35.1914 3.42188 36.4219 3.42188 37.9453C3.42188 39.4688 4.65234 40.6992 6.17578 40.6992C7.6875 40.6992 8.92969 39.4688 8.92969 37.9453C8.92969 36.4219 7.69922 35.1914 6.17578 35.1914ZM6.17578 60C2.77734 60 0 57.2227 0 53.8242C0 50.4258 2.77734 47.6484 6.17578 47.6484C9.57422 47.6484 12.3516 50.4258 12.3516 53.8242C12.3516 57.2227 9.58594 60 6.17578 60ZM6.17578 51.0703C4.66406 51.0703 3.42188 52.3008 3.42188 53.8242C3.42188 55.3477 4.65234 56.5781 6.17578 56.5781C7.6875 56.5781 8.92969 55.3477 8.92969 53.8242C8.92969 52.3008 7.69922 51.0703 6.17578 51.0703Z" fill="#00CE00"/>
<path d="M58.2891 7.89844H18.0937C17.1445 7.89844 16.3828 7.13672 16.3828 6.1875C16.3828 5.23828 17.1445 4.47656 18.0937 4.47656H58.2891C59.2383 4.47656 60 5.23828 60 6.1875C60 7.13672 59.2266 7.89844 58.2891 7.89844ZM60 22.0547C60 21.1055 59.2383 20.3437 58.2891 20.3437H18.0937C17.1445 20.3437 16.3828 21.1055 16.3828 22.0547C16.3828 23.0039 17.1445 23.7656 18.0937 23.7656H58.2891C59.2266 23.7773 60 23.0039 60 22.0547ZM60 37.9453C60 36.9961 59.2383 36.2344 58.2891 36.2344H18.0937C17.1445 36.2344 16.3828 36.9961 16.3828 37.9453C16.3828 38.8945 17.1445 39.6562 18.0937 39.6562H58.2891C59.2266 39.6562 60 38.8828 60 37.9453ZM60 53.8242C60 52.875 59.2383 52.1133 58.2891 52.1133H18.0937C17.1445 52.1133 16.3828 52.875 16.3828 53.8242C16.3828 54.7734 17.1445 55.5351 18.0937 55.5351H58.2891C59.2266 55.5351 60 54.7617 60 53.8242Z" fill="#FF7F00"/>
</svg>
