<svg width="60" height="60" viewBox="0 0 60 60" fill="none" xmlns="http://www.w3.org/2000/svg">
<path d="M45.9141 60H7.01953C3.15234 60 0 56.8477 0 52.9805V14.0859C0 10.2188 3.15234 7.06641 7.01953 7.06641H26.918C27.8672 7.06641 28.6289 7.82813 28.6289 8.77734C28.6289 9.72656 27.8672 10.4883 26.918 10.4883H7.01953C5.03906 10.4883 3.43359 12.0938 3.43359 14.0742V52.9688C3.43359 54.9492 5.03906 56.5547 7.01953 56.5547H45.9141C47.8945 56.5547 49.5 54.9492 49.5 52.9688V33.082C49.5 32.1328 50.2617 31.3711 51.2109 31.3711C52.1602 31.3711 52.9219 32.1328 52.9219 33.082V52.9805C52.9336 56.8477 49.7812 60 45.9141 60Z" fill="#FF7F00"/>
<path d="M45.9121 28.1836C38.1426 28.1836 31.8262 21.8672 31.8262 14.0977C31.8145 6.31641 38.1426 0 45.9121 0C53.6817 0 59.9981 6.31641 59.9981 14.0859C59.9981 21.8555 53.6817 28.1836 45.9121 28.1836ZM45.9121 3.43359C40.0293 3.43359 35.2481 8.21484 35.2481 14.0977C35.2481 19.9805 40.0293 24.7617 45.9121 24.7617C51.7949 24.7617 56.5762 19.9805 56.5762 14.0977C56.5762 8.21484 51.7832 3.43359 45.9121 3.43359Z" fill="#00CE00"/>
</svg>
