<svg width="37" height="36" viewBox="0 0 37 36" fill="none" xmlns="http://www.w3.org/2000/svg">
<ellipse cx="18.5" cy="18" rx="18.5" ry="18" fill="white"/>
<path d="M28.1 14.4H24.4H22H16.2H13.8H9.9C8.8 14.4 8 15.2 8 16.3V16.6L10.3 25.4C10.6 26.6 11.8 27.5 13 27.5H25C26.3 27.5 27.4 26.6 27.7 25.4L30 16.9V16.4C30 15.2 29.2 14.4 28.1 14.4ZM25.7 24.9C25.6 25.2 25.3 25.5 24.9 25.5H13C12.6 25.5 12.3 25.2 12.2 24.9L10 16.5V16.4H28L25.7 24.9Z" fill="#F17E00"/>
<path d="M16.1998 14.4H13.7998L17.4998 8.8C17.8998 8.3 18.3998 8 19.0998 8C19.7998 8 20.2998 8.4 20.4998 8.7L20.5998 8.9L24.2998 14.5H21.9998L19.0998 10.1L16.1998 14.4ZM15.8998 20.9C15.8998 19.2 17.2998 17.8 18.9998 17.8C20.6998 17.8 22.0998 19.2 22.0998 20.9C22.0998 22.6 20.6998 24 18.9998 24C17.2998 24 15.8998 22.7 15.8998 20.9ZM17.8998 20.9C17.8998 21.5 18.3998 22 18.9998 22C19.5998 22 20.0998 21.5 20.0998 20.9C20.0998 20.3 19.5998 19.8 18.9998 19.8C18.4998 19.8 17.8998 20.3 17.8998 20.9Z" fill="#50CE1B"/>
</svg>
