<svg width="22" height="20" viewBox="0 0 22 20" fill="none" xmlns="http://www.w3.org/2000/svg">
<path d="M20.1 6.39996H16.4H14H8.2H5.8H1.9C0.8 6.39996 0 7.19996 0 8.29996V8.59996L2.3 17.4C2.6 18.6 3.8 19.5 5 19.5H17C18.3 19.5 19.4 18.6 19.7 17.4L22 8.89996V8.39996C22 7.19996 21.2 6.39996 20.1 6.39996ZM17.7 16.9C17.6 17.2 17.3 17.5 16.9 17.5H5C4.6 17.5 4.3 17.2 4.2 16.9L2 8.49996V8.39996H20L17.7 16.9Z" fill="white"/>
<path d="M8.20078 6.39997H5.80078L9.50078 0.799969C9.90078 0.299969 10.4008 -3.05176e-05 11.1008 -3.05176e-05C11.8008 -3.05176e-05 12.3008 0.399969 12.5008 0.699969L12.6008 0.899969L16.3008 6.49997H14.0008L11.1008 2.09997L8.20078 6.39997ZM7.90078 12.9C7.90078 11.2 9.30078 9.79997 11.0008 9.79997C12.7008 9.79997 14.1008 11.2 14.1008 12.9C14.1008 14.6 12.7008 16 11.0008 16C9.30078 16 7.90078 14.7 7.90078 12.9ZM9.90078 12.9C9.90078 13.5 10.4008 14 11.0008 14C11.6008 14 12.1008 13.5 12.1008 12.9C12.1008 12.3 11.6008 11.8 11.0008 11.8C10.5008 11.8 9.90078 12.3 9.90078 12.9Z" fill="#50CE1B"/>
</svg>
