<svg width="24" height="24" viewBox="0 0 24 24" fill="none" xmlns="http://www.w3.org/2000/svg">
<path d="M21.9273 8.07275H17.8909H15.2727H8.94545H6.32727H2.07273C0.872727 8.07275 0 8.94548 0 10.1455V10.4728L2.50909 20.0728C2.83636 21.3818 4.14545 22.3637 5.45455 22.3637H18.5455C19.9636 22.3637 21.1636 21.3818 21.4909 20.0728L24 10.8V10.2546C24 8.94548 23.1273 8.07275 21.9273 8.07275ZM19.3091 19.5273C19.2 19.8546 18.8727 20.1818 18.4364 20.1818H5.45455C5.01818 20.1818 4.69091 19.8546 4.58182 19.5273L2.18182 10.3637V10.2546H21.8182L19.3091 19.5273Z" fill="white"/>
<path d="M8.94533 8.0727H6.32715L10.3635 1.96361C10.7999 1.41815 11.3453 1.09088 12.109 1.09088C12.8726 1.09088 13.4181 1.52724 13.6362 1.85452L13.7453 2.0727L17.7817 8.18179H15.2726L12.109 3.38179L8.94533 8.0727ZM8.61806 15.1636C8.61806 13.3091 10.1453 11.7818 11.9999 11.7818C13.8544 11.7818 15.3817 13.3091 15.3817 15.1636C15.3817 17.0182 13.8544 18.5454 11.9999 18.5454C10.1453 18.5454 8.61806 17.1272 8.61806 15.1636ZM10.7999 15.1636C10.7999 15.8182 11.3453 16.3636 11.9999 16.3636C12.6544 16.3636 13.1999 15.8182 13.1999 15.1636C13.1999 14.5091 12.6544 13.9636 11.9999 13.9636C11.4544 13.9636 10.7999 14.5091 10.7999 15.1636Z" fill="#50CE1B"/>
</svg>
