<svg width="22" height="20" viewBox="0 0 22 20" fill="none" xmlns="http://www.w3.org/2000/svg">
<path d="M20.1 6.40002H16.4H14H8.2H5.8H1.9C0.8 6.40002 0 7.20002 0 8.30002V8.60002L2.3 17.4C2.6 18.6 3.8 19.5 5 19.5H17C18.3 19.5 19.4 18.6 19.7 17.4L22 8.90002V8.40002C22 7.20002 21.2 6.40002 20.1 6.40002ZM17.7 16.9C17.6 17.2 17.3 17.5 16.9 17.5H5C4.6 17.5 4.3 17.2 4.2 16.9L2 8.50002V8.40002H20L17.7 16.9Z" fill="#F17E00"/>
<path d="M8.20005 6.4H5.80005L9.50005 0.8C9.90005 0.3 10.4 0 11.1 0C11.8 0 12.3 0.4 12.5 0.7L12.6 0.9L16.3 6.5H14L11.1 2.1L8.20005 6.4ZM7.90005 12.9C7.90005 11.2 9.30005 9.8 11 9.8C12.7 9.8 14.1 11.2 14.1 12.9C14.1 14.6 12.7 16 11 16C9.30005 16 7.90005 14.7 7.90005 12.9ZM9.90005 12.9C9.90005 13.5 10.4 14 11 14C11.6 14 12.1 13.5 12.1 12.9C12.1 12.3 11.6 11.8 11 11.8C10.5 11.8 9.90005 12.3 9.90005 12.9Z" fill="#50CE1B"/>
</svg>
