<svg width="300" height="300" viewBox="0 0 300 300" fill="none" xmlns="http://www.w3.org/2000/svg">
<circle opacity="0.7" cx="150" cy="150" r="150" fill="white"/>
<circle cx="150" cy="150" r="142" stroke="#50CE1B" stroke-width="2" stroke-dasharray="6 4"/>
<path d="M79.7321 217.087L85.8894 250L92.1027 248.825L86.9529 221.173L96.8605 219.326L102.01 246.977L108.224 245.802L102.066 212.944L79.7321 217.087Z" fill="#F17E00"/>
<path d="M127.983 211.713C125.8 209.698 122.497 209.082 118.075 209.922C113.653 210.761 110.798 212.497 109.511 215.183C108.223 217.87 108.168 222.292 109.343 228.562C110.518 234.831 112.198 238.973 114.325 240.988C116.508 243.003 119.754 243.619 124.232 242.779C128.654 241.94 131.509 240.204 132.853 237.518C134.14 234.831 134.196 230.409 133.02 224.083C131.845 217.87 130.166 213.728 127.983 211.713ZM127.031 234.103C126.527 235.726 125.296 236.734 123.169 237.126C121.098 237.518 119.53 237.014 118.467 235.67C117.403 234.327 116.508 231.528 115.724 227.33C114.941 223.132 114.773 220.221 115.276 218.598C115.78 216.975 117.012 215.967 119.139 215.575C121.21 215.183 122.777 215.687 123.841 217.031C124.904 218.374 125.8 221.173 126.583 225.371C127.367 229.569 127.535 232.48 127.031 234.103Z" fill="#F17E00"/>
<path d="M146.902 232.592C146.231 232.704 145.727 232.648 145.335 232.312C144.943 231.976 144.719 231.36 144.551 230.521L143.376 224.251L154.515 222.18L153.563 216.975L142.424 219.046L141.473 214.064C141.305 213.224 141.361 212.553 141.585 212.161C141.809 211.713 142.256 211.433 142.928 211.321L153.675 209.306L152.892 203.932C150.317 204.1 145.951 204.716 139.849 205.892C138.002 206.227 136.659 207.123 135.763 208.466C134.868 209.866 134.588 211.545 134.98 213.56L138.674 233.319C139.066 235.335 139.905 236.846 141.249 237.797C142.592 238.749 144.16 239.085 146.007 238.749C152.108 237.629 156.418 236.622 158.881 235.838L157.65 230.577L146.902 232.592Z" fill="#F17E00"/>
<path d="M172.371 227.498C170.356 227.89 168.901 227.386 167.893 226.099C166.885 224.755 165.99 222.124 165.262 218.15C164.535 214.176 164.367 211.377 164.814 209.754C165.262 208.187 166.494 207.179 168.509 206.787C171.531 206.227 174.106 205.836 176.289 205.556L175.841 200.238C173.267 199.958 170.468 200.126 167.389 200.742C163.135 201.526 160.392 203.317 159.105 206.115C157.817 208.914 157.762 213.28 158.881 219.326C160.001 225.371 161.68 229.457 163.863 231.584C166.046 233.711 169.292 234.383 173.547 233.599C177.017 232.928 179.872 231.976 182.111 230.689L180.599 225.595C178.808 226.155 176.065 226.826 172.371 227.498Z" fill="#F17E00"/>
<path d="M200.918 194.417L177.913 198.727L179.032 204.66L187.428 203.093L192.466 230.017L198.679 228.897L193.642 201.917L202.038 200.35L200.918 194.417Z" fill="#F17E00"/>
<path d="M229.242 212.497C228.514 208.522 227.227 205.892 225.491 204.66C223.756 203.429 220.957 203.149 217.151 203.876L213.009 204.66L210.77 192.625L204.613 193.801L210.714 226.267L210.882 226.211C213.457 225.987 217.207 225.427 222.077 224.475C225.38 223.86 227.563 222.684 228.682 220.949C229.802 219.214 229.969 216.415 229.242 212.497ZM223.029 217.59C222.637 218.318 221.629 218.822 220.006 219.158L215.864 219.941L213.961 209.698L218.103 208.914C219.726 208.634 220.902 208.746 221.517 209.418C222.133 210.034 222.637 211.377 223.029 213.448C223.364 215.463 223.42 216.807 223.029 217.59Z" fill="#F17E00"/>
<path d="M181.327 149.189C179.536 147.286 176.681 146.558 172.707 147.006C168.733 147.453 166.102 148.797 164.814 151.092C163.527 153.331 163.191 157.305 163.807 162.903C164.423 168.5 165.654 172.25 167.445 174.21C169.236 176.113 172.091 176.84 176.065 176.393C180.04 175.945 182.67 174.601 183.958 172.306C185.245 170.011 185.581 166.093 184.965 160.496C184.294 154.842 183.118 151.092 181.327 149.189ZM179.032 168.892C178.528 170.291 177.297 171.131 175.45 171.355C173.602 171.579 172.259 171.019 171.419 169.788C170.58 168.5 169.964 166.037 169.516 162.287C169.068 158.537 169.124 155.962 169.684 154.562C170.188 153.163 171.419 152.323 173.267 152.099C175.114 151.876 176.457 152.435 177.297 153.667C178.136 154.954 178.752 157.417 179.2 161.167C179.592 164.862 179.592 167.437 179.032 168.892Z" fill="#50CE1B"/>
<path d="M200.079 143.871L201.534 156.466C199.743 157.585 197.896 158.201 196.048 158.425C194.985 158.537 194.257 158.425 193.754 157.977C193.306 157.585 193.026 156.801 192.914 155.682L191.682 144.767L186.197 145.382L187.596 157.697C187.876 160.16 188.604 161.895 189.723 162.903C190.899 163.91 192.522 164.302 194.649 164.078C197.168 163.798 199.463 163.239 202.094 161.895L203.381 173.146L208.867 172.53L205.508 143.143L200.079 143.871Z" fill="#50CE1B"/>
<path d="M223.14 141.24L220.51 154.898L215.08 142.136L208.531 142.92L218.606 164.75L217.319 171.635L222.861 171.019L229.69 140.513L223.14 141.24Z" fill="#50CE1B"/>
<path d="M160.448 148.405L154.851 149.021L151.492 161.671L145.335 150.084L139.737 150.756L147.294 164.358L142.592 180.143L148.19 179.527L151.94 166.037L158.657 178.352L164.311 177.68L156.138 163.35L160.448 148.405Z" fill="#50CE1B"/>
<path d="M71 196.208C84.3781 178.352 97.7561 160.44 111.078 142.584L93.446 148.461C85.9454 164.414 78.5007 180.311 71 196.208Z" fill="#F17E00"/>
<path d="M111.862 190.89C115.948 177.008 120.034 160.776 124.12 146.894L111.078 142.528C111.358 157.865 111.638 175.609 111.862 190.89Z" fill="#F17E00"/>
<path d="M143.488 84.2576C136.435 84.7054 129.942 85.545 124.232 86.6085L131.005 101.162C141.809 95.4526 152.556 89.7991 163.359 84.1456C157.426 83.8098 150.765 83.8098 143.488 84.2576Z" fill="#F17E00"/>
<path d="M90.3674 110.342C82.307 120.362 77.717 130.213 75.0862 137.322C83.9862 130.717 92.8863 124.168 101.786 117.563L107.272 93.9972C102.29 97.7476 96.2448 103.065 90.3674 110.342Z" fill="#F17E00"/>
<path d="M224.932 66.7933C224.596 66.7933 224.204 66.7933 223.812 66.7933C219.278 66.8493 214.184 67.2411 208.643 68.0248C200.974 69.0883 194.257 70.8235 188.604 72.5587C188.548 72.5587 188.548 72.6147 188.492 72.6147C185.861 74.294 183.23 76.0292 180.599 77.7085C186.813 75.4135 194.481 73.1745 203.213 71.6072C213.289 69.816 222.189 69.4241 229.298 69.648C229.41 68.6965 229.522 67.8009 229.634 66.8493C228.066 66.8493 226.499 66.8493 224.932 66.7933Z" fill="#F17E00"/>
<path d="M165.598 83.306C167.277 83.0261 169.46 82.5223 171.923 81.4588C174.162 80.4512 175.953 79.3317 177.241 78.3242C175.786 78.3802 173.547 78.66 170.972 79.7236C168.397 80.8991 166.662 82.3544 165.598 83.306Z" fill="#F17E00"/>
<path d="M77.3252 208.746C75.3101 205.22 73.0151 201.637 71 198.111C123.729 192.346 176.905 185.964 229.69 180.199C178.976 189.491 128.039 199.398 77.3252 208.746Z" fill="#50CE1B"/>
<path d="M126.639 80.1714C127.871 77.9883 129.326 76.3651 130.446 75.3015C132.069 76.3091 133.692 77.2607 135.259 78.2682C134.532 76.2531 133.86 73.9021 133.356 71.1594C132.853 68.5845 132.629 66.2895 132.517 64.2184C133.244 62.3153 134.42 59.7404 136.379 57.1096C138.842 53.8071 141.529 51.68 143.432 50.3926C140.241 49.9448 135.427 49.6649 129.774 50.7844C124.848 51.736 120.93 53.4712 118.243 54.8706C115.5 58.3411 111.75 64.1065 109.287 71.999C106.376 81.2909 106.712 89.2953 107.216 93.9972L101.786 117.563C98.9876 127.862 96.2448 138.162 93.446 148.517L111.078 142.64L124.12 147.006C126.919 132.844 128.207 115.38 131.005 101.218L124.232 86.6645C124.568 84.9852 125.24 82.6343 126.639 80.1714Z" fill="#50CE1B"/>
<path d="M208.587 68.0248C214.128 67.2411 219.222 66.9052 223.756 66.7933C223.364 64.7222 221.909 59.2367 216.871 55.9901C214.408 54.3668 211.498 53.5832 208.531 53.5272C208.419 52.2957 207.691 51.1203 206.516 50.4486C204.725 49.497 202.318 50.1127 201.03 51.9039C200.359 52.7995 199.967 54.0869 200.135 55.2064C197.616 56.3259 195.321 57.8932 193.474 59.9643C189.22 64.6662 188.604 70.3197 188.492 72.6147C188.548 72.6147 188.548 72.5587 188.604 72.5587C194.201 70.8235 200.974 69.1443 208.587 68.0248ZM202.43 52.9674C203.157 51.9599 204.557 51.624 205.564 52.1278C206.18 52.4637 206.572 53.0794 206.684 53.5832C205.06 53.6951 203.437 54.031 201.87 54.5347C201.87 54.0869 202.094 53.4152 202.43 52.9674Z" fill="#50CE1B"/>
<path d="M164.646 81.5707C165.71 80.5632 167.445 79.2198 169.852 78.1563C172.427 77.0368 174.722 76.7009 176.233 76.6449C175.841 76.477 172.371 74.8537 168.789 76.6449C165.766 78.1563 164.814 81.011 164.646 81.5707Z" fill="#50CE1B"/>
<path d="M178.136 79.7795C177.129 80.7871 175.45 82.2984 172.931 83.4739C170.3 84.6494 167.949 84.9293 166.494 84.9852C166.941 85.2091 170.02 86.5525 173.379 85.0972C176.905 83.5859 177.969 80.2273 178.136 79.7795Z" fill="#50CE1B"/>
</svg>
