<svg width="178" height="52" viewBox="0 0 178 52" fill="none" xmlns="http://www.w3.org/2000/svg">
<g filter="url(#filter0_d)">
<path fill-rule="evenodd" clip-rule="evenodd" d="M26 2C13.8497 2 4 11.8497 4 24C4 36.1503 13.8497 46 26 46H152C164.15 46 174 36.1503 174 24C174 11.8497 164.15 2 152 2H26ZM152 42C161.941 42 170 33.9411 170 24C170 14.0589 161.941 6 152 6C142.059 6 134 14.0589 134 24C134 33.9411 142.059 42 152 42Z" fill="#F17E00"/>
</g>
<path d="M161.1 20.4H157.4H155H149.2H146.8H142.9C141.8 20.4 141 21.2 141 22.3V22.6L143.3 31.4C143.6 32.6 144.8 33.5 146 33.5H158C159.3 33.5 160.4 32.6 160.7 31.4L163 22.9V22.4C163 21.2 162.2 20.4 161.1 20.4ZM158.7 30.9C158.6 31.2 158.3 31.5 157.9 31.5H146C145.6 31.5 145.3 31.2 145.2 30.9L143 22.5V22.4H161L158.7 30.9Z" fill="#F17E00"/>
<path d="M149.2 20.4H146.8L150.5 14.8C150.9 14.3 151.4 14 152.1 14C152.8 14 153.3 14.4 153.5 14.7L153.6 14.9L157.3 20.5H155L152.1 16.1L149.2 20.4ZM148.9 26.9C148.9 25.2 150.3 23.8 152 23.8C153.7 23.8 155.1 25.2 155.1 26.9C155.1 28.6 153.7 30 152 30C150.3 30 148.9 28.7 148.9 26.9ZM150.9 26.9C150.9 27.5 151.4 28 152 28C152.6 28 153.1 27.5 153.1 26.9C153.1 26.3 152.6 25.8 152 25.8C151.5 25.8 150.9 26.3 150.9 26.9Z" fill="#50CE1B"/>
<path d="M42.8603 24.932V24.988C43.6536 25.072 44.2276 25.394 44.5823 25.954C44.937 26.5047 45.3803 27.578 45.9123 29.174C46.0336 29.5287 46.127 29.804 46.1923 30H44.3583C43.8076 28.3387 43.439 27.312 43.2523 26.92C42.9163 26.2573 42.501 25.856 42.0063 25.716C41.8383 25.6693 41.6423 25.646 41.4183 25.646H40.6063C40.6716 26.0193 40.7043 26.3367 40.7043 26.598V30H38.9543V20.34H40.7043V23.182C40.7043 23.5087 40.6716 23.882 40.6063 24.302H41.4183C41.7076 24.302 41.9643 24.2507 42.1883 24.148C42.4216 24.036 42.6223 23.8727 42.7903 23.658C42.9676 23.434 43.1263 23.1773 43.2663 22.888C43.4063 22.5893 43.5463 22.2347 43.6863 21.824C43.8263 21.404 43.971 20.9607 44.1203 20.494C44.139 20.4287 44.153 20.3773 44.1623 20.34H45.9403C45.4176 21.936 45.063 22.9207 44.8763 23.294C44.503 24.0873 44.027 24.5867 43.4483 24.792C43.271 24.8573 43.075 24.904 42.8603 24.932ZM51.1389 20.158C52.6322 20.158 53.6682 20.5173 54.2469 21.236C54.8349 21.9547 55.1289 23.266 55.1289 25.17C55.1289 27.074 54.8349 28.3853 54.2469 29.104C53.6682 29.8227 52.6322 30.182 51.1389 30.182C49.6549 30.182 48.6189 29.8227 48.0309 29.104C47.4522 28.3853 47.1629 27.074 47.1629 25.17C47.1629 23.266 47.4522 21.9547 48.0309 21.236C48.6189 20.5173 49.6549 20.158 51.1389 20.158ZM51.1389 21.656C50.3269 21.656 49.7669 21.908 49.4589 22.412C49.1602 22.9067 49.0109 23.826 49.0109 25.17C49.0109 26.514 49.1602 27.438 49.4589 27.942C49.7669 28.4367 50.3269 28.684 51.1389 28.684C51.9602 28.684 52.5202 28.4367 52.8189 27.942C53.1269 27.438 53.2809 26.514 53.2809 25.17C53.2809 23.826 53.1269 22.9067 52.8189 22.412C52.5202 21.908 51.9602 21.656 51.1389 21.656ZM56.9602 30V20.34C57.7908 20.256 58.9575 20.214 60.4602 20.214C61.7202 20.214 62.5882 20.4333 63.0642 20.872C63.5402 21.3013 63.7782 22.118 63.7782 23.322C63.7782 24.526 63.5495 25.3473 63.0922 25.786C62.6442 26.2153 61.8368 26.43 60.6702 26.43C59.9888 26.43 59.3402 26.3927 58.7242 26.318V30H56.9602ZM58.7242 25.002H60.4182C61.0342 24.9927 61.4542 24.876 61.6782 24.652C61.9022 24.4187 62.0142 23.9753 62.0142 23.322C62.0142 22.6687 61.9022 22.23 61.6782 22.006C61.4542 21.7727 61.0342 21.656 60.4182 21.656H58.7242V25.002ZM64.938 21.782L64.798 20.48C65.6286 20.312 66.59 20.228 67.682 20.228C68.9046 20.228 69.7493 20.4053 70.216 20.76C70.6826 21.1053 70.916 21.768 70.916 22.748C70.916 23.448 70.7853 23.98 70.524 24.344C70.272 24.6987 69.8613 24.904 69.292 24.96V25.016C69.9826 25.0813 70.4726 25.3287 70.762 25.758C71.0606 26.178 71.21 26.7893 71.21 27.592C71.21 28.5627 70.972 29.2253 70.496 29.58C70.0293 29.9347 69.2313 30.112 68.102 30.112C66.674 30.112 65.498 29.986 64.574 29.734L64.714 28.488C65.7966 28.6373 66.8186 28.712 67.78 28.712C68.4053 28.712 68.83 28.6187 69.054 28.432C69.2873 28.236 69.404 27.8487 69.404 27.27C69.404 26.6447 69.2826 26.22 69.04 25.996C68.7973 25.772 68.3493 25.6553 67.696 25.646H65.946V24.33H67.696C68.256 24.33 68.6433 24.2367 68.858 24.05C69.0726 23.8633 69.18 23.504 69.18 22.972C69.18 22.44 69.0633 22.0807 68.83 21.894C68.606 21.7073 68.1813 21.614 67.556 21.614C67.0426 21.614 66.17 21.67 64.938 21.782ZM80.6409 30H78.9469V23.672C78.9469 23.2893 78.9843 22.8833 79.0589 22.454H78.9749C78.7883 22.958 78.6109 23.35 78.4429 23.63L74.7889 30H73.0109V20.34H74.6909V26.584C74.6909 27.0507 74.6536 27.4707 74.5789 27.844H74.6769C74.7983 27.4893 74.9756 27.102 75.2089 26.682L78.8489 20.34H80.6409V30ZM90.1494 20.34V30H88.3854V25.576H84.5774V30H82.8274V20.34H84.5774V24.134H88.3854V20.34H90.1494ZM97.4813 27.27H93.8973L93.0993 30H91.3073L94.2053 20.802C94.2893 20.494 94.4993 20.34 94.8353 20.34H96.5433C96.8793 20.34 97.0893 20.494 97.1733 20.802L100.071 30H98.2793L97.4813 27.27ZM97.0613 25.828L96.0953 22.496C95.9646 21.992 95.8946 21.7167 95.8853 21.67H95.5073L95.2833 22.496L94.3173 25.828H97.0613Z" fill="white"/>
<defs>
<filter id="filter0_d" x="0" y="0" width="178" height="52" filterUnits="userSpaceOnUse" color-interpolation-filters="sRGB">
<feFlood flood-opacity="0" result="BackgroundImageFix"/>
<feColorMatrix in="SourceAlpha" type="matrix" values="0 0 0 0 0 0 0 0 0 0 0 0 0 0 0 0 0 0 127 0"/>
<feOffset dy="2"/>
<feGaussianBlur stdDeviation="2"/>
<feColorMatrix type="matrix" values="0 0 0 0 0 0 0 0 0 0 0 0 0 0 0 0 0 0 0.2 0"/>
<feBlend mode="normal" in2="BackgroundImageFix" result="effect1_dropShadow"/>
<feBlend mode="normal" in="SourceGraphic" in2="effect1_dropShadow" result="shape"/>
</filter>
</defs>
</svg>
