<svg width="16" height="16" viewBox="0 0 16 16" fill="none" xmlns="http://www.w3.org/2000/svg">
<path d="M13.6562 2.34375C12.1469 0.83125 10.1375 0 8 0C5.8625 0 3.85313 0.83125 2.34375 2.34375C0.83125 3.85313 0 5.8625 0 8C0 10.1375 0.83125 12.1469 2.34375 13.6562C3.85625 15.1687 5.8625 16 8 16C10.1375 16 12.1469 15.1687 13.6562 13.6562C15.1687 12.1438 16 10.1375 16 8C16 5.8625 15.1687 3.85313 13.6562 2.34375ZM15.0469 7.53125H12.275C12.2406 6.38438 12.0812 5.28125 11.8062 4.28438C12.3562 4.00313 12.8438 3.65937 13.2469 3.27187C14.3156 4.45312 14.9438 5.94063 15.0469 7.53125ZM7.53125 4.20625C6.7625 4.1625 6.02187 4.0125 5.34375 3.76562C5.45625 3.45625 5.58438 3.1625 5.72188 2.8875C6.22813 1.88438 6.86875 1.22812 7.53125 1.01562V4.20625ZM8.46875 1.0125C9.12813 1.225 9.76875 1.88125 10.2781 2.88438C10.4187 3.15938 10.5437 3.45312 10.6562 3.7625C9.97812 4.00938 9.2375 4.15938 8.46875 4.20312V1.0125ZM11.1156 2.4625C10.9031 2.04375 10.6719 1.67812 10.4219 1.3625C11.2031 1.64687 11.9281 2.06875 12.5719 2.61875C12.2719 2.90313 11.9156 3.15937 11.5125 3.38125C11.3938 3.05625 11.2594 2.75 11.1156 2.4625ZM4.4875 3.37812C4.08438 3.15937 3.72812 2.9 3.42812 2.61562C4.07188 2.06562 4.8 1.64375 5.57812 1.35938C5.32812 1.675 5.09688 2.04375 4.88438 2.45937C4.74062 2.75 4.60625 3.05625 4.4875 3.37812ZM5.06563 4.65938C5.83438 4.93438 6.67188 5.1 7.53125 5.14375V7.53125H4.6625C4.69688 6.51562 4.83438 5.54063 5.06563 4.65938ZM7.53125 8.46875V10.8562C6.66875 10.9 5.83125 11.0656 5.06563 11.3406C4.83438 10.4594 4.69688 9.48438 4.66563 8.46875H7.53125ZM7.53125 14.9875C6.87187 14.775 6.23125 14.1188 5.72188 13.1156C5.58125 12.8406 5.45625 12.5469 5.34375 12.2375C6.02187 11.9906 6.7625 11.8406 7.53125 11.7969V14.9875ZM8.46875 11.7937C9.2375 11.8375 9.97812 11.9875 10.6562 12.2344C10.5437 12.5437 10.4156 12.8375 10.2781 13.1125C9.77187 14.1156 9.13125 14.7719 8.46875 14.9844V11.7937ZM4.8875 13.5375C5.1 13.9563 5.33125 14.3219 5.58125 14.6375C4.8 14.3531 4.075 13.9313 3.43125 13.3813C3.73125 13.0969 4.0875 12.8406 4.49062 12.6187C4.60625 12.9437 4.74062 13.25 4.8875 13.5375ZM11.5125 12.6219C11.9156 12.8406 12.2719 13.1 12.5719 13.3844C11.9281 13.9344 11.2 14.3562 10.4219 14.6406C10.6719 14.325 10.9031 13.9562 11.1156 13.5406C11.2594 13.25 11.3938 12.9437 11.5125 12.6219ZM10.9344 11.3406C10.1656 11.0656 9.32812 10.9 8.46875 10.8562V8.46875H11.3375C11.3031 9.48438 11.1656 10.4594 10.9344 11.3406ZM8.46875 7.53125V5.14375C9.33125 5.1 10.1687 4.93438 10.9344 4.65938C11.1656 5.54063 11.3031 6.51562 11.3344 7.53125H8.46875ZM2.75312 3.27187C3.15625 3.65937 3.64375 4.00313 4.19375 4.28438C3.91875 5.28125 3.75937 6.38438 3.725 7.53125H0.953125C1.05625 5.94063 1.68437 4.45312 2.75312 3.27187ZM0.953125 8.46875H3.725C3.75937 9.61563 3.91875 10.7188 4.19375 11.7156C3.64375 11.9969 3.15625 12.3406 2.75312 12.7281C1.68437 11.5469 1.05625 10.0594 0.953125 8.46875ZM13.2469 12.7281C12.8438 12.3406 12.3562 11.9969 11.8062 11.7156C12.0812 10.7188 12.2406 9.61563 12.275 8.46875H15.0469C14.9438 10.0594 14.3156 11.5469 13.2469 12.7281Z" fill="#F17E00"/>
</svg>
