<svg width="22" height="31" viewBox="0 0 22 31" fill="none" xmlns="http://www.w3.org/2000/svg">
<path d="M10.7502 30.188L2.1439 18.0209C-1.08348 13.8016 -0.594487 6.83494 3.12189 3.1063C7.32727 -0.916701 14.1732 -0.916701 18.3786 3.1063C22.095 6.83494 22.584 13.7035 19.3566 17.9227L10.7502 30.188ZM10.7502 2.02696C8.50086 2.02696 6.25147 2.91006 4.49108 4.57813C1.4593 7.5218 1.0681 13.4091 3.70869 16.8434L10.7502 26.8518L17.7918 16.8434C20.4324 13.4091 20.0412 7.5218 17.0094 4.57813C15.249 2.91006 12.9996 2.02696 10.7502 2.02696ZM10.848 15.3716C8.20746 15.3716 6.05587 13.2129 6.05587 10.5636C6.05587 7.91429 8.20746 5.7556 10.848 5.7556C13.4886 5.7556 15.6402 7.91429 15.6402 10.5636C15.6402 13.2129 13.4886 15.3716 10.848 15.3716ZM10.848 7.71804C9.28325 7.71804 8.01186 8.99363 8.01186 10.5636C8.01186 12.1335 9.28325 13.4091 10.848 13.4091C12.4128 13.4091 13.6842 12.1335 13.6842 10.5636C13.6842 8.99363 12.4128 7.71804 10.848 7.71804Z" fill="#F17E00"/>
</svg>
