<svg width="28" height="28" viewBox="0 0 28 28" fill="none" xmlns="http://www.w3.org/2000/svg">
<path d="M20.5 2.4C20.3 2.4 20 2.4 19.8 2.4C18.5 1.1 16.7 0.2 14.7 0H14H13.6C13.6 0 13.6 0 13.5 0C11.4 0.1 9.6 1 8.2 2.4C8 2.4 7.7 2.4 7.5 2.4C3.4 2.4 0 5.8 0 9.9C0 12.5 1.3 14.9 3.6 16.3V22.7V24.6C3.6 25.5 4 26.4 4.6 27C5.2 27.6 6.1 28 7 28H21.1C23 28 24.5 26.5 24.5 24.6V16.2C26.7 14.8 28 12.5 28 9.8C28 5.8 24.6 2.4 20.5 2.4ZM21 26H6.9C6.5 26 6.2 25.9 5.9 25.6C5.6 25.3 5.5 25 5.5 24.6V23.7H22.4V24.6C22.4 25.4 21.8 26 21 26ZM23 14.8L22.5 15.1V21.7H5.5V15.1L5 14.8C3.1 13.9 2 12 2 9.9C2 7.1 4.1 4.8 6.7 4.5C6.1 5.6 5.8 6.9 5.8 8.2C5.8 8.8 6.2 9.2 6.8 9.2C7.4 9.2 7.8 8.8 7.8 8.2C7.8 4.8 10.6 2 14 2C17.4 2 20.2 4.8 20.2 8.2C20.2 8.8 20.6 9.2 21.2 9.2C21.8 9.2 22.2 8.8 22.2 8.2C22.2 6.8 21.9 5.6 21.3 4.4C24 4.8 26 7.1 26 9.8C26 12 24.8 13.8 23 14.8Z" fill="white"/>
</svg>
