<svg width="28" height="29" viewBox="0 0 28 29" fill="none" xmlns="http://www.w3.org/2000/svg">
<path d="M28 11.0138C28 9.21384 26.9 7.51384 25.3 6.81384V1.81384C25.3 1.11384 24.9 0.513844 24.3 0.213844C23.7 -0.0861561 23 -0.0861561 22.4 0.313844C17 4.11384 13.9 4.61384 11.9 4.61384H5.5C2.5 4.61384 0 7.11384 0 10.1138V11.8138C0 14.8138 2.5 17.3138 5.5 17.3138H7.9L12 27.4138C12.2 27.8138 12.5 28.0138 12.9 28.0138C13 28.0138 13.2 28.0138 13.3 27.9138C13.8 27.7138 14.1 27.1138 13.8 26.6138L10 17.3138H11.8C19 17.3138 22 21.1138 22 21.2138C22.4 21.7138 22.9 21.9138 23.4 21.9138C23.6 21.9138 23.8 21.9138 24 21.8138C24.7 21.5138 25.2 20.9138 25.2 20.1138V15.1138C26.9 14.4138 28 12.8138 28 11.0138ZM23.3 19.6138C22.2 18.4138 18.7 15.4138 11.9 15.4138H8.6H5.6C3.6 15.4138 2.1 13.8138 2.1 11.9138V10.2138C2.1 8.31384 3.7 6.71384 5.6 6.71384H11.9C14.2 6.71384 17.6 6.21384 23.3 2.31384V19.6138ZM25.3 12.8138V9.21384C25.7 9.61384 26 10.3138 26 11.0138C26 11.7138 25.7 12.3138 25.3 12.8138Z" fill="white"/>
</svg>
