<svg width="28" height="28" viewBox="0 0 28 28" fill="none" xmlns="http://www.w3.org/2000/svg">
<path d="M13.5528 28C12.6528 28 11.8528 27.7 11.2528 27.1L9.75281 25.6L7.65281 25.9C7.45281 25.9 7.35281 25.9 7.15281 25.9C5.55281 25.9 4.25281 24.8 3.95281 23.2L3.55281 21.1L1.75281 20.1C0.152809 19.3 -0.447191 17.4 0.352809 15.8L1.25281 13.9L0.352809 12C-0.447191 10.4 0.152809 8.5 1.75281 7.7L3.55281 6.7L4.05281 4.8C4.35281 3.1 5.95281 1.9 7.75281 2.1L9.85281 2.4L11.3528 0.9C12.6528 -0.3 14.6528 -0.3 15.8528 0.9L17.3528 2.4L19.4528 2.1C21.2528 1.9 22.8528 3 23.1528 4.8L23.5528 6.9L25.3528 7.9C26.9528 8.7 27.5528 10.6 26.7528 12.2L25.8528 14.1L26.7528 16C27.5528 17.6 26.9528 19.5 25.3528 20.3L23.5528 21.3L23.1528 23.4C22.8528 25.1 21.2528 26.3 19.4528 26.1L17.3528 25.8L15.8528 27.3C15.1528 27.7 14.3528 28 13.5528 28ZM9.85281 23.7C10.3528 23.7 10.7528 23.9 11.0528 24.2L12.6528 25.7C13.1528 26.2 13.9528 26.2 14.4528 25.7L16.0528 24.2C16.4528 23.8 16.9528 23.6 17.5528 23.7L19.7528 24C20.4528 24.1 21.0528 23.6 21.1528 23L21.5528 20.8C21.6528 20.3 21.9528 19.8 22.4528 19.5L24.3528 18.5C24.9528 18.2 25.1528 17.4 24.8528 16.8L23.8528 14.8C23.6528 14.3 23.6528 13.7 23.8528 13.2L24.8528 11.2C25.1528 10.6 24.9528 9.8 24.3528 9.5L22.3528 8.5C21.8528 8.2 21.5528 7.8 21.4528 7.2L21.0528 5C20.9528 4.3 20.3528 3.9 19.6528 4L17.4528 4.3C16.9528 4.4 16.3528 4.2 15.9528 3.8L14.3528 2.3C13.8528 1.8 13.0528 1.8 12.5528 2.3L10.9528 3.8C10.5528 4.2 10.0528 4.4 9.45281 4.3L7.25281 4C6.55281 3.9 5.95281 4.4 5.85281 5L5.45281 7.2C5.35281 7.7 5.05281 8.2 4.55281 8.5L2.65281 9.5C2.05281 9.8 1.85281 10.6 2.15281 11.2L3.15281 13.2C3.35281 13.7 3.35281 14.3 3.15281 14.8L2.15281 16.8C1.85281 17.4 2.05281 18.2 2.65281 18.5L4.65281 19.5C5.15281 19.8 5.45281 20.2 5.55281 20.8L5.95281 23C6.05281 23.6 6.55281 24 7.15281 24C7.25281 24 7.25281 24 7.35281 24L9.55281 23.7C9.65281 23.7 9.75281 23.7 9.85281 23.7ZM10.5528 13.2C8.85281 13.2 7.45281 11.8 7.45281 10.1C7.45281 8.4 8.85281 7 10.5528 7C12.2528 7 13.6528 8.4 13.6528 10.1C13.6528 11.8 12.3528 13.2 10.5528 13.2ZM10.5528 9C9.95281 9 9.45281 9.5 9.45281 10.1C9.45281 10.7 9.95281 11.2 10.5528 11.2C11.1528 11.2 11.6528 10.7 11.6528 10.1C11.7528 9.5 11.2528 9 10.5528 9ZM16.4528 21.1C14.7528 21.1 13.3528 19.7 13.3528 18C13.3528 16.3 14.7528 14.9 16.4528 14.9C18.1528 14.9 19.5528 16.3 19.5528 18C19.5528 19.7 18.1528 21.1 16.4528 21.1ZM16.4528 16.9C15.8528 16.9 15.3528 17.4 15.3528 18C15.3528 18.6 15.8528 19.1 16.4528 19.1C17.0528 19.1 17.5528 18.6 17.5528 18C17.5528 17.4 17.0528 16.9 16.4528 16.9ZM8.75281 20.2L19.7528 9.2C20.1528 8.8 20.1528 8.2 19.7528 7.8C19.3528 7.4 18.7528 7.4 18.3528 7.8L7.35281 18.8C6.95281 19.2 6.95281 19.8 7.35281 20.2C7.55281 20.4 7.85281 20.5 8.05281 20.5C8.25281 20.5 8.55281 20.4 8.75281 20.2Z" fill="white"/>
</svg>
