<svg width="28" height="26" viewBox="0 0 28 26" fill="none" xmlns="http://www.w3.org/2000/svg">
<path d="M14.1 11.6C11.5 11.6 9.4 13.7 9.4 16.3C9.4 18.9 11.5 21 14.1 21C16.7 21 18.8 18.9 18.8 16.3C18.8 13.7 16.7 11.6 14.1 11.6ZM14.1 19C12.6 19 11.4 17.8 11.4 16.3C11.4 15.6 11.7 14.9 12.2 14.4C12.7 13.9 13.4 13.6 14.1 13.6C15.6 13.6 16.8 14.8 16.8 16.3C16.8 17.8 15.6 19 14.1 19ZM24.7 7.6H20.9L16.8 1.4L16.5 1.1C16.1 0.7 15.3 0 14.1 0C13 0 12 0.5 11.4 1.4L7.3 7.6H3.3C2.4 7.6 1.6 7.9 1 8.5C0.3 9.1 0 10 0 10.9V11.2L2.8 21.8C3.2 23.7 5 25.1 7 25.1H21C23 25.1 24.7 23.7 25.2 21.9L27.9 11.8L28 10.9C28 9 26.6 7.6 24.7 7.6ZM13.1 2.5C13.3 2.2 13.7 2 14.1 2C14.6 2 15 2.3 15 2.4L18.5 7.6H9.7L13.1 2.5ZM26 11.3L23.3 21.3C23.1 22.3 22.2 23 21.1 23H7C6 23 5 22.2 4.8 21.2L2 11.1V10.9C2 10.5 2.1 10.2 2.3 10C2.5 9.8 2.8 9.7 3.2 9.7H24.7C25.5 9.7 26 10.2 26 10.9V11.3Z" fill="white"/>
</svg>
