<svg width="18" height="19" viewBox="0 0 18 19" fill="none" xmlns="http://www.w3.org/2000/svg">
<path d="M16.9121 16.4813L12.6594 12.0161C13.7473 10.7262 14.3407 9.0393 14.3407 7.35243C14.3407 3.38334 11.077 0.108841 7.1209 0.108841C3.16484 0.108841 0 3.48257 0 7.45166C0 11.4208 3.26375 14.6953 7.2198 14.6953C8.70332 14.6953 10.0879 14.1991 11.3737 13.4053L15.6264 17.8705C15.8242 18.069 16.022 18.1682 16.3187 18.1682C16.5165 18.1682 16.8132 18.069 17.011 17.8705C17.3077 17.4736 17.3077 16.8783 16.9121 16.4813ZM7.2198 2.09339C10.1868 2.09339 12.5605 4.47484 12.5605 7.45166C12.5605 10.4285 10.1868 12.8099 7.2198 12.8099C4.25276 12.8099 1.87913 10.4285 1.87913 7.45166C1.87913 4.47484 4.25276 2.09339 7.2198 2.09339Z" fill="white"/>
</svg>
