<svg width="209" height="40" viewBox="0 0 209 40" fill="none" xmlns="http://www.w3.org/2000/svg">
<path fill-rule="evenodd" clip-rule="evenodd" d="M51.0999 27.5C50.7999 27.5 50.4999 27.5 50.2999 27.6C50.0999 27.7 49.8999 27.8 49.7999 27.9C49.7499 27.95 49.6999 28.025 49.6499 28.1C49.5999 28.175 49.5499 28.25 49.4999 28.3C49.4499 28.35 49.4249 28.425 49.3999 28.5C49.3749 28.575 49.3499 28.65 49.2999 28.7C49.2999 28.4 49.2999 28.2 49.3999 27.9C49.4999 27.3 49.5999 26.9 49.7999 26.6C49.9999 26.3 50.3999 26 50.8999 25.8C50.9413 25.8 50.9999 25.7828 51.0685 25.7627C51.1656 25.7343 51.2827 25.7 51.3999 25.7C51.517 25.7 51.6342 25.6657 51.7313 25.6373C51.7999 25.6172 51.8585 25.6 51.8999 25.6C51.9999 25.6 52.1999 25.5 52.2999 25.4C52.4999 25.3 52.6999 25.2 52.7999 25.1L52.5999 24.5C52.3999 24.7 52.1999 24.8 51.9999 24.9C51.7999 25 51.5999 25.1 51.2999 25.1C51.1853 25.1382 51.0853 25.1618 50.9999 25.182C50.8617 25.2146 50.7617 25.2382 50.6999 25.3C50.4907 25.3697 50.2815 25.4881 50.1063 25.5872C50.0302 25.6303 49.9604 25.6697 49.8999 25.7C49.6999 25.9 49.4999 26.1 49.3999 26.3C49.2999 26.5 49.1999 26.8 49.0999 27.1C48.9999 27.4 48.9999 27.8 48.9999 28.1V30.4C48.9999 30.7 48.9999 30.9 49.0999 31.2C49.0999 31.5 49.1999 31.7 49.2999 31.9C49.3999 32.1 49.4999 32.2 49.6999 32.4C49.7999 32.6 49.9999 32.7 50.2999 32.7C50.4999 32.8 50.7999 32.8 51.0999 32.8C51.8999 32.8 52.3999 32.6 52.6999 32.1C52.9999 31.6 53.0999 30.9 53.0999 30C53.0999 29 52.9999 28.3 52.6999 27.9C52.6436 27.8775 52.5886 27.855 52.5343 27.8328C52.1061 27.6575 51.7211 27.5 51.0999 27.5ZM51.9999 31.8C51.7999 32.1 51.3999 32.3 50.8999 32.3C50.3999 32.3 49.9999 32.1 49.7999 31.8C49.5999 31.5 49.4999 30.9 49.4999 30.1C49.4999 29.4 49.5999 28.9 49.7999 28.6C49.9999 28.3 50.3999 28.1 50.9999 28.1C51.4999 28.1 51.8999 28.2 52.0999 28.5C52.2999 28.8 52.3999 29.3 52.3999 30.1C52.2999 30.9 52.1999 31.5 51.9999 31.8Z" fill="#878787"/>
<path d="M59.8999 27.3H59.2999V32.7H59.8999V27.3Z" fill="#878787"/>
<path fill-rule="evenodd" clip-rule="evenodd" d="M55.2998 29.5H56.5998C57.2998 29.5 57.6998 29.6 57.7998 29.9C58.0998 30.2 58.1998 30.6 58.1998 31.2C58.1998 31.8 57.9998 32.3 57.7998 32.5C57.5998 32.7 57.1998 32.8 56.5998 32.8C56.1531 32.8 55.7687 32.7688 55.4292 32.7413C55.1609 32.7195 54.9206 32.7 54.6998 32.7V27.3H55.2998V29.5ZM56.6998 32.2C57.0998 32.2 57.2998 32.1 57.4998 32C57.5998 31.9 57.6998 31.6 57.6998 31C57.6998 30.6 57.5998 30.4 57.4998 30.2C57.3998 30.1 57.0998 30 56.6998 30H55.3998V32.2H56.6998Z" fill="#878787"/>
<path d="M63.9998 32.3C63.3998 32.3 62.9998 32.1 62.6998 31.8C62.4998 31.5 62.2998 30.9 62.2998 30C62.2998 29.1 62.3998 28.5 62.6998 28.2C62.8998 27.9 63.3998 27.7 63.9998 27.7C64.4998 27.7 64.8998 27.7 65.1998 27.8L65.2998 27.3C64.8998 27.1 64.3998 27.1 63.8998 27.1C63.0998 27.1 62.4998 27.3 62.1998 27.7C61.8998 28.1 61.6998 28.9 61.6998 29.9C61.6998 30.9 61.8998 31.7 62.1998 32.1C62.4998 32.5 63.0998 32.7 63.8998 32.7C64.3998 32.7 64.8998 32.6 65.3998 32.5L65.2998 32C64.9998 32.2 64.5998 32.3 63.9998 32.3Z" fill="#878787"/>
<path d="M68.3 27.9H66.6V27.3H70.7V27.9H68.9V32.7H68.3V27.9Z" fill="#878787"/>
<path fill-rule="evenodd" clip-rule="evenodd" d="M74.6998 27.2C73.9998 27.2 73.3998 27.5 72.7998 28.2L72.6998 27.3H72.1998V35H72.7998V32.2C73.3998 32.6 73.9998 32.8 74.5998 32.8C75.1998 32.8 75.6998 32.6 75.8998 32.2C76.1998 31.8 76.2998 31 76.2998 30C76.2998 29 76.1998 28.3 75.8998 27.8C75.6998 27.4 75.2998 27.2 74.6998 27.2ZM75.3998 31.8C75.1998 32.1 74.8998 32.3 74.3998 32.3C73.9998 32.3 73.4998 32.2 72.7998 31.9V28.8C72.9674 28.6743 73.1174 28.5487 73.2498 28.4377C73.4335 28.2838 73.5836 28.1581 73.6998 28.1C73.7624 28.0791 73.8207 28.0583 73.8764 28.0383C74.0876 27.9626 74.2624 27.9 74.4998 27.9C74.8998 27.9 75.1998 28.1 75.3998 28.4C75.5998 28.7 75.6998 29.3 75.6998 30.1C75.6998 30.9 75.5998 31.5 75.3998 31.8Z" fill="#878787"/>
<path fill-rule="evenodd" clip-rule="evenodd" d="M78.4999 27.8C78.7999 27.4 79.2999 27.2 80.0999 27.2C80.8999 27.2 81.3999 27.4 81.6999 27.8C81.9999 28.2 82.1999 29 82.1999 30C82.1999 31 81.9999 31.8 81.6999 32.2C81.3999 32.6 80.8999 32.8 80.0999 32.8C79.3999 32.8 78.7999 32.6 78.4999 32.2C78.1999 31.8 77.9999 31 77.9999 30C77.9999 29 78.0999 28.2 78.4999 27.8ZM80.0999 32.3C80.6999 32.3 81.0999 32.1 81.2999 31.8C81.4999 31.5 81.5999 30.9 81.5999 30C81.5999 29.1 81.4999 28.5 81.2999 28.2C80.9999 27.9 80.6999 27.7 80.0999 27.7C79.4999 27.7 79.0999 27.9 78.8999 28.2C78.6999 28.6 78.5999 29.1 78.5999 30C78.5999 30.9 78.6999 31.5 78.8999 31.8C79.0999 32.1 79.4999 32.3 80.0999 32.3Z" fill="#878787"/>
<path fill-rule="evenodd" clip-rule="evenodd" d="M90.9999 27.3H89.1999C88.4999 27.3 88.1999 27.7 88.0999 28.5C87.9999 30 87.7999 31.3 87.2999 32.2H86.7999V34.4H87.1999L87.2999 32.8H91.1999L91.2999 34.4H91.6999V32.2H90.9999V27.3ZM90.3999 32.2H87.7999C88.1999 31.3 88.4999 30.1 88.5999 28.6C88.5999 28.1 88.7999 27.9 89.1999 27.9H90.3999V32.2Z" fill="#878787"/>
<path fill-rule="evenodd" clip-rule="evenodd" d="M93.6 27.8C93.9 27.4 94.4 27.2 95.2 27.2C96 27.2 96.5 27.4 96.8 27.8C97.1 28.2 97.3 29 97.3 30C97.3 31 97.1 31.8 96.8 32.2C96.5 32.6 96 32.8 95.2 32.8C94.5 32.8 93.9 32.6 93.6 32.2C93.3 31.8 93.1 31 93.1 30C93.1 29 93.3 28.2 93.6 27.8ZM95.2 32.3C95.8 32.3 96.2 32.1 96.4 31.8C96.6 31.5 96.7 30.9 96.7 30C96.7 29.1 96.6 28.5 96.4 28.2C96.1 27.9 95.8 27.7 95.2 27.7C94.6 27.7 94.2 27.9 94 28.2C93.8 28.6 93.7 29.1 93.7 30C93.7 30.9 93.8 31.5 94 31.8C94.2 32.1 94.6 32.3 95.2 32.3Z" fill="#878787"/>
<path d="M101.2 32.3C100.6 32.3 100.2 32.1 99.8999 31.8C99.6999 31.5 99.4999 30.9 99.4999 30C99.4999 29.1 99.5999 28.5 99.8999 28.2C100.1 27.9 100.6 27.7 101.2 27.7C101.7 27.7 102.1 27.7 102.4 27.8L102.5 27.3C102.1 27.1 101.6 27.1 101.1 27.1C100.3 27.1 99.6999 27.3 99.3999 27.7C99.0999 28.2 98.9999 29 98.9999 30C98.9999 31 99.1999 31.8 99.4999 32.2C99.7999 32.6 100.4 32.8 101.2 32.8C101.7 32.8 102.2 32.7 102.7 32.6L102.6 32.1C102.2 32.2 101.8 32.3 101.2 32.3Z" fill="#878787"/>
<path d="M105.5 27.9H103.8V27.3H107.9V27.9H106.1V32.7H105.5V27.9Z" fill="#878787"/>
<path fill-rule="evenodd" clip-rule="evenodd" d="M111.6 27.2C111.125 27.2 110.588 27.2626 109.938 27.3383C109.767 27.3583 109.588 27.3791 109.4 27.4L109.5 27.9C109.602 27.8873 109.702 27.8746 109.8 27.8621C110.476 27.7762 111.076 27.7 111.6 27.7C112 27.7 112.2 27.8 112.4 28C112.5 28.2 112.6 28.4 112.6 28.8V29.4H110.5C110.1 29.4 109.8 29.5 109.6 29.7C109.4 29.9 109.3 30.3 109.3 30.7V31.3C109.3 31.8 109.4 32.1 109.7 32.4C109.9 32.7 110.3 32.8 110.7 32.8C111.1 32.8 111.5 32.7 111.8 32.5C112.2 32.3 112.5 32 112.7 31.8L112.8 32.8H113.3V28.9C113.3 28.3 113.2 27.9 112.9 27.6C112.4 27.3 112.1 27.2 111.6 27.2ZM112.4 31.3C112.1 31.6 111.8 31.8 111.5 32C111.2 32.2 110.8 32.2 110.6 32.2C110.1 32.2 109.8 31.9 109.8 31.3V30.8C109.8 30.3 110 30 110.5 30H112.5V31.3H112.4Z" fill="#878787"/>
<path fill-rule="evenodd" clip-rule="evenodd" d="M118.6 29.6C118.4 29.8 118.2 29.9 117.8 30C118.3 30 118.5 30.1 118.7 30.5C118.9 30.7 119 31.1 119 31.5C119 32 118.9 32.4 118.6 32.6C118.4 32.8 117.9 32.9 117.2 32.9C116.684 32.9 116.234 32.8672 115.85 32.8391C115.563 32.8182 115.313 32.8 115.1 32.8V27.4C115.5 27.3 116.1 27.3 116.9 27.3C117.6 27.3 118.1 27.4 118.4 27.6C118.7 27.8 118.8 28.1 118.8 28.7C118.8 29.1 118.8 29.4 118.6 29.6ZM116.9 27.8H115.7V29.6H117C117.5 29.6 117.8 29.5 118 29.4C118.2 29.3 118.3 29.1 118.3 28.7C118.3 28.4 118.2 28.1 118 28C117.8 27.9 117.4 27.8 116.9 27.8ZM117.1 32.2C117.6 32.2 117.9 32.1 118.1 32C118.3 31.9 118.4 31.7 118.4 31.2C118.4 30.8 118.3 30.6 118.1 30.4C117.9 30.3 117.5 30.2 117 30.2H115.7V32.2H117.1Z" fill="#878787"/>
<path d="M121.8 27.6C121.6 27.8 121.5 28.1 121.5 28.5V29.6C121.5 29.8 121.5 30 121.4 30.1C121.4 30.2 121.4 30.4 121.3 30.5C121.3 30.6172 121.266 30.7 121.237 30.7686C121.217 30.8172 121.2 30.8586 121.2 30.9C121.2 30.95 121.175 31.025 121.15 31.1C121.125 31.175 121.1 31.25 121.1 31.3C121 31.5 120.9 31.7 120.8 31.8C120.7 31.9 120.5 32 120.3 32.1L120.4 32.7C121 32.6 121.5 32.2 121.7 31.5C121.7 31.45 121.725 31.4 121.75 31.35C121.775 31.3 121.8 31.25 121.8 31.2C121.8 31.15 121.825 31.1 121.85 31.05C121.875 31 121.9 30.95 121.9 30.9C121.9 30.8 121.9 30.7 122 30.5C122 30.3 122 30.2 122.1 30.1C122.1 30 122.1 29.9 122.2 29.7V28.5C122.2 28.2626 122.263 28.1505 122.338 28.0149C122.358 27.9791 122.379 27.9417 122.4 27.9C122.5 27.8 122.6 27.7 122.8 27.7H124V32.6H124.6V27.2H122.7C122.3 27.3 122 27.4 121.8 27.6Z" fill="#878787"/>
<path fill-rule="evenodd" clip-rule="evenodd" d="M126.5 28.9C126.5 28.4 126.6 28 126.9 27.7C127.1 27.4 127.5 27.2 128.1 27.4C129 27.4 129.6 27.4 130.1 27.5V32.9H129.5V30.8H128.2C127.7 30.8 127.4 31 127.3 31.4L126.9 32.8H126.3L126.7 31.2C126.8 30.8 127.1 30.6 127.6 30.5C126.9 30.4 126.5 29.9 126.5 28.9ZM129.5 30.2V27.9C129.3 27.8 128.8 27.8 128.1 27.9C127.7 27.9 127.5 28 127.3 28.2C127.2 28.4 127.1 28.6 127.1 29C127.1 29.4 127.1 29.7 127.3 29.9C127.5 30.1 127.8 30.2 128.2 30.2H129.5Z" fill="#878787"/>
<path fill-rule="evenodd" clip-rule="evenodd" d="M136 28.9C136 28.3 135.8 27.9 135.5 27.6C135.2 27.3 134.7 27.2 134 27.2C133.3 27.2 132.7 27.4 132.4 27.8C132.1 28.2 131.9 29 131.9 30C131.9 31 132.1 31.8 132.4 32.2C132.7 32.6 133.3 32.9 134.1 32.9C134.9 32.9 135.5 32.8 135.8 32.6L135.7 32.1C135.1 32.2 134.6 32.2 134.1 32.2C133.6 32.2 133.2 32.1 132.9 31.8C132.7 31.5 132.5 31 132.5 30.3H134.8C135.7 30.4 136 29.9 136 28.9ZM132.6 29.8C132.6 29 132.7 28.5 132.9 28.2C133.1 27.9 133.5 27.8 134 27.8C134.4 27.8 134.8 27.9 135 28.1C135.2 28.3 135.3 28.5 135.3 28.9C135.3 29.5 135.1 29.8 134.7 29.8H132.6Z" fill="#878787"/>
<path d="M142.2 27.3H142.9C142.971 27.3 143.041 27.35 143.183 27.45C143.241 27.4914 143.312 27.5414 143.4 27.6L143.6 32.8H143L142.8 27.9H142.6L141.2 32C141.2 32.1 141.1 32.2 141 32.2H140.5C140.3 32.2 140.3 32.2 140.2 32L138.8 27.9H138.6L138.4 32.8H137.8L138 27.6C138 27.4 138 27.3 138.2 27.3H138.9C139 27.3 139 27.3 139.1 27.5L140.2 30.9C140.25 31.0499 140.275 31.1749 140.3 31.2999C140.325 31.4248 140.35 31.5501 140.4 31.7H140.6C140.638 31.5472 140.676 31.409 140.709 31.291C140.762 31.1 140.8 30.9618 140.8 30.9L141.9 27.5C142 27.4 142.1 27.3 142.2 27.3Z" fill="#878787"/>
<path fill-rule="evenodd" clip-rule="evenodd" d="M151.5 30C151.9 29.9 152.1 29.8 152.3 29.6C152.5 29.4 152.5 29.1 152.5 28.7C152.5 28.1 152.4 27.8 152.1 27.6C151.8 27.4 151.3 27.3 150.6 27.3C149.8 27.3 149.2 27.3 148.8 27.4V32.8C149.013 32.8 149.263 32.8182 149.55 32.8391C149.934 32.8672 150.384 32.9 150.9 32.9C151.6 32.9 152.1 32.8 152.3 32.6C152.6 32.4 152.7 32 152.7 31.5C152.7 31.1 152.6 30.7 152.4 30.5C152.3 30.1 152 30 151.5 30ZM149.4 27.8H150.6C151.1 27.8 151.5 27.9 151.7 28C151.9 28.1 152 28.4 152 28.7C152 29.1 151.9 29.3 151.7 29.4C151.5 29.5 151.2 29.6 150.7 29.6H149.4V27.8ZM151.8 32C151.6 32.1 151.3 32.2 150.8 32.2H149.4V30.2H150.7C151.2 30.2 151.6 30.3 151.8 30.4C152 30.6 152.1 30.8 152.1 31.2C152.1 31.7 152 31.9 151.8 32Z" fill="#878787"/>
<path d="M157.8 31.1C157.8 31.2 157.9 31.4 158 31.6C158.1 31.8 158.2 32 158.1 32C158.1 32.0618 158.138 32.1618 158.191 32.3C158.223 32.3854 158.262 32.4854 158.3 32.6H157.7C157.51 32.0294 157.319 31.5794 157.18 31.25C157.1 31.0599 157.036 30.9098 157 30.8C156.7 30.4 156.4 30.1 155.9 30.1H155.1V32.7H154.5V27.3H155.1V29.6H155.9C156.1 29.6 156.2 29.6 156.4 29.5C156.6 29.4 156.7 29.3 156.8 29.2C156.9 29.1 157 28.9 157.1 28.7L157.4 28.1C157.5 27.9 157.6 27.6 157.7 27.3H158.3C158.258 27.4256 158.234 27.5512 158.212 27.6621C158.182 27.816 158.158 27.9419 158.1 28C158.1 28.2 158 28.3999 157.9 28.5999C157.8 28.7999 157.7 29 157.6 29.1C157.55 29.15 157.5 29.225 157.45 29.3C157.4 29.375 157.35 29.45 157.3 29.5C157.25 29.55 157.175 29.6 157.1 29.65C157.025 29.7 156.95 29.75 156.9 29.8C156.858 29.8 156.817 29.8172 156.769 29.8373C156.7 29.8657 156.617 29.9 156.5 29.9C156.617 29.9 156.7 29.9343 156.769 29.9627C156.817 29.9828 156.858 30 156.9 30C156.95 30.05 157 30.075 157.05 30.1C157.1 30.125 157.15 30.15 157.2 30.2C157.2 30.2618 157.238 30.2854 157.291 30.318C157.323 30.3382 157.362 30.3618 157.4 30.4C157.4 30.4 157.5 30.5 157.6 30.7C157.638 30.7764 157.676 30.8382 157.709 30.891C157.762 30.9764 157.8 31.0382 157.8 31.1Z" fill="#878787"/>
<path d="M161.8 32.1H161.7C161.65 32 161.625 31.9001 161.6 31.8001C161.575 31.7001 161.55 31.6 161.5 31.5L160.1 27.3H159.5L161.3 32.5C161.3 32.6 161.4 32.7 161.5 32.7H161.7L161.6 33C161.4 33.6 161.2 34 160.9 34.2C160.6 34.4 160.3 34.5 159.8 34.5L159.7 35C160.3 35.1 160.9 35 161.3 34.7C161.6 34.4 161.9 33.9 162.2 33.1L164.1 27.3H163.5L162 31.5L161.8 32.1Z" fill="#878787"/>
<path d="M166.2 31.8C166.5 32.1 166.9 32.3 167.5 32.3C168.1 32.3 168.5 32.2 168.8 32L168.9 32.5C168.4 32.6 167.9 32.7 167.4 32.7C166.6 32.7 166 32.5 165.7 32.1C165.4 31.7 165.2 30.9 165.2 29.9C165.2 28.9 165.4 28.1 165.7 27.7C166 27.3 166.6 27.1 167.4 27.1C167.9 27.1 168.4 27.1 168.8 27.3L168.7 27.8C168.4 27.7 168 27.7 167.5 27.7C166.9 27.7 166.4 27.9 166.2 28.2C165.9 28.5 165.8 29.1 165.8 30C165.8 30.9 166 31.5 166.2 31.8Z" fill="#878787"/>
<path d="M173.9 29.6H171.2V27.3H170.6V32.7H171.2V30.1H173.9V32.7H174.5V27.3H173.9V29.6Z" fill="#878787"/>
<path d="M178.2 32.1H178.3L179.9 27.3H180.5L178.6 33.1C178.3 33.9 178 34.4 177.7 34.7C177.3 35 176.7 35.1 176.1 35L176.2 34.5C176.7 34.5 177 34.4 177.3 34.2C177.6 34 177.8 33.6 178 33L178.2 32.7H178C177.9 32.7 177.8 32.6 177.8 32.5L176 27.3H176.6L178 31.5C178.05 31.6 178.075 31.7 178.1 31.8C178.125 31.9 178.15 32 178.2 32.1Z" fill="#878787"/>
<path fill-rule="evenodd" clip-rule="evenodd" d="M186 27.2C185.3 27.2 184.8 27.4 184.5 27.7C184.2 28.1 184 28.7 184 29.7H182.7V27.4H182.1V32.8H182.7V30.3H184C184 31.3 184.2 32 184.5 32.4C184.8 32.8 185.3 33 186.1 33C186.9 33 187.5 32.8 187.8 32.4C188.1 32 188.3 31.3 188.3 30.2C188.3 29.1 188.1 28.4 187.8 28C187.4 27.4 186.8 27.2 186 27.2ZM187.2 31.7C187 32 186.6 32.2 186 32.2C185.5 32.2 185.1 32 184.9 31.7C184.7 31.4 184.6 30.8 184.6 30C184.6 29.2 184.7 28.6 184.9 28.3C185.1 28 185.5 27.8 186 27.8C186.6 27.8 187 28 187.2 28.3C187.4 28.6 187.5 29.2 187.5 30C187.5 30.8 187.4 31.4 187.2 31.7Z" fill="#878787"/>
<path fill-rule="evenodd" clip-rule="evenodd" d="M195.9 27.6C196.2 27.9 196.4 28.3 196.4 28.9C196.4 29.9 196 30.4 195.2 30.3H192.9C192.9 31 193.1 31.5 193.3 31.8C193.6 32.1 194 32.2 194.5 32.2C195 32.2 195.5 32.2 196.1 32.1L196.2 32.6C195.9 32.8 195.3 32.9 194.5 32.9C193.7 32.9 193.1 32.6 192.8 32.2C192.5 31.8 192.3 31 192.3 30C192.3 29 192.5 28.2 192.8 27.8C193.1 27.4 193.7 27.2 194.4 27.2C195.1 27.2 195.6 27.3 195.9 27.6ZM193.3 28.2C193.1 28.5 193 29 193 29.8H195.1C195.5 29.8 195.7 29.5 195.7 28.9C195.7 28.5 195.6 28.3 195.4 28.1C195.2 27.9 194.8 27.8 194.4 27.8C193.9 27.8 193.5 27.9 193.3 28.2Z" fill="#878787"/>
<path fill-rule="evenodd" clip-rule="evenodd" d="M200 27.3C199.3 27.3 199 27.7 198.9 28.5C198.8 30 198.6 31.3 198.1 32.2H197.6V34.4H198L198.1 32.8H202L202.1 34.4H202.5V32.2H201.9V27.3H200ZM198.7 32.2C199.1 31.3 199.4 30.1 199.5 28.6C199.5 28.1 199.7 27.9 200.1 27.9H201.3V32.2H198.7Z" fill="#878787"/>
<path d="M205.7 32.1H205.8L207.4 27.3H208.1L206.2 33.1C205.9 33.9 205.6 34.4 205.3 34.7C204.9 35 204.3 35.1 203.7 35L203.8 34.5C204.3 34.5 204.6 34.4 204.9 34.2C205.2 34 205.4 33.6 205.6 33L205.7 32.7H205.5C205.4 32.7 205.3 32.6 205.3 32.5L203.5 27.3H204.1L205.5 31.5C205.55 31.6 205.575 31.7 205.6 31.8C205.625 31.9 205.65 32 205.7 32.1Z" fill="#878787"/>
<path d="M133.2 20V0H119.6V20H123.4V3.2H129.4V20H133.2Z" fill="#F17E00"/>
<path fill-rule="evenodd" clip-rule="evenodd" d="M137.3 2.1C138.3 0.7 140.2 0 142.9 0C145.6 0 147.5 0.7 148.5 2.1C149.6 3.5 150.1 6.1 150.1 10C150.1 13.8 149.6 16.4 148.5 17.9C147.4 19.3 145.6 20 142.9 20C140.2 20 138.3 19.3 137.3 17.9C136.3 16.5 135.7 13.9 135.7 10C135.8 6.2 136.3 3.6 137.3 2.1ZM145.5 4.8C145 3.9 144.2 3.4 142.9 3.4C141.6 3.4 140.8 3.9 140.3 4.8C139.8 5.7 139.6 7.4 139.6 10C139.6 12.6 139.8 14.3 140.3 15.2C140.8 16.1 141.6 16.6 142.9 16.6C144.2 16.6 145 16.1 145.5 15.2C146 14.3 146.2 12.6 146.2 10C146.2 7.4 146 5.7 145.5 4.8Z" fill="#F17E00"/>
<path d="M164.1 19.7L164 16.5V16.4H157.4C157 16.4 156.7 16.3 156.5 16.1C156.3 15.9 156.2 15.5 156.2 15V11.1H163V7.9H156.2V4.9C156.2 4.4 156.3 4 156.5 3.8C156.7 3.6 157 3.5 157.4 3.5H164L164.1 0.3C162.6 0.1 159.9 0 156.2 0C155.1 0 154.2 0.4 153.5 1.1C152.8 1.8 152.5 2.8 152.5 4V16C152.5 17.2 152.8 18.2 153.5 18.9C154.2 19.6 155.1 20 156.2 20C159.9 20 162.6 19.9 164.1 19.7Z" fill="#F17E00"/>
<path d="M188.2 3.6H193.3V0H179.3V3.6H184.4V20H188.2V3.6Z" fill="#F17E00"/>
<path fill-rule="evenodd" clip-rule="evenodd" d="M201.8 7.3H199.1V0H195.4V19.7H195.5C197.1 19.8 199.3 19.9 202.3 19.9C204.3 19.9 205.8 19.5 206.6 18.6C207.5 17.7 207.9 16.1 207.9 13.7C207.9 11.3 207.5 9.6 206.6 8.7C205.7 7.8 204.1 7.3 201.8 7.3ZM201.8 16.6H199.3V10.4H201.8C202.8 10.4 203.5 10.7 203.8 11.1C204.1 11.5 204.3 12.4 204.3 13.6C204.3 14.8 204.1 15.6 203.8 16C203.4 16.4 202.8 16.6 201.8 16.6Z" fill="#F17E00"/>
<path d="M178 16.1L178.3 19.3C176.8 19.8 175.1 20.1 172.9 20.1C170.3 20.1 168.5 19.4 167.4 17.9C166.3 16.4 165.8 13.8 165.8 10.1C165.8 6.4 166.3 3.8 167.4 2.3C168.5 0.8 170.3 0.1 172.9 0.1C174.8 0.1 176.5 0.3 177.9 0.7L177.6 3.9C176.3 3.8 174.7 3.8 172.9 3.8C171.7 3.8 170.9 4.2 170.4 5.1C170 6 169.7 7.6 169.7 10.1C169.7 12.5 169.9 14.2 170.4 15.1C170.8 16 171.7 16.4 172.9 16.4C175.2 16.3 176.9 16.2 178 16.1Z" fill="#F17E00"/>
<path d="M59.1999 9.7L63.5999 20H59.6999L56.1999 11.2L52.5999 20H48.7999L53.1999 9.7L49.0999 0H52.9999L56.1999 8.2L59.3999 0H63.2999L59.1999 9.7Z" fill="#50CE1B"/>
<path fill-rule="evenodd" clip-rule="evenodd" d="M71.6 0C68.9 0 67 0.7 66 2.1C64.9 3.6 64.4 6.2 64.4 10C64.4 13.9 65 16.5 66 17.9C67 19.3 68.9 20 71.6 20C74.3 20 76.1 19.3 77.2 17.9C78.3 16.4 78.8 13.8 78.8 10C78.8 6.1 78.3 3.5 77.2 2.1C76.2 0.7 74.3 0 71.6 0ZM71.6 3.4C72.9 3.4 73.7 3.9 74.2 4.8C74.6 5.7 74.9 7.4 74.9 10C74.9 12.6 74.7 14.3 74.2 15.2C73.7 16.1 72.9 16.6 71.6 16.6C70.3 16.6 69.5 16.1 69 15.2C68.5 14.3 68.3 12.6 68.3 10C68.3 7.4 68.5 5.7 69 4.8C69.5 3.9 70.3 3.4 71.6 3.4Z" fill="#50CE1B"/>
<path d="M90.3 20H94V0H90.3V8.6C89 9.2 87.8 9.5 86.5 9.5C85.8 9.5 85.3 9.3 85 9C84.7 8.7 84.6 8.2 84.6 7.4V0H80.9V8.3C80.9 10 81.2 11.2 81.9 12C82.6 12.8 83.6 13.2 85.1 13.2C86.8 13.2 88.4 13 90.3 12.3V20Z" fill="#50CE1B"/>
<path d="M105.9 0L103.1 9L100.5 0H95.9999L101.1 15.5L99.6999 20H103.5L110.4 0H105.9Z" fill="#50CE1B"/>
<path d="M0 36.8C3.4 32.3 6.7 27.8 10.1 23.3L5.7 24.8C3.8 28.8 1.9 32.8 0 36.8Z" fill="#F17E00"/>
<path d="M10.3001 35.5C11.3001 32 12.4001 27.9 13.4001 24.4L10.1 23.3C10.2 27.2 10.2001 31.6 10.3001 35.5Z" fill="#F17E00"/>
<path d="M18.2999 8.6C16.4999 8.7 14.8999 8.9 13.3999 9.2L15.0999 12.9C17.7999 11.5 20.4999 10 23.1999 8.6C21.7999 8.5 20.0999 8.5 18.2999 8.6Z" fill="#F17E00"/>
<path d="M4.9 15.2C2.9 17.7 1.7 20.2 1 22C3.2 20.3 5.5 18.7 7.7 17L9.1 11.1C7.9 12 6.4 13.4 4.9 15.2Z" fill="#F17E00"/>
<path d="M38.8001 4.2C38.7001 4.2 38.6001 4.2 38.5001 4.2C37.4001 4.2 36.1001 4.3 34.7001 4.5C32.8001 4.8 31.1001 5.2 29.6001 5.6C28.9001 6 28.3001 6.5 27.6001 6.9C29.2001 6.3 31.1001 5.8 33.3001 5.4C35.8001 4.9 38.1001 4.9 39.9001 4.9C39.9001 4.7 40.0001 4.4 40.0001 4.2C39.6001 4.2 39.2001 4.2 38.8001 4.2Z" fill="#F17E00"/>
<path d="M1.5 40C1 39.1 0.5 38.2 0 37.3C13.3 35.8 26.7 34.2 40 32.8C27.2 35.2 14.3 37.6 1.5 40Z" fill="#50CE1B"/>
<path d="M14 7.6C14.3 7 14.7 6.6 15 6.4C15.4 6.6 15.8 6.9 16.2 7.1C16 6.6 15.9 6 15.7 5.3C15.6 4.7 15.5 4.1 15.5 3.6C15.7 3.1 16 2.5 16.5 1.8C17.1 1 17.7999 0.4 18.2999 0.1C17.5 0 16.2999 -0.1 14.9 0.2C13.7 0.4 12.7 0.9 12 1.2C11.3 2.1 10.4 3.5 9.69995 5.5C8.89995 7.9 8.99995 9.9 9.09995 11.1L7.79995 17C7.09995 19.6 6.39995 22.2 5.69995 24.8L10.1 23.3L13.4 24.4C14.1 20.8 14.4 16.4 15.1 12.9L13.4 9.2C13.5 8.8 13.7 8.2 14 7.6Z" fill="#50CE1B"/>
<path d="M34.7001 4.5C36.1001 4.3 37.4001 4.2 38.5001 4.2C38.4001 3.7 38.0001 2.3 36.8001 1.5C36.2001 1.1 35.4001 0.9 34.7001 0.9C34.7001 0.6 34.5001 0.3 34.2001 0.1C33.8001 -0.0999999 33.1001 1.78814e-07 32.8001 0.5C32.6001 0.7 32.5001 1.1 32.6001 1.3C32.0001 1.6 31.4001 2 30.9001 2.5C29.8001 3.7 29.7001 5.1 29.6001 5.7C31.1001 5.2 32.8001 4.8 34.7001 4.5ZM33.1001 0.7C33.3001 0.5 33.6001 0.4 33.9001 0.5C34.1001 0.6 34.2001 0.7 34.2001 0.9C33.8001 0.9 33.4001 1 33.0001 1.1C33.0001 1 33.0001 0.8 33.1001 0.7Z" fill="#50CE1B"/>
<path d="M23.6001 7.9C23.9001 7.6 24.3001 7.3 24.9001 7C25.5001 6.7 26.1001 6.6 26.5001 6.6C26.4828 6.6 26.4414 6.58499 26.3802 6.56278C26.0882 6.45676 25.3442 6.18662 24.6001 6.6C23.9001 7.1 23.6001 7.8 23.6001 7.9Z" fill="#50CE1B"/>
<path d="M24.0429 8.34287C24.4234 8.25584 24.9117 8.14416 25.4 7.9C26 7.7 26.4001 7.4 26.7001 7.1C26.3001 7.1 25.8001 7.2 25.1 7.5C24.6001 7.8 24.1 8.1 23.8 8.4C23.8745 8.38138 23.9559 8.36277 24.0429 8.34287Z" fill="#50CE1B"/>
<path d="M25.7001 8.4C26.3001 8.1 26.8001 7.8 27.0001 7.5C27.0001 7.6 26.7001 8.5 25.8001 8.8C25.0001 9.2 24.2001 8.9 24.1001 8.8C24.4001 8.8 25.0001 8.7 25.7001 8.4Z" fill="#50CE1B"/>
</svg>
