<svg width="24" height="24" viewBox="0 0 24 24" fill="none" xmlns="http://www.w3.org/2000/svg">
<path d="M23.6197 2.53467H0.380252C0.170277 2.53467 0 2.70487 0 2.91492V21.0847C0 21.2948 0.170277 21.465 0.380252 21.465H23.6197C23.8299 21.465 24 21.2948 24 21.0847V2.91492C24 2.70487 23.8299 2.53467 23.6197 2.53467ZM21.7185 18.4334L16.4888 13.0175C16.431 12.9578 16.3365 12.954 16.2741 13.0089L12.6469 16.2014L8.0107 10.493C7.98058 10.4557 7.93655 10.4344 7.88674 10.4355C7.83875 10.4365 7.79396 10.4595 7.76528 10.498L2.28151 17.8562V4.81618H21.7185V18.4334Z" fill="#F17E00"/>
<path d="M15.9748 10.3089C17.0044 10.3089 17.8402 9.47369 17.8402 8.44328C17.8402 7.41318 17.0044 6.57753 15.9748 6.57753C14.9444 6.57753 14.1094 7.41318 14.1094 8.44328C14.1094 9.47361 14.9445 10.3089 15.9748 10.3089Z" fill="#F17E00"/>
</svg>
